<svg width="124" height="260" viewBox="0 0 124 260" fill="none" xmlns="http://www.w3.org/2000/svg">
<path d="M85.5254 0.0708797C85.5254 0.0708797 85.3631 0.0708797 85.0504 0.0708797C84.5939 0.0437683 84.1362 0.0437683 83.6796 0.0708797C81.9138 0.174256 80.179 0.58101 78.5513 1.27331C75.9711 2.35483 73.7257 4.10426 72.0461 6.34159C71.0105 7.73858 70.2402 9.31383 69.7735 10.989C68.7212 14.9794 69.2896 19.224 71.3547 22.7969C71.9175 23.7861 72.6045 24.6994 73.3988 25.5144C74.2001 26.378 75.1336 27.1085 76.1644 27.6788C77.2221 28.2741 78.42 28.5751 79.6334 28.5506C80.8845 28.5356 82.0842 28.0505 82.9942 27.1918C83.4342 26.7309 83.779 26.1879 84.009 25.5937C84.2391 24.9995 84.3498 24.3658 84.335 23.7288C84.3258 22.4054 83.9056 21.1175 83.1325 20.0433C81.5754 17.8489 79.0503 16.3759 76.3628 15.5823C73.576 14.7996 70.6332 14.7582 67.8255 15.4621C66.3924 15.8349 65.011 16.3842 63.7132 17.0974C62.4029 17.8368 61.2129 18.7713 60.184 19.869C59.9375 20.1516 59.655 20.4101 59.4325 20.7227L58.7531 21.6366C58.3401 22.2805 57.9705 22.9514 57.6469 23.6446C57.0038 25.0522 56.5645 26.5442 56.3423 28.0756C55.9059 31.1351 56.3219 34.2556 57.5447 37.0939C58.7134 39.8672 60.7489 42.1874 63.3464 43.7073C64.6059 44.4269 66.0117 44.8523 67.4588 44.9518C68.8777 45.0312 70.2887 44.6926 71.517 43.9779C72.7361 43.304 73.6996 42.2477 74.2585 40.9718C74.7858 39.7143 74.8223 38.3048 74.3608 37.0218C73.8856 35.7838 73.1085 34.6843 72.1002 33.8233C71.1221 32.978 69.9944 32.3235 68.7754 31.8934C66.3981 31.1438 63.8544 31.0999 61.4526 31.7671C59.2053 32.3761 57.1412 33.5258 55.4404 35.1159C53.8913 36.6 52.7114 38.4264 51.9954 40.4487C50.7431 43.9576 50.8007 47.8009 52.1578 51.2706C53.2162 53.861 54.9195 56.1376 57.1058 57.884C58.483 58.9886 60.0169 59.8822 61.657 60.5354C62.2222 60.7458 62.6611 60.9021 62.9617 60.9863L63.4066 61.1306C63.4066 61.1306 63.2502 61.1006 62.9496 61.0164C62.5055 60.8975 62.068 60.755 61.639 60.5895C59.9773 59.9651 58.4234 59.0847 57.0337 57.9802C54.8103 56.235 53.0733 53.9472 51.9894 51.3368C50.6085 47.8342 50.538 43.9509 51.791 40.4006C52.5084 38.3476 53.7012 36.4935 55.2721 34.9896C56.9969 33.3676 59.0917 32.1912 61.3744 31.5627C63.8267 30.8785 66.4247 30.9203 68.8536 31.6829C70.1085 32.1206 71.2692 32.7917 72.2745 33.6609C73.3225 34.5502 74.129 35.6897 74.6193 36.9737C75.1137 38.3141 75.0923 39.7905 74.5592 41.1161C73.9661 42.4422 72.9601 43.541 71.6914 44.2484C70.4176 44.9907 68.9552 45.3459 67.4828 45.2705C66.0004 45.167 64.5611 44.727 63.2743 43.9839C60.6174 42.4427 58.5313 40.0824 57.3283 37.2562C56.0792 34.366 55.6507 31.1875 56.0897 28.0696C56.3193 26.5072 56.7686 24.9851 57.4244 23.5485C57.7547 22.8405 58.1324 22.1555 58.5547 21.4983L59.2521 20.5664C59.4746 20.2478 59.7632 19.9652 60.0157 19.6886C61.0687 18.5702 62.2849 17.6175 63.623 16.8629C64.951 16.1361 66.3649 15.5786 67.8315 15.2035C70.6928 14.4865 73.6919 14.53 76.5312 15.3298C79.2727 16.1475 81.8399 17.6445 83.4572 19.9171C84.2701 21.0361 84.7116 22.3818 84.7198 23.7649C84.749 25.126 84.2365 26.443 83.2949 27.4263C82.333 28.3293 81.0669 28.8378 79.7477 28.8512C78.4853 28.8799 77.2388 28.5661 76.1404 27.9434C75.085 27.3611 74.1308 26.6119 73.3146 25.7249C72.5099 24.8915 71.813 23.9604 71.2404 22.9533C69.1385 19.3139 68.5677 14.989 69.6532 10.9289C70.1344 9.23433 70.9231 7.64268 71.9799 6.23336C73.6905 3.97906 75.9743 2.2247 78.5933 1.15307C80.2345 0.474136 81.9831 0.0914556 83.7578 0.0227812C84.2182 -0.00759373 84.6802 -0.00759373 85.1406 0.0227812L85.5254 0.0708797Z" fill="#262424"/>
<path d="M105.6 60.2288H21.3027V125.244H105.6V60.2288Z" fill="#F4C3FB"/>
<path d="M21.3027 60.2288L36.8743 74.7542H119.74L105.6 60.2288H21.3027Z" fill="#F4C3FB"/>
<path d="M21.3027 60.2287L105.624 60.0784H105.69L105.738 60.1204L119.734 74.4956L119.878 74.6459L120.137 74.9104H119.764L36.8983 74.8443H36.8623L21.3027 60.2287L36.9344 74.6579H36.8683L119.734 74.5978L119.626 74.8623L119.476 74.712L105.485 60.3369L105.594 60.385L21.3027 60.2287Z" fill="#262424"/>
<path d="M46.6267 90.2117C46.17 90.2282 45.7381 90.4234 45.4239 90.7551C45.1097 91.0869 44.9383 91.5287 44.9466 91.9856C44.9548 92.4425 45.1422 92.8779 45.4682 93.198C45.7942 93.5182 46.2329 93.6976 46.6898 93.6976C47.1468 93.6976 47.5855 93.5182 47.9115 93.198C48.2375 92.8779 48.4248 92.4425 48.4331 91.9856C48.4413 91.5287 48.2699 91.0869 47.9557 90.7551C47.6415 90.4234 47.2096 90.2282 46.7529 90.2117" fill="#262424"/>
<path d="M66.5449 90.2117C66.0902 90.229 65.6603 90.424 65.3479 90.7549C65.0354 91.0857 64.8652 91.526 64.8739 91.981C64.8825 92.436 65.0693 92.8695 65.3942 93.1882C65.719 93.5069 66.156 93.6854 66.611 93.6854C67.0661 93.6854 67.5031 93.5069 67.8279 93.1882C68.1528 92.8695 68.3396 92.436 68.3483 91.981C68.3569 91.526 68.1867 91.0857 67.8743 90.7549C67.5618 90.424 67.132 90.229 66.6772 90.2117" fill="#262424"/>
<path d="M66.659 105.771C66.3114 104.443 65.7467 103.182 64.9876 102.038C64.1433 100.814 63.0592 99.7753 61.8011 98.9835C60.2834 97.9763 58.5131 97.4158 56.6922 97.3658C54.8713 97.3159 53.073 97.7785 51.5023 98.701C50.205 99.4252 49.0663 100.402 48.1535 101.575C47.3314 102.676 46.6994 103.908 46.2837 105.218C46.2883 105.12 46.3045 105.024 46.3318 104.93C46.3894 104.659 46.4637 104.392 46.5542 104.13C46.8837 103.164 47.3646 102.257 47.9791 101.443C48.8854 100.215 50.0384 99.1914 51.364 98.4364C52.9752 97.4746 54.8269 96.991 56.7026 97.0421C58.5784 97.0932 60.401 97.6769 61.9575 98.725C63.2373 99.5477 64.3309 100.629 65.168 101.899C65.7391 102.747 66.1714 103.681 66.4486 104.665C66.5225 104.932 66.5808 105.203 66.6229 105.477C66.6437 105.574 66.6557 105.672 66.659 105.771Z" fill="#262424"/>
<path opacity="0.5" d="M21.4956 60.9441L36.4058 79.8464H105.6V74.7541H36.8748L21.4956 60.9441Z" fill="#262424"/>
<path d="M88.9761 125.1C88.892 125.1 88.8198 113.791 88.8198 99.8489C88.8198 85.9067 88.892 74.5978 88.9761 74.5978C89.0603 74.5978 89.1385 85.9007 89.1385 99.8489C89.1385 113.797 89.0663 125.1 88.9761 125.1Z" fill="#262424"/>
<path d="M102.215 110.358H94.7842V118.757H102.215V110.358Z" fill="white"/>
<path d="M21.3031 60.2288L4 74.7542H21.3031V60.2288Z" fill="#F4C3FB"/>
<g opacity="0.4">
<path d="M21.3031 60.2288L4 74.7542H21.3031V60.2288Z" fill="#262424"/>
</g>
<path d="M108.089 125.244H11.1665V200H108.089V125.244Z" fill="#3583F0"/>
<path d="M83.8057 199.471C83.7215 199.471 83.6494 182.811 83.6494 162.261C83.6494 141.712 83.7215 125.046 83.8057 125.046C83.8899 125.046 83.962 141.706 83.962 162.261C83.962 182.817 83.8899 199.471 83.8057 199.471Z" fill="#262424"/>
<path d="M99.87 182.986H92.439V191.385H99.87V182.986Z" fill="white"/>
<path d="M51.7427 125.443H40.7344V141.393H51.7427V125.443Z" fill="#262424"/>
<path d="M51.7427 183.827H40.7344V199.778H51.7427V183.827Z" fill="#262424"/>
<path d="M107.247 125.244H106.995H106.267L103.472 125.274L93.1727 125.323L59.2098 125.401L25.235 125.359L14.9422 125.31L12.1465 125.28H11.413H11.1665H11.413H12.1465L14.9422 125.25L25.235 125.202L59.2098 125.154L93.1727 125.202L103.472 125.25L106.267 125.28H106.995L107.247 125.244Z" fill="#262424"/>
<path d="M9.17212 224.758H18.4681V225.668H9.17212V224.758ZM9.22812 228.076H18.4121V228.972H9.22812V228.076ZM11.0901 225.108H12.2521V228.664H11.0901V225.108ZM15.4021 225.108H16.5501V228.664H15.4021V225.108ZM8.10812 230.176H19.5461V231.1H8.10812V230.176ZM13.2461 228.72H14.3941V230.666H13.2461V228.72ZM9.49412 232.094H18.0901V234.852H10.6701V236.42H9.52212V234.026H16.9421V232.962H9.49412V232.094ZM9.52212 236.07H18.4681V236.952H9.52212V236.07ZM21.631 233.004H22.597C24.949 233.004 26.461 232.948 28.225 232.612L28.351 233.564C26.531 233.9 25.005 233.984 22.597 233.984H21.631V233.004ZM21.631 225.64H27.385V226.592H22.779V233.368H21.631V225.64ZM30.269 224.436H31.431V237.12H30.269V224.436ZM26.643 229.014H30.745V229.98H26.643V229.014ZM42.4339 224.422H43.6099V237.092H42.4339V224.422ZM43.2879 229.56H45.6259V230.526H43.2879V229.56ZM39.1999 225.794H40.3339C40.3339 229.392 38.6819 232.64 34.5939 234.698L33.9499 233.802C37.4499 232.024 39.1999 229.322 39.1999 225.976V225.794ZM34.5379 225.794H39.8019V226.746H34.5379V225.794ZM59.0737 224.422H60.2357V237.106H59.0737V224.422ZM50.6037 225.5H51.7517V228.846H55.4057V225.5H56.5677V234.054H50.6037V225.5ZM51.7517 229.77V233.102H55.4057V229.77H51.7517ZM66.1426 225.402C67.9766 225.402 69.2926 227.124 69.2926 229.812C69.2926 232.514 67.9766 234.236 66.1426 234.236C64.2946 234.236 62.9926 232.514 62.9926 229.812C62.9926 227.124 64.2946 225.402 66.1426 225.402ZM66.1426 226.452C64.9246 226.452 64.0986 227.768 64.0986 229.812C64.0986 231.87 64.9246 233.214 66.1426 233.214C67.3606 233.214 68.1866 231.87 68.1866 229.812C68.1866 227.768 67.3606 226.452 66.1426 226.452ZM72.0366 224.422H73.1846V237.106H72.0366V224.422ZM68.9146 229.252H72.5406V230.204H68.9146V229.252ZM81.9284 232.22H82.8244V232.906C82.8244 234.558 81.7884 236.224 79.9684 236.924L79.3804 236.056C80.9764 235.482 81.9284 234.124 81.9284 232.906V232.22ZM82.1804 232.22H83.0484V232.906C83.0484 234.18 83.8044 235.538 85.3164 236.154L84.8264 237.036C83.0064 236.322 82.1804 234.586 82.1804 232.906V232.22ZM86.6044 232.22H87.4724V232.906C87.4724 234.39 86.6324 236.266 84.8264 237.036L84.3364 236.154C85.8344 235.468 86.6044 233.998 86.6044 232.906V232.22ZM86.8424 232.22H87.7384V232.906C87.7384 234.208 88.6764 235.51 90.2864 236.056L89.6984 236.924C87.8504 236.252 86.8424 234.656 86.8424 232.906V232.22ZM87.9764 224.45H89.1524V231.674H87.9764V224.45ZM82.3624 225.178C84.2804 225.178 85.6524 226.382 85.6524 228.132C85.6524 229.882 84.2804 231.072 82.3624 231.072C80.4444 231.072 79.0584 229.882 79.0584 228.132C79.0584 226.382 80.4444 225.178 82.3624 225.178ZM82.3624 226.144C81.1024 226.144 80.1924 226.956 80.1924 228.132C80.1924 229.308 81.1024 230.106 82.3624 230.106C83.6224 230.106 84.5324 229.308 84.5324 228.132C84.5324 226.956 83.6224 226.144 82.3624 226.144ZM95.0313 225.402C96.8653 225.402 98.1813 227.124 98.1813 229.812C98.1813 232.514 96.8653 234.236 95.0313 234.236C93.1833 234.236 91.8813 232.514 91.8813 229.812C91.8813 227.124 93.1833 225.402 95.0313 225.402ZM95.0313 226.452C93.8133 226.452 92.9873 227.768 92.9873 229.812C92.9873 231.87 93.8133 233.214 95.0313 233.214C96.2493 233.214 97.0753 231.87 97.0753 229.812C97.0753 227.768 96.2493 226.452 95.0313 226.452ZM100.925 224.422H102.073V237.106H100.925V224.422ZM97.8033 229.252H101.429V230.204H97.8033V229.252ZM107.336 230.946H108.484V234.74H107.336V230.946ZM112.012 230.946H113.174V234.74H112.012V230.946ZM104.536 234.516H116.002V235.482H104.536V234.516ZM110.248 225.234C112.922 225.234 114.84 226.508 114.84 228.496C114.84 230.47 112.922 231.744 110.248 231.744C107.56 231.744 105.642 230.47 105.642 228.496C105.642 226.508 107.56 225.234 110.248 225.234ZM110.248 226.158C108.218 226.158 106.762 227.082 106.762 228.496C106.762 229.896 108.218 230.82 110.248 230.82C112.278 230.82 113.72 229.896 113.72 228.496C113.72 227.082 112.278 226.158 110.248 226.158ZM10.8807 244.45H12.0567V252.22H10.8807V244.45ZM2.32667 250.498H3.34867C5.64467 250.498 7.33867 250.428 9.36867 250.092L9.49467 251.044C7.40867 251.394 5.70067 251.45 3.34867 251.45H2.32667V250.498ZM2.29867 245.234H8.03867V248.734H3.46067V251.03H2.32667V247.824H6.90467V246.186H2.29867V245.234ZM7.88467 252.5C10.5167 252.5 12.1407 253.326 12.1407 254.782C12.1407 256.238 10.5167 257.078 7.88467 257.078C5.23867 257.078 3.64267 256.238 3.64267 254.782C3.64267 253.326 5.23867 252.5 7.88467 252.5ZM7.88467 253.424C5.95267 253.424 4.79067 253.914 4.79067 254.782C4.79067 255.65 5.95267 256.154 7.88467 256.154C9.81667 256.154 10.9787 255.65 10.9787 254.782C10.9787 253.914 9.81667 253.424 7.88467 253.424ZM15.9196 245.724H23.9556V246.676H15.9196V245.724ZM14.5616 254.362H25.9996V255.342H14.5616V254.362ZM23.4516 245.724H24.5856V247.278C24.5856 249.14 24.5856 250.862 24.0536 253.452L22.9056 253.34C23.4516 250.904 23.4516 249.098 23.4516 247.278V245.724ZM23.7456 249.224V250.092L15.7516 250.526L15.5836 249.56L23.7456 249.224ZM27.4265 250.316H38.9065V251.198H27.4265V250.316ZM28.7845 252.22H37.4645V254.922H29.9745V256.406H28.8265V254.124H36.3305V253.046H28.7845V252.22ZM28.8265 256.098H37.8705V256.938H28.8265V256.098ZM28.8825 244.8H37.4225V247.432H30.0585V248.804H28.9105V246.648H36.2885V245.626H28.8825V244.8ZM28.9105 248.524H37.6605V249.364H28.9105V248.524ZM52.7042 244.422H53.8522V257.106H52.7042V244.422ZM49.9742 249.042H53.0402V249.994H49.9742V249.042ZM46.6562 246.242H47.5942V248.132C47.5942 250.862 46.0262 253.564 44.0242 254.6L43.3382 253.676C45.1582 252.78 46.6562 250.386 46.6562 248.132V246.242ZM46.8942 246.242H47.8182V248.132C47.8182 250.246 49.2882 252.556 51.1222 253.424L50.4362 254.334C48.4342 253.34 46.8942 250.736 46.8942 248.132V246.242ZM43.8002 245.724H50.6882V246.69H43.8002V245.724ZM59.4372 245.794H60.3892V246.816C60.3892 249.14 58.9892 251.086 56.8612 251.856L56.2732 250.932C58.1772 250.26 59.4372 248.622 59.4372 246.816V245.794ZM59.6472 245.794H60.5992V246.802C60.5992 248.454 61.8032 249.938 63.6652 250.554L63.1052 251.464C60.9912 250.764 59.6472 248.958 59.6472 246.802V245.794ZM56.6232 245.374H63.3852V246.326H56.6232V245.374ZM64.9812 244.436H66.1432V252.066H64.9812V244.436ZM65.8212 247.642H68.0192V248.622H65.8212V247.642ZM62.1112 252.402C64.6872 252.402 66.2692 253.256 66.2692 254.726C66.2692 256.21 64.6872 257.064 62.1112 257.064C59.5352 257.064 57.9532 256.21 57.9532 254.726C57.9532 253.256 59.5352 252.402 62.1112 252.402ZM62.1112 253.34C60.2352 253.34 59.0872 253.844 59.0872 254.726C59.0872 255.622 60.2352 256.154 62.1112 256.154C63.9872 256.154 65.1352 255.622 65.1352 254.726C65.1352 253.844 63.9872 253.34 62.1112 253.34ZM69.1801 246.592H75.4521V247.544H69.1801V246.592ZM72.3161 248.384C73.8981 248.384 75.0461 249.574 75.0461 251.282C75.0461 252.976 73.8981 254.166 72.3161 254.166C70.7481 254.166 69.6001 252.976 69.6001 251.282C69.6001 249.574 70.7481 248.384 72.3161 248.384ZM72.3161 249.378C71.3501 249.378 70.6501 250.162 70.6501 251.282C70.6501 252.402 71.3501 253.186 72.3161 253.186C73.2961 253.186 74.0101 252.402 74.0101 251.282C74.0101 250.162 73.2961 249.378 72.3161 249.378ZM78.7981 244.436H79.9181V257.092H78.7981V244.436ZM76.7821 249.756H79.1761V250.722H76.7821V249.756ZM76.0961 244.716H77.1881V256.476H76.0961V244.716ZM71.7561 244.8H72.9041V247.18H71.7561V244.8ZM85.2178 254.516H96.6838V255.482H85.2178V254.516ZM90.3418 251.492H91.5038V254.796H90.3418V251.492ZM86.5618 245.332H87.7098V247.586H94.1638V245.332H95.3118V251.8H86.5618V245.332ZM87.7098 248.524V250.848H94.1638V248.524H87.7098ZM103.081 248.958H105.503V249.924H103.081V248.958ZM100.715 245.626H101.625V248.034C101.625 250.68 100.519 253.242 98.6707 254.376L97.9427 253.494C99.6787 252.472 100.715 250.204 100.715 248.034V245.626ZM100.939 245.626H101.835V247.992C101.835 250.022 102.787 252.178 104.453 253.186L103.781 254.096C101.961 252.976 100.939 250.456 100.939 247.992V245.626ZM107.729 244.436H108.849V257.092H107.729V244.436ZM105.167 244.702H106.259V256.462H105.167V244.702ZM113.776 250.946H114.924V254.74H113.776V250.946ZM118.452 250.946H119.614V254.74H118.452V250.946ZM110.976 254.516H122.442V255.482H110.976V254.516ZM116.688 245.234C119.362 245.234 121.28 246.508 121.28 248.496C121.28 250.47 119.362 251.744 116.688 251.744C114 251.744 112.082 250.47 112.082 248.496C112.082 246.508 114 245.234 116.688 245.234ZM116.688 246.158C114.658 246.158 113.202 247.082 113.202 248.496C113.202 249.896 114.658 250.82 116.688 250.82C118.718 250.82 120.16 249.896 120.16 248.496C120.16 247.082 118.718 246.158 116.688 246.158Z" fill="#262424"/>
</svg>
