<svg width="114" height="184" viewBox="0 0 114 184" fill="none" xmlns="http://www.w3.org/2000/svg">
<path d="M67.995 142.058L67.9554 138.453L61.1931 138.488V143.764L61.6328 143.79C63.497 143.883 71.1255 144.133 72.3698 143.751C73.746 143.32 67.995 142.058 67.995 142.058Z" fill="#455A64"/>
<path d="M61.1052 143.61H61.2195H61.5537L62.7848 143.658C63.8225 143.689 65.2558 143.715 66.8387 143.711C68.4215 143.706 69.8593 143.667 70.8969 143.627L72.1236 143.57L72.4578 143.548H72.5721C72.5342 143.543 72.4957 143.543 72.4578 143.548H72.1236L70.8925 143.575C69.8549 143.601 68.4215 143.632 66.8387 143.636C65.2558 143.641 63.8225 143.636 62.7848 143.61L61.5537 143.588H61.114L61.1052 143.61Z" fill="#262424"/>
<path d="M70.2111 143.755C70.2624 143.55 70.3377 143.353 70.4353 143.166C70.5635 142.993 70.711 142.835 70.875 142.695C70.6616 142.773 70.4867 142.931 70.3869 143.135C70.252 143.312 70.1891 143.533 70.2111 143.755Z" fill="#262424"/>
<path d="M68.2104 142.752C68.2323 142.752 68.3247 142.647 68.4214 142.493C68.4923 142.404 68.542 142.3 68.5665 142.189C68.5665 142.189 68.4522 142.291 68.3555 142.449C68.2587 142.607 68.1928 142.739 68.2104 142.752Z" fill="#262424"/>
<path d="M67.6608 142.467C67.6608 142.467 67.7839 142.41 67.8982 142.304C68.0125 142.199 68.0961 142.102 68.0829 142.084C68.0697 142.067 67.9598 142.137 67.8455 142.243C67.7311 142.348 67.6476 142.449 67.6608 142.467Z" fill="#262424"/>
<path d="M67.3137 141.829C67.4268 141.868 67.5464 141.883 67.6655 141.873C67.7856 141.886 67.9072 141.873 68.0216 141.834C67.9078 141.792 67.786 141.777 67.6655 141.79C67.5467 141.777 67.4267 141.791 67.3137 141.829V141.829Z" fill="#262424"/>
<path d="M67.1948 141.381C67.311 141.456 67.4476 141.494 67.5861 141.49C67.7247 141.512 67.8665 141.493 67.995 141.438C67.8632 141.413 67.7289 141.404 67.5949 141.411C67.463 141.387 67.3289 141.377 67.1948 141.381V141.381Z" fill="#262424"/>
<path d="M68.4392 142.159C68.5842 142.189 68.7339 142.189 68.8789 142.159C69.0372 142.141 69.1933 142.107 69.345 142.058C69.4366 142.031 69.5251 141.994 69.6088 141.948C69.6584 141.916 69.6957 141.868 69.7143 141.812C69.721 141.779 69.7184 141.745 69.7068 141.714C69.6951 141.683 69.6748 141.656 69.6483 141.636C69.4818 141.556 69.2931 141.537 69.1138 141.58C68.9345 141.623 68.7755 141.727 68.6635 141.873C68.5967 141.961 68.5488 142.061 68.5227 142.168C68.5122 142.205 68.5122 142.245 68.5227 142.282C68.5631 142.148 68.6288 142.022 68.7162 141.913C68.8134 141.798 68.9417 141.714 69.0855 141.671C69.1696 141.641 69.2589 141.628 69.3481 141.633C69.4372 141.639 69.5244 141.662 69.6044 141.702C69.6747 141.754 69.6483 141.834 69.5692 141.878C69.4937 141.923 69.4123 141.959 69.3274 141.983C69.185 142.037 69.0377 142.077 68.8877 142.102C68.6063 142.146 68.4392 142.146 68.4392 142.159Z" fill="#262424"/>
<path d="M68.5491 142.203C68.6038 142.114 68.6212 142.006 68.5975 141.904C68.5861 141.79 68.5452 141.681 68.4788 141.588C68.4419 141.524 68.3896 141.47 68.3266 141.431C68.2636 141.393 68.1919 141.371 68.1182 141.368C68.0746 141.377 68.0363 141.403 68.011 141.44C67.9857 141.476 67.9753 141.521 67.9819 141.566C67.9926 141.635 68.0181 141.701 68.0567 141.759C68.1145 141.855 68.1839 141.944 68.2633 142.023C68.3312 142.101 68.4173 142.161 68.5139 142.199C68.5139 142.199 68.426 142.12 68.3073 141.983C68.2361 141.904 68.1742 141.817 68.1226 141.724C68.0655 141.631 68.0215 141.469 68.1226 141.447C68.2237 141.425 68.3425 141.544 68.4084 141.631C68.4703 141.715 68.5124 141.811 68.5315 141.913C68.5479 142.009 68.5538 142.106 68.5491 142.203V142.203Z" fill="#262424"/>
<path d="M61.2327 141.763C61.2327 141.763 61.4261 141.763 61.7339 141.763C62.1291 141.808 62.5037 141.964 62.8147 142.212C63.1257 142.46 63.3607 142.791 63.4926 143.166C63.5982 143.456 63.6069 143.65 63.6245 143.645C63.6316 143.6 63.6316 143.554 63.6245 143.509C63.6146 143.386 63.5895 143.265 63.5498 143.148C63.427 142.752 63.1881 142.401 62.8639 142.141C62.5356 141.886 62.1396 141.733 61.7251 141.702C61.6024 141.687 61.4785 141.687 61.3558 141.702C61.3119 141.716 61.2705 141.737 61.2327 141.763V141.763Z" fill="#262424"/>
<path d="M61.9231 138.945C61.8773 139.406 61.8597 139.87 61.8703 140.334C61.8491 140.798 61.8594 141.262 61.9011 141.724C61.9438 141.262 61.9599 140.798 61.9494 140.334C61.9679 139.871 61.9591 139.407 61.9231 138.945Z" fill="#262424"/>
<path d="M64.4995 143.038C64.823 143.108 65.1536 143.139 65.4844 143.13C65.8164 143.146 66.149 143.118 66.4737 143.047C66.4737 143.021 66.034 143.047 65.4844 143.047C64.9348 143.047 64.4995 143.012 64.4995 143.038Z" fill="#262424"/>
<path d="M63.1719 143.038C63.1719 143.038 63.2114 143.135 63.2554 143.236C63.2994 143.337 63.3258 143.425 63.3477 143.425C63.3697 143.425 63.3829 143.315 63.3477 143.201C63.3126 143.087 63.1895 143.025 63.1719 143.038Z" fill="#262424"/>
<path d="M62.6704 142.423C62.6704 142.423 62.7012 142.506 62.7715 142.577C62.8419 142.647 62.9078 142.691 62.9254 142.678C62.943 142.665 62.899 142.59 62.8287 142.52C62.7583 142.449 62.688 142.405 62.6704 142.423Z" fill="#262424"/>
<path d="M61.9583 142.141C61.9583 142.163 62.0506 142.163 62.1517 142.198C62.2529 142.233 62.3232 142.282 62.3408 142.268C62.3584 142.255 62.3012 142.158 62.1781 142.119C62.055 142.079 61.9495 142.119 61.9583 142.141Z" fill="#262424"/>
<path d="M61.4485 142.009C61.4485 142.031 61.4793 142.066 61.5364 142.088C61.5936 142.11 61.6419 142.088 61.6507 142.088C61.6595 142.088 61.62 142.031 61.5628 142.009C61.5056 141.987 61.4573 141.987 61.4485 142.009Z" fill="#262424"/>
<path d="M28.6436 136.856L30.5562 133.779L24.8403 130.169L22 134.632L22.3386 134.878C23.8599 135.96 30.1473 140.282 31.4004 140.629C32.8074 141.016 28.6436 136.856 28.6436 136.856Z" fill="#455A64"/>
<path d="M22 134.447L22.0923 134.522L22.3649 134.715L23.3718 135.418C24.2512 136.003 25.4251 136.799 26.7618 137.648C28.0984 138.496 29.3251 139.239 30.222 139.763L31.2861 140.378L31.5807 140.541C31.6466 140.576 31.6818 140.594 31.6862 140.589L31.5895 140.523L31.3037 140.352L30.2528 139.714C29.3735 139.178 28.1424 138.426 26.8057 137.577C25.4691 136.729 24.2688 135.946 23.407 135.379L22.3825 134.697L22.1011 134.517L22 134.447Z" fill="#262424"/>
<path d="M29.5977 139.477C29.7525 139.335 29.922 139.209 30.1033 139.103C30.298 139.022 30.5017 138.964 30.7101 138.932C30.4915 138.884 30.2629 138.918 30.0681 139.028C29.8598 139.112 29.6914 139.273 29.5977 139.477V139.477Z" fill="#262424"/>
<path d="M28.4545 137.555C28.4545 137.577 28.6084 137.529 28.771 137.45C28.9337 137.371 29.0656 137.292 29.0568 137.27C28.9433 137.28 28.8337 137.316 28.7359 137.375C28.5952 137.454 28.4457 137.533 28.4545 137.555Z" fill="#262424"/>
<path d="M28.1558 137.019C28.1558 137.041 28.2877 137.019 28.4416 137.019C28.5954 137.019 28.7186 136.953 28.7142 136.931C28.7098 136.909 28.5823 136.931 28.4284 136.931C28.2745 136.931 28.1558 136.997 28.1558 137.019Z" fill="#262424"/>
<path d="M28.1951 136.293C28.1951 136.293 28.305 136.412 28.4677 136.522C28.6304 136.632 28.7755 136.698 28.7886 136.676C28.8018 136.654 28.6787 136.557 28.516 136.452C28.4214 136.377 28.312 136.323 28.1951 136.293V136.293Z" fill="#262424"/>
<path d="M28.3357 135.849C28.3357 135.849 28.4236 136.021 28.6083 136.157C28.7114 136.25 28.8401 136.31 28.9776 136.328C28.9776 136.306 28.8325 136.223 28.6567 136.091C28.556 136.002 28.4487 135.921 28.3357 135.849V135.849Z" fill="#262424"/>
<path d="M28.9647 137.177C29.0707 137.277 29.1945 137.356 29.3296 137.41C29.4709 137.476 29.6181 137.529 29.7693 137.568C29.8608 137.596 29.9552 137.614 30.0507 137.621C30.1102 137.623 30.1682 137.603 30.2134 137.564C30.2357 137.54 30.2509 137.511 30.2571 137.479C30.2633 137.447 30.2604 137.414 30.2485 137.384C30.1528 137.226 30.0054 137.107 29.8314 137.046C29.6573 136.985 29.4675 136.986 29.2944 137.05C29.1915 137.087 29.0973 137.146 29.0174 137.221C28.9647 137.274 28.9427 137.309 28.9471 137.313C29.0557 137.224 29.1792 137.154 29.312 137.107C29.4553 137.063 29.6084 137.063 29.7517 137.107C29.8422 137.125 29.9279 137.162 30.0036 137.215C30.0792 137.268 30.1431 137.336 30.1914 137.415C30.2222 137.494 30.1562 137.546 30.0639 137.546C29.9761 137.54 29.8892 137.526 29.8045 137.502C29.6546 137.467 29.5076 137.42 29.3648 137.362C29.1098 137.256 28.9691 137.168 28.9647 137.177Z" fill="#262424"/>
<path d="M29.0348 137.257C29.0348 137.257 29.1491 137.204 29.2371 137.028C29.2883 136.926 29.3126 136.812 29.3074 136.698C29.3102 136.624 29.2944 136.551 29.2613 136.485C29.2283 136.419 29.1791 136.362 29.1184 136.32C29.0764 136.304 29.0298 136.306 28.9887 136.324C28.9476 136.342 28.9152 136.375 28.8985 136.417C28.8695 136.48 28.8559 136.55 28.859 136.619C28.8544 136.731 28.8647 136.844 28.8897 136.953C28.9061 137.055 28.9468 137.152 29.0085 137.235C29.0085 137.235 28.9733 137.12 28.9469 136.94C28.9352 136.835 28.9352 136.729 28.9469 136.624C28.9469 136.514 28.9997 136.351 29.1008 136.395C29.2019 136.439 29.2327 136.593 29.2459 136.703C29.2495 136.806 29.2331 136.909 29.1975 137.006C29.1506 137.094 29.0962 137.178 29.0348 137.257V137.257Z" fill="#262424"/>
<path d="M23.1123 132.969C23.1123 132.969 23.2838 133.057 23.5212 133.251C23.8329 133.503 24.0687 133.836 24.2027 134.214C24.3319 134.592 24.3532 134.998 24.2643 135.387C24.1939 135.691 24.1016 135.858 24.1148 135.867C24.1431 135.832 24.1667 135.793 24.1851 135.752C24.2428 135.642 24.2884 135.525 24.3214 135.405C24.428 135.004 24.4143 134.58 24.2819 134.187C24.1424 133.796 23.8918 133.453 23.5608 133.202C23.4605 133.129 23.3529 133.065 23.2398 133.013C23.2001 132.991 23.157 132.977 23.1123 132.969Z" fill="#262424"/>
<path d="M25.2098 130.96C24.9214 131.323 24.6556 131.703 24.4139 132.099C24.1484 132.479 23.9075 132.875 23.6929 133.286C23.9795 132.921 24.2438 132.539 24.4843 132.143C24.7465 131.761 24.9887 131.367 25.2098 130.96V130.96Z" fill="#262424"/>
<path d="M25.1746 135.792C25.4048 136.031 25.6667 136.236 25.9528 136.403C26.2239 136.596 26.5197 136.751 26.8322 136.865C26.8322 136.843 26.454 136.632 25.9968 136.333C25.5395 136.034 25.1878 135.775 25.1746 135.792Z" fill="#262424"/>
<path d="M24.0535 135.084C24.0535 135.084 24.0535 135.181 24.0183 135.291C23.9831 135.401 23.9743 135.489 24.0183 135.502C24.0623 135.515 24.1062 135.427 24.1238 135.304C24.1414 135.181 24.0755 135.075 24.0535 135.084Z" fill="#262424"/>
<path d="M23.9653 134.289C23.9653 134.289 23.9653 134.372 23.9653 134.473C23.9653 134.574 24.0181 134.645 24.0401 134.64C24.0621 134.636 24.0665 134.552 24.0401 134.456C24.0137 134.359 23.9873 134.289 23.9653 134.289Z" fill="#262424"/>
<path d="M23.5125 133.668C23.5125 133.69 23.5828 133.739 23.6488 133.822C23.7147 133.906 23.7455 133.985 23.7675 133.985C23.7894 133.985 23.7938 133.871 23.7103 133.77C23.6268 133.668 23.5212 133.646 23.5125 133.668Z" fill="#262424"/>
<path d="M23.1565 133.286C23.1565 133.286 23.1565 133.347 23.1873 133.396C23.218 133.444 23.2664 133.47 23.284 133.457C23.3016 133.444 23.284 133.396 23.2532 133.347C23.2224 133.299 23.1741 133.268 23.1565 133.286Z" fill="#262424"/>
<path d="M54.8221 66.881C54.8221 66.881 60.538 104.979 59.7202 106.817C58.9023 108.655 32.1125 138.101 32.1125 138.101L22.2505 131.563C22.2505 131.563 45.6328 102.104 45.4569 101.414C45.281 100.723 36.5973 63.8164 36.5973 63.8164L54.8221 66.881Z" fill="#3583F0"/>
<path d="M33.3393 63.2974L32.9919 64.7087C31.9758 68.876 32.6058 73.2745 34.7507 76.989L50.289 103.95C51.3933 105.859 52.1971 107.926 52.6721 110.079L59.707 141.209H70.5363C70.5363 141.855 67.7356 115.562 66.3286 106.83C65.2734 100.235 56.4577 79.803 52.1884 70.1476L54.8265 66.894L50.2274 66.1377L33.3393 63.2974Z" fill="#3583F0"/>
<path d="M52.5137 70.064C52.6104 70.2003 52.6902 70.348 52.7511 70.5036C52.8918 70.785 53.0853 71.1983 53.3183 71.7128C53.7844 72.7372 54.3955 74.1706 55.0199 75.771C55.6442 77.3715 56.1586 78.8488 56.5104 79.9128C56.6819 80.4492 56.8182 80.8845 56.9061 81.1879C56.9624 81.3428 57.0007 81.5036 57.0204 81.6672C56.9353 81.53 56.8688 81.3822 56.8226 81.2275C56.695 80.8845 56.5368 80.4668 56.3565 79.9744C55.9696 78.9192 55.4288 77.4638 54.8044 75.8634C54.1801 74.2629 53.5953 72.8252 53.1688 71.7831C52.9753 71.2995 52.8083 70.9038 52.6676 70.5476C52.5932 70.3947 52.5413 70.2318 52.5137 70.064Z" fill="#262424"/>
<path d="M53.7891 115.251C53.7564 115.152 53.7329 115.05 53.7188 114.947C53.6792 114.723 53.6264 114.433 53.5649 114.068C53.5297 113.874 53.4945 113.663 53.455 113.435C53.4154 113.206 53.3494 112.955 53.2879 112.687C53.1692 112.155 53.0461 111.544 52.8482 110.88C52.7559 110.546 52.6635 110.199 52.5624 109.838L52.2063 108.717C51.9776 107.943 51.6567 107.138 51.3269 106.281C50.6586 104.584 49.8452 102.764 48.8999 100.873C47.2433 97.6819 45.419 94.5807 43.4346 91.5825C42.6828 90.4481 42.0716 89.5204 41.6275 88.8565C41.4253 88.5487 41.267 88.3025 41.1395 88.1134C41.0792 88.0287 41.0262 87.939 40.9812 87.8452C41.0557 87.9184 41.1221 87.9995 41.1791 88.087L41.7023 88.8037C42.142 89.4325 42.7971 90.347 43.5709 91.4946C45.5969 94.4731 47.4439 97.5696 49.1021 100.767C50.0518 102.654 50.8608 104.496 51.5248 106.202C51.8281 107.081 52.1447 107.877 52.369 108.66L52.7119 109.785C52.8042 110.155 52.8966 110.502 52.9845 110.841C53.1692 111.509 53.2791 112.124 53.389 112.661C53.4418 112.931 53.4901 113.181 53.5341 113.413C53.5693 113.646 53.5957 113.852 53.6264 114.05C53.6704 114.415 53.71 114.71 53.7408 114.93C53.7684 115.035 53.7846 115.142 53.7891 115.251V115.251Z" fill="#262424"/>
<path d="M33.5635 136.526C33.4117 136.493 33.2642 136.443 33.1238 136.377C32.7224 136.219 32.3304 136.039 31.9499 135.836C30.6991 135.154 29.5025 134.376 28.3709 133.51C27.0518 132.516 25.8383 131.611 24.9325 131.013C24.0268 130.415 23.442 130.081 23.4596 130.045C23.6134 130.092 23.7611 130.157 23.8993 130.239C24.1763 130.371 24.5588 130.591 25.0249 130.876C25.9614 131.444 27.1837 132.332 28.5116 133.325C29.6348 134.185 30.8095 134.975 32.029 135.691C32.9567 136.227 33.5767 136.487 33.5635 136.526Z" fill="#262424"/>
<path d="M70.4967 139.564C70.3506 139.582 70.203 139.582 70.057 139.564H68.8303L64.7984 139.534L60.7621 139.556H59.5354C59.3883 139.563 59.2409 139.554 59.0957 139.529C59.2384 139.487 59.3864 139.464 59.5354 139.463C59.8256 139.441 60.2433 139.411 60.7621 139.389C61.791 139.336 63.2243 139.292 64.8028 139.296C66.3812 139.301 67.8102 139.34 68.8434 139.397C69.3579 139.424 69.7756 139.45 70.0658 139.476C70.2128 139.485 70.3578 139.515 70.4967 139.564V139.564Z" fill="#262424"/>
<path d="M40.4667 24.4077C39.5145 24.5368 38.5454 24.3839 37.6792 23.9681C37.2503 23.7585 36.887 23.4354 36.6289 23.0338C36.3708 22.6323 36.2276 22.1677 36.215 21.6905C36.215 21.1321 36.4744 20.5825 36.3821 20.0329C36.2898 19.4833 35.8809 19.0436 35.6171 18.5512C35.3036 17.9225 35.2147 17.2054 35.365 16.5192C35.5154 15.8329 35.896 15.2188 36.4437 14.7787C37.0196 14.339 37.7627 14.1104 38.2376 13.5696C38.8091 12.932 38.9015 12.0087 39.2488 11.2261C39.5068 10.6623 39.899 10.1704 40.3911 9.79329C40.8832 9.41618 41.4601 9.16539 42.0716 9.06285C42.7487 8.95733 43.4522 9.03207 44.0985 8.81663C44.6324 8.58593 45.1359 8.29061 45.5978 7.93727C47.1275 6.94845 48.9842 6.59953 50.7685 6.96557C51.5503 7.10365 52.2764 7.46212 52.8614 7.99882C53.4901 8.62317 54.2991 9.31786 54.5278 10.1533C54.796 11.1645 54.4662 12.4308 54.198 13.4377C53.9298 14.4446 53.1164 15.3679 52.0787 15.491" fill="#262424"/>
<path d="M40.2512 32.1859L48.5084 32.3002C48.6491 31.3505 48.9481 27.6396 48.9481 27.6396C48.9481 27.6396 52.4084 27.4329 52.769 24.0254C53.1295 20.6178 53.279 12.7388 53.279 12.7388C51.4197 11.7222 49.3226 11.2208 47.2045 11.2865C45.0865 11.3522 43.0244 11.9826 41.2317 13.1125L40.6909 13.4554L40.2512 32.1859Z" fill="#FFBE9D"/>
<path d="M49.2034 21.8049C49.4564 21.7339 49.7192 21.7042 49.9816 21.7169C50.1047 21.7169 50.2014 21.6949 50.219 21.629C50.2317 21.5073 50.212 21.3845 50.1619 21.2729L49.8805 20.2836C49.6073 19.4424 49.4173 18.5765 49.3133 17.6982C49.6714 18.5071 49.9483 19.3496 50.1399 20.2132C50.2322 20.5562 50.3158 20.8815 50.3993 21.2069C50.4598 21.373 50.4598 21.5552 50.3993 21.7213C50.3771 21.767 50.3445 21.8067 50.3039 21.8373C50.2634 21.8679 50.2163 21.8884 50.1663 21.8972C50.0963 21.9077 50.0252 21.9077 49.9552 21.8972C49.7012 21.9102 49.4468 21.8789 49.2034 21.8049V21.8049Z" fill="#262424"/>
<path d="M48.939 27.5907C47.362 27.4731 45.8558 26.8884 44.6125 25.9111C44.6125 25.9111 45.4348 28.4613 48.8643 28.4745L48.939 27.5907Z" fill="#EB996E"/>
<path d="M40.7173 17.0385C40.6469 17.0077 38.3826 16.6384 38.5189 19.3337C38.6552 22.0289 41.324 21.0088 41.3284 20.9297C41.3328 20.8505 40.7173 17.0385 40.7173 17.0385Z" fill="#FFBE9D"/>
<path d="M40.4668 20.0239C40.4668 20.0239 40.4185 20.0591 40.3437 20.0987C40.234 20.1514 40.1084 20.1609 39.992 20.1251C39.8132 20.0224 39.6647 19.8745 39.5613 19.6962C39.4578 19.5179 39.4032 19.3155 39.4028 19.1094C39.3852 18.8775 39.4197 18.6446 39.5039 18.4279C39.5257 18.3434 39.5673 18.2654 39.6255 18.2003C39.6836 18.1353 39.7565 18.0852 39.8381 18.0542C39.8916 18.0379 39.9491 18.0404 40.001 18.0612C40.053 18.0819 40.0963 18.1198 40.1239 18.1685C40.1634 18.2432 40.1239 18.296 40.1634 18.3004C40.203 18.3048 40.2162 18.252 40.1898 18.1421C40.1717 18.0763 40.1313 18.0188 40.0755 17.9794C40.0387 17.9522 39.9966 17.933 39.9519 17.9231C39.9072 17.9133 39.8609 17.913 39.8161 17.9222C39.7061 17.948 39.6048 18.0022 39.5222 18.0793C39.4397 18.1565 39.3788 18.2539 39.3456 18.3619C39.2412 18.6011 39.1974 18.8624 39.2181 19.1226C39.2149 19.363 39.2835 19.599 39.4151 19.8003C39.5466 20.0015 39.7353 20.159 39.9568 20.2526C40.0322 20.2728 40.1113 20.275 40.1877 20.2589C40.2641 20.2429 40.3356 20.2091 40.3965 20.1602C40.4668 20.0899 40.4668 20.0283 40.4668 20.0239Z" fill="#EB996E"/>
<path d="M46.1432 16.9722C46.1036 16.9239 46.1696 16.7964 46.3454 16.6601C46.5794 16.4941 46.855 16.3967 47.1413 16.3787C47.4275 16.3562 47.7142 16.4157 47.9679 16.5501C48.1613 16.6601 48.2405 16.7788 48.2097 16.8271C48.1437 16.9415 47.7084 16.792 47.172 16.8271C46.6356 16.8623 46.2223 17.0733 46.1432 16.9722Z" fill="#262424"/>
<path d="M50.9225 16.9993C50.8961 16.8805 51.2654 16.7047 51.7491 16.7091C52.2327 16.7135 52.6021 16.8849 52.5801 17.008C52.5581 17.1312 52.1888 17.1663 51.7491 17.1663C51.3094 17.1663 50.9445 17.1268 50.9225 16.9993Z" fill="#262424"/>
<path d="M39.8599 14.2819C39.9918 15.1085 40.1207 15.9365 40.2468 16.7661C40.2688 17.1611 40.4047 17.5414 40.6381 17.8609C41.0778 18.3489 41.878 18.3006 42.4408 17.9796C43.263 17.5003 43.7159 16.5814 44.0632 15.6933C44.4106 14.8051 44.7183 13.8686 45.3823 13.1915C45.8596 13.6914 46.4827 14.0277 47.1625 14.1524C47.8423 14.2772 48.5442 14.184 49.1679 13.8862C49.7175 13.6136 50.1748 13.1827 50.7024 12.8661C50.9545 12.6878 51.2442 12.5697 51.5491 12.5209C51.854 12.4721 52.166 12.4939 52.4611 12.5847C52.7733 12.7166 53.0547 12.9716 53.3889 12.954C53.517 12.9432 53.6402 12.8994 53.7465 12.827C53.8528 12.7546 53.9386 12.656 53.9956 12.5407C54.1052 12.3063 54.1435 12.0448 54.1056 11.7889C53.9956 10.8392 53.2262 10.0829 52.3468 9.66082C51.1201 9.05845 49.7087 8.97491 48.3369 8.97051C47.0361 8.93205 45.7358 9.06062 44.4677 9.35304C43.1944 9.65275 42.0361 10.3174 41.1349 11.2657C40.691 11.7437 40.3607 12.3158 40.1688 12.9393C39.977 13.5629 39.9285 14.2217 40.0269 14.8666" fill="#262424"/>
<path d="M50.6102 11.556C50.7901 12.4311 51.2538 13.2224 51.9293 13.8071C52.2338 14.1106 52.6389 14.292 53.068 14.3172C53.4127 14.2761 53.7301 14.1094 53.9597 13.8491C54.1892 13.5887 54.3148 13.2529 54.3123 12.9058C54.2816 12.2061 53.9805 11.5457 53.4726 11.0635C53.0388 10.5499 52.4223 10.2251 51.7534 10.1578C51.4217 10.1419 51.0962 10.2516 50.842 10.4652C50.5877 10.6787 50.4233 10.9803 50.3816 11.3097" fill="#262424"/>
<path d="M46.6223 18.248C46.6223 18.3646 46.6686 18.4764 46.7511 18.5589C46.8336 18.6413 46.9454 18.6876 47.062 18.6876C47.1174 18.6912 47.1729 18.6836 47.2252 18.6652C47.2776 18.6469 47.3257 18.6182 47.3667 18.5809C47.4078 18.5435 47.4408 18.4983 47.464 18.4479C47.4872 18.3975 47.5 18.343 47.5017 18.2875C47.5017 18.1709 47.4554 18.0591 47.3729 17.9766C47.2904 17.8942 47.1786 17.8478 47.062 17.8478C47.0065 17.8436 46.9507 17.8508 46.8981 17.8689C46.8455 17.887 46.7971 17.9157 46.7559 17.9532C46.7148 17.9906 46.6817 18.0361 46.6587 18.0868C46.6357 18.1375 46.6234 18.1923 46.6223 18.248V18.248Z" fill="#262424"/>
<path d="M45.9275 17.7728C45.9847 17.83 46.3057 17.5794 46.7717 17.5706C47.2378 17.5618 47.5807 17.7904 47.6291 17.7289C47.6775 17.6673 47.5983 17.6058 47.4444 17.5002C47.2427 17.3661 47.0047 17.297 46.7625 17.3026C46.5203 17.3081 46.2856 17.3878 46.0902 17.531C45.9495 17.6497 45.9012 17.7728 45.9275 17.7728Z" fill="#262424"/>
<path d="M51.3972 18.2346C51.3972 18.3512 51.4435 18.463 51.526 18.5455C51.6085 18.6279 51.7203 18.6743 51.8369 18.6743C51.8924 18.6785 51.9482 18.6713 52.0008 18.6532C52.0534 18.6351 52.1018 18.6064 52.143 18.569C52.1841 18.5315 52.2172 18.486 52.2402 18.4353C52.2632 18.3847 52.2755 18.3298 52.2766 18.2742C52.2766 18.1575 52.2303 18.0457 52.1478 17.9633C52.0653 17.8808 51.9535 17.8345 51.8369 17.8345C51.7268 17.834 51.6206 17.8749 51.5392 17.949C51.4578 18.023 51.4071 18.125 51.3972 18.2346Z" fill="#262424"/>
<path d="M50.7817 17.8475C50.8345 17.9046 51.1598 17.654 51.6259 17.6452C52.092 17.6364 52.4349 17.8651 52.5053 17.8079C52.5756 17.7507 52.4745 17.6804 52.3206 17.5749C52.1182 17.4397 51.879 17.3706 51.6357 17.3769C51.3924 17.3832 51.1571 17.4646 50.962 17.6101C50.8037 17.72 50.7553 17.8255 50.7817 17.8475Z" fill="#262424"/>
<path d="M49.0932 23.1854C49.0932 23.2162 48.9789 23.2689 48.7679 23.2557C48.4931 23.2354 48.2359 23.1131 48.0468 22.9128C47.8556 22.7132 47.7445 22.4503 47.7346 22.1741C47.7346 21.9675 47.7918 21.8487 47.8182 21.8531C47.8445 21.8575 47.8182 22.3588 48.2095 22.7545C48.6008 23.1502 49.0976 23.1238 49.0932 23.1854Z" fill="#262424"/>
<path d="M50.6496 40.799L57.513 38.5039C57.513 38.5039 62.288 49.8081 63.5191 49.9356C70.3297 50.5556 77.6197 48.3 80.1742 47.4075C80.4336 47.1129 80.7326 46.7655 81.0536 46.3346C81.3349 45.9663 81.5519 45.553 81.6955 45.1123C81.8921 44.5699 82.0148 44.0035 82.0605 43.4283C82.0461 43.3164 82.0675 43.2028 82.1214 43.1037C82.1754 43.0046 82.2592 42.9251 82.361 42.8764C82.4628 42.8277 82.5773 42.8123 82.6884 42.8325C82.7994 42.8526 82.9012 42.9073 82.9794 42.9887C83.274 43.3712 83.3487 44.8309 82.676 46.4006C82.0033 47.9703 84.382 46.7216 85.2569 46.2819C86.1319 45.8422 88.9063 44.6111 89.2536 44.7738C89.7637 45.0112 89.6054 45.6004 88.7216 46.0181C87.8379 46.4358 85.2701 47.8823 85.5251 48.3308C85.7802 48.7793 90.2034 46.4797 90.2034 46.4797C90.2034 46.4797 91.0827 45.8334 91.3817 46.3434C91.9445 47.2668 87.0552 49.364 86.5892 49.5531C86.2594 49.685 86.5188 50.1863 86.8618 50.0236C87.2047 49.8609 91.2234 47.6273 91.8038 48.5638C92.2435 49.2805 87.8027 50.3226 87.2311 51.2503C86.6595 52.178 90.5199 50.1159 90.92 50.8106C91.0651 51.0744 91.1399 51.2899 88.748 52.1296C86.9975 52.6793 85.2186 53.1343 83.4191 53.4927V53.4927C83.4191 53.4927 58.7969 64.5111 54.4001 53.8796C49.8845 43.0986 50.6496 40.799 50.6496 40.799Z" fill="#FFBE9D"/>
<path d="M59.8127 42.2276C57.0647 35.7951 53.4681 33.2757 51.5687 32.3436C50.9032 32.0206 50.1794 31.8352 49.4406 31.7984V31.7984L49.212 30.6904L40.1106 29.8726L39.8864 31.2795L38.5673 31.2048C38.5673 31.2048 30.7234 31.9918 30.7058 41.08C30.7058 45.3318 32.9966 49.4692 33.8056 51.4961C34.3112 55.7346 32.4865 63.4247 32.5437 65.2977L54.8487 66.8806L55.7633 52.947L55.5566 51.628L62.8993 49.3768L59.8127 42.2276Z" fill="#EBEBEB"/>
<path d="M108.198 10.4681C104.978 6.48066 100.649 3.53716 95.757 2.00963C90.865 0.4821 85.6299 0.439107 80.7135 1.88609C75.7971 3.33306 71.4199 6.20506 68.1353 10.1391C64.8508 14.0731 62.8061 18.8926 62.2599 23.9883C61.8192 28.1311 62.3844 32.319 63.9076 36.1967C65.4308 40.0744 67.8671 43.5274 71.0096 46.2626L48.3264 72.8853L51.5801 75.6597L74.4435 48.8127C77.7264 50.8399 81.4228 52.1036 85.2597 52.5105C86.1914 52.6104 87.1278 52.6603 88.0648 52.66C92.9508 52.6437 97.7328 51.2479 101.86 48.6333C105.988 46.0187 109.293 42.2915 111.396 37.881C113.498 33.4704 114.312 28.5558 113.744 23.7029C113.176 18.8501 111.249 14.2563 108.185 10.4505L108.198 10.4681ZM109.543 29.0403C109.011 34.0165 106.769 38.6541 103.201 42.163C99.6322 45.6719 94.9575 47.8349 89.973 48.2835C84.9885 48.7322 80.0026 47.4386 75.8649 44.6234C71.7272 41.8081 68.6936 37.6452 67.281 32.8441C65.8684 28.0429 66.1643 22.9005 68.1181 18.293C70.0719 13.6855 73.5628 9.89796 77.9961 7.57574C82.4294 5.25351 87.5307 4.54027 92.4308 5.55753C97.331 6.57479 101.727 9.25962 104.869 13.1546C106.66 15.3619 107.995 17.9025 108.797 20.6293C109.6 23.3561 109.853 26.2149 109.543 29.0403Z" fill="#262424"/>
<path d="M107.373 9.64318C104.155 5.65369 99.8255 2.70828 94.9329 1.17947C90.0403 -0.349344 84.8043 -0.392878 79.8869 1.05437C74.9696 2.50161 70.5919 5.37462 67.3075 9.31004C64.0231 13.2455 61.9796 18.0665 61.4354 23.1634V23.1634C60.9938 27.3062 61.5587 31.4944 63.082 35.3722C64.6052 39.25 67.0419 42.7029 70.185 45.4377L47.2249 72.2583L50.7027 75.0414L73.6321 47.9702C76.9159 49.9956 80.6119 51.2592 84.4483 51.668C85.3802 51.7659 86.3165 51.8158 87.2535 51.8174C92.1394 51.8012 96.9215 50.4054 101.049 47.7908C105.177 45.1762 108.482 41.449 110.584 37.0385C112.687 32.6279 113.501 27.7133 112.932 22.8604C112.364 18.0076 110.437 13.4138 107.373 9.608V9.64318ZM108.719 28.2153C108.187 33.194 105.945 37.8342 102.375 41.3451C98.8054 44.8561 94.1287 47.0206 89.1419 47.4699C84.1551 47.9191 79.1668 46.6253 75.027 43.8089C70.8872 40.9925 67.8521 36.8277 66.4389 32.0243C65.0256 27.2209 65.3217 22.0761 67.2767 17.4665C69.2316 12.8569 72.7244 9.0678 77.1599 6.74487C81.5955 4.42193 86.6993 3.70889 91.6016 4.72725C96.504 5.7456 100.902 8.43234 104.045 12.3296C105.835 14.5374 107.17 17.078 107.972 19.8047C108.774 22.5314 109.028 25.39 108.719 28.2153Z" fill="#F4C3FB"/>
<path d="M53.7273 37.3696C53.798 37.5668 53.851 37.7698 53.8856 37.9764C53.9735 38.3677 54.0878 38.9393 54.2241 39.6516C54.4879 41.0673 54.8089 43.0371 55.1035 45.2223C55.3981 47.4076 55.5432 49.3949 55.6267 50.8327C55.6707 51.5538 55.6971 52.1517 55.7059 52.5386C55.7267 52.7477 55.7267 52.9583 55.7059 53.1674C55.661 52.9635 55.6345 52.756 55.6267 52.5474C55.5871 52.1078 55.5344 51.5318 55.4728 50.8459C55.3453 49.4125 55.1519 47.4295 54.8837 45.2487C54.6154 43.0679 54.3165 41.1025 54.0922 39.678C53.9867 39.0008 53.8988 38.4337 53.8284 37.9896C53.7726 37.7871 53.7387 37.5793 53.7273 37.3696V37.3696Z" fill="#262424"/>
<path d="M65.8586 58.9668C65.8586 58.9668 41.2364 70.0072 36.8396 59.3757C32.3285 48.5463 33.0935 46.2468 33.0935 46.2468L39.9569 43.9517C39.9569 43.9517 44.7363 55.2559 45.963 55.3834C52.7781 56.0077 60.068 53.7478 62.6225 52.8552C62.8819 52.565 63.1765 52.2133 63.5019 51.7868C63.8273 51.3603 64.0823 50.9074 64.3813 50.5249C65.032 49.7115 65.5464 49.5752 65.8322 49.2542C66.5093 48.4848 67.1513 49.0476 66.8347 49.4609C66.5181 49.8742 65.8102 50.2963 65.1375 51.8703C64.4648 53.4444 66.8611 52.6662 67.8108 52.4199C68.8572 52.1429 70.8226 51.3779 70.8226 51.3779C70.871 51.8395 70.3477 52.7673 69.464 53.185C68.9851 53.4181 68.4934 53.6236 67.991 53.8005C67.991 53.8005 69.8069 53.5763 69.8553 53.994C69.9037 54.4117 69.3189 57.4719 67.3843 58.3908L65.8586 58.9668Z" fill="#FFBE9D"/>
<path d="M38.3431 34.1025L42.7663 47.4557L33.0934 51.2809C33.0934 51.2809 28.0458 38.1652 34.4388 34.9555L38.3431 34.1025Z" fill="#EBEBEB"/>
<path d="M43.4083 46.937C43.4083 46.937 43.3555 46.9019 43.2764 46.8139C43.1667 46.6763 43.0696 46.5292 42.9862 46.3743C42.717 45.803 42.4835 45.2157 42.2871 44.6155C41.7463 43.1206 41.012 41.0453 40.2162 38.7546L39.1038 35.5185C38.7608 34.5248 38.4926 33.6015 37.987 33.0079C37.7986 32.7669 37.5587 32.5711 37.2848 32.4349C37.0109 32.2987 36.71 32.2256 36.4041 32.2209C36.1783 32.2356 35.9567 32.2892 35.749 32.3792C35.749 32.3792 35.793 32.3308 35.8985 32.2737C36.0539 32.1921 36.2246 32.1441 36.3998 32.133C36.7252 32.1183 37.0495 32.1803 37.3466 32.3139C37.6437 32.4476 37.9052 32.6492 38.1101 32.9024C38.6641 33.5224 38.9499 34.4677 39.3017 35.4482C39.6534 36.4287 40.0315 37.5323 40.4316 38.6798C41.2319 40.9706 41.9397 43.0766 42.441 44.5628C42.696 45.319 42.8807 45.939 43.0653 46.3215C43.25 46.704 43.4259 46.9239 43.4083 46.937Z" fill="#262424"/>
<path d="M43.2016 47.1875C43.0904 47.2793 42.9677 47.3561 42.8366 47.4161C42.5948 47.5524 42.2387 47.7371 41.7946 47.9569C40.9152 48.3966 39.6621 48.9682 38.2771 49.5354C36.8921 50.1026 35.5775 50.5555 34.6322 50.8545C34.1617 51.0039 33.7528 51.1183 33.5066 51.1886C33.365 51.2395 33.217 51.2706 33.0669 51.2809C33.5515 51.055 34.0509 50.8626 34.5618 50.705C35.4939 50.3664 36.7602 49.8915 38.1716 49.3288C39.583 48.766 40.8097 48.2164 41.7242 47.8119C42.2033 47.5734 42.6967 47.3649 43.2016 47.1875V47.1875Z" fill="#262424"/>
<path d="M34.6762 50.7886C34.2765 50.1896 34.0097 49.512 33.8936 48.8013C34.1247 49.0807 34.294 49.4058 34.3904 49.7554C34.5603 50.0747 34.6578 50.4274 34.6762 50.7886Z" fill="#262424"/>
<path d="M36.7205 50.0015C36.6634 50.0323 36.3996 49.6453 36.2061 49.1221C36.0533 48.8052 35.9923 48.4518 36.0302 48.1021C36.21 48.3944 36.3421 48.7135 36.4215 49.0474C36.568 49.3488 36.6688 49.6704 36.7205 50.0015V50.0015Z" fill="#262424"/>
<path d="M38.862 49.0738C38.595 48.826 38.4044 48.5072 38.3124 48.1548C38.1519 47.8262 38.0879 47.4588 38.1277 47.0952C38.3057 47.4005 38.4403 47.729 38.5278 48.0713C38.6842 48.3887 38.7967 48.726 38.862 49.0738V49.0738Z" fill="#262424"/>
<path d="M41.1527 48.1505C40.9407 47.8426 40.7913 47.496 40.713 47.1304C40.567 46.7869 40.4907 46.4177 40.4888 46.0444C40.7055 46.3481 40.8554 46.6943 40.9285 47.0601C41.0786 47.4039 41.155 47.7754 41.1527 48.1505Z" fill="#262424"/>
<path d="M63.0749 49.2363C61.8609 49.7495 60.6173 50.19 59.3508 50.5554C58.1078 50.9908 56.841 51.3549 55.5564 51.6458C56.7713 51.1346 58.0147 50.6941 59.2805 50.3267C60.5231 49.8899 61.79 49.5258 63.0749 49.2363V49.2363Z" fill="#262424"/>
<path d="M57.1746 50.7884C57.1131 50.8148 56.9196 50.4894 56.7349 50.0673C56.5503 49.6453 56.4579 49.2803 56.5151 49.2539C56.5723 49.2276 56.7657 49.5529 56.9548 49.9794C57.1438 50.4059 57.2406 50.7489 57.1746 50.7884Z" fill="#262424"/>
<path d="M59.0741 50.3618C59.0169 50.3618 58.8103 50.0013 58.6696 49.4824C58.5487 49.1782 58.5152 48.8462 58.5728 48.5239C58.6388 48.5239 58.7531 48.924 58.8894 49.4033C59.0125 49.7078 59.0753 50.0333 59.0741 50.3618V50.3618Z" fill="#262424"/>
<path d="M61.1315 49.7114C60.8566 49.1234 60.7255 48.4783 60.749 47.8296C60.9185 48.1089 61.0223 48.4232 61.0524 48.7485C61.1526 49.0591 61.1797 49.3886 61.1315 49.7114V49.7114Z" fill="#262424"/>
<path d="M41.0032 31.1569C40.9373 31.1569 40.9065 30.9106 40.9241 30.6117C40.9417 30.3127 41.0164 30.0796 41.078 30.084C41.1395 30.0884 41.1747 30.3347 41.1527 30.6293C41.1307 30.9238 41.0648 31.1613 41.0032 31.1569Z" fill="#262424"/>
<path d="M43.0083 31.2755C42.9423 31.2755 42.8852 31.038 42.872 30.7434C42.8588 30.4489 42.9028 30.2026 42.9643 30.2026C43.0259 30.2026 43.0874 30.4357 43.1006 30.7346C43.1138 31.0336 43.0698 31.2711 43.0083 31.2755Z" fill="#262424"/>
<path d="M44.5557 31.544C44.4942 31.544 44.4458 31.2934 44.4458 30.9856C44.4458 30.6779 44.503 30.4316 44.5645 30.4316C44.6261 30.4316 44.6788 30.6823 44.6744 30.9856C44.67 31.289 44.6217 31.544 44.5557 31.544Z" fill="#262424"/>
<path d="M46.6483 31.7726C46.5912 31.7726 46.4637 31.5044 46.4549 31.1263C46.4461 30.7481 46.5516 30.4579 46.6088 30.4711C46.6659 30.4843 46.6703 30.7701 46.6835 31.1175C46.6967 31.4648 46.7143 31.755 46.6483 31.7726Z" fill="#262424"/>
<path d="M48.3807 31.7727C48.3148 31.7727 48.2312 31.4957 48.1873 31.1352C48.1433 30.7746 48.1609 30.4756 48.2224 30.4712C48.284 30.4668 48.3719 30.7482 48.4159 31.1088C48.4599 31.4693 48.4379 31.7639 48.3807 31.7727Z" fill="#262424"/>
<path d="M5.964 169.204V169.694C5.964 172.046 4.032 173.88 0.826 174.79L1.302 175.7C4.942 174.678 7.182 172.396 7.182 169.204H5.964ZM1.484 169.204V170.142H6.748V169.204H1.484ZM9.94 168.392V175.616H11.102V168.392H9.94ZM7.196 171.64V172.606H10.164V171.64H7.196ZM2.94 176.148V180.88H11.102V176.148H2.94ZM9.968 177.086V179.928H4.088V177.086H9.968ZM16.2249 169.148V170.842C16.2249 172.284 15.2309 173.95 13.5789 174.692L14.2089 175.602C16.0709 174.748 17.1489 172.746 17.1489 170.842V169.148H16.2249ZM16.4069 169.148V170.842C16.4069 172.732 17.4429 174.51 19.2769 175.28L19.8929 174.384C18.2689 173.726 17.3309 172.284 17.3309 170.842V169.148H16.4069ZM23.1269 168.406V176.05H24.2329V168.406H23.1269ZM21.0829 171.682V172.648H23.4769V171.682H21.0829ZM20.4109 168.616V175.98H21.5169V168.616H20.4109ZM15.7489 176.736V177.688H23.0849V181.048H24.2329V176.736H15.7489ZM38.8287 168.392V174.846H39.9907V168.392H38.8287ZM34.8247 169.008V169.582C34.8247 171.766 33.0607 173.432 29.7847 174.188L30.1907 175.14C33.8867 174.244 36.0847 172.2 36.0847 169.008H34.8247ZM30.4427 169.008V169.96H35.3567V169.008H30.4427ZM35.6367 170.212V171.136H39.0247V170.212H35.6367ZM35.5247 172.634V173.544H38.9547V172.634H35.5247ZM31.8427 175.434V176.372H38.8427V177.646H31.8847V180.558H33.0327V178.542H39.9907V175.434H31.8427ZM31.8847 179.998V180.922H40.4107V179.998H31.8847ZM43.0276 169.778V170.716H48.7536V169.778H43.0276ZM45.0016 173.39V177.674H46.1496V173.39H45.0016ZM48.2776 169.778V170.45C48.2776 171.472 48.2776 173.096 47.8996 175.378L49.0476 175.49C49.4116 173.138 49.4116 171.486 49.4116 170.45V169.778H48.2776ZM51.0076 168.392V181.048H52.1556V168.392H51.0076ZM51.8476 173.684V174.664H54.1856V173.684H51.8476ZM42.4676 178.29C44.7076 178.276 47.6756 178.22 50.2936 177.8L50.2376 176.946C47.6756 177.268 44.6236 177.31 42.3276 177.31L42.4676 178.29ZM63.9005 168.378V181.048H65.0765V168.378H63.9005ZM64.7545 173.516V174.482H67.0925V173.516H64.7545ZM60.6665 169.75V169.932C60.6665 173.278 58.9165 175.98 55.4165 177.758L56.0605 178.654C60.1485 176.596 61.8005 173.348 61.8005 169.75H60.6665ZM56.0045 169.75V170.702H61.2685V169.75H56.0045ZM72.7983 175.812V180.88H77.1803V175.812H76.1023V177.394H73.8903V175.812H72.7983ZM73.8903 178.262H76.1023V179.97H73.8903V178.262ZM79.6303 175.742V176.792C79.6303 178.08 78.8463 179.466 77.3203 180.11L77.9083 180.992C79.6583 180.25 80.5263 178.514 80.5263 176.792V175.742H79.6303ZM79.8683 175.742V176.792C79.8683 178.584 80.7223 180.264 82.4863 180.992L83.0743 180.11C81.5483 179.522 80.7643 178.15 80.7643 176.792V175.742H79.8683ZM77.7123 171.36V172.326H81.1143V171.36H77.7123ZM74.8003 168.952C72.9103 168.952 71.5383 170.128 71.5383 171.864C71.5383 173.586 72.9103 174.776 74.8003 174.776C76.6903 174.776 78.0623 173.586 78.0623 171.864C78.0623 170.128 76.6903 168.952 74.8003 168.952ZM74.8003 169.918C76.0463 169.918 76.9423 170.716 76.9423 171.864C76.9423 172.998 76.0463 173.81 74.8003 173.81C73.5543 173.81 72.6583 172.998 72.6583 171.864C72.6583 170.716 73.5543 169.918 74.8003 169.918ZM80.5963 168.392V175.098H81.7583V168.392H80.5963ZM87.6092 169.358C85.7612 169.358 84.4592 171.08 84.4592 173.768C84.4592 176.47 85.7612 178.192 87.6092 178.192C89.4432 178.192 90.7592 176.47 90.7592 173.768C90.7592 171.08 89.4432 169.358 87.6092 169.358ZM87.6092 170.408C88.8272 170.408 89.6532 171.724 89.6532 173.768C89.6532 175.826 88.8272 177.17 87.6092 177.17C86.3912 177.17 85.5652 175.826 85.5652 173.768C85.5652 171.724 86.3912 170.408 87.6092 170.408ZM93.5032 168.378V181.062H94.6512V168.378H93.5032ZM90.3812 173.208V174.16H94.0072V173.208H90.3812ZM99.9141 174.902V178.696H101.062V174.902H99.9141ZM104.59 174.902V178.696H105.752V174.902H104.59ZM97.1141 178.472V179.438H108.58V178.472H97.1141ZM102.826 169.19C100.138 169.19 98.2201 170.464 98.2201 172.452C98.2201 174.426 100.138 175.7 102.826 175.7C105.5 175.7 107.418 174.426 107.418 172.452C107.418 170.464 105.5 169.19 102.826 169.19ZM102.826 170.114C104.856 170.114 106.298 171.038 106.298 172.452C106.298 173.852 104.856 174.776 102.826 174.776C100.796 174.776 99.3401 173.852 99.3401 172.452C99.3401 171.038 100.796 170.114 102.826 170.114Z" fill="#262424"/>
</svg>
