<svg width="240" height="165" viewBox="0 0 240 165" fill="none" xmlns="http://www.w3.org/2000/svg">
<path d="M105.196 56.9421C88.7342 60.9313 79.6138 56.4421 64.962 52.5845C50.3102 48.7268 34.0902 45.2165 20.5594 52.0266C4.53403 60.0998 -1.89189 80.5196 0.476385 98.3081C2.77625 115.57 21.9067 130.938 37.1163 139.416C48.6051 145.816 62.1464 147.2 75.2772 148.01C110.912 150.21 138.247 150.263 171.203 136.527C204.159 122.791 232.815 94.5662 238.936 59.3893C241.52 44.5218 239.673 28.1596 230.352 16.2972C218.369 1.03494 195.907 -3.41743 177.455 2.56116C159.004 8.53975 144.426 23.302 134.679 40.0694C128.148 51.3056 117.606 53.1108 105.207 56.9474" fill="#F5F5F5"/>
<path d="M73.5971 5.73751L44.4296 12.0384L53.0519 51.9521L82.2194 45.6512L73.5971 5.73751Z" fill="white"/>
<path d="M82.2083 45.6586L82.1609 45.4639C82.1293 45.3323 82.0872 45.1428 82.0346 44.9007C81.9188 44.3745 81.7557 43.6692 81.5452 42.7272C81.1294 40.8168 80.5189 38.0433 79.7453 34.5329C78.2138 27.5123 76.0613 17.555 73.4719 5.7715L73.6193 5.86623L44.4579 12.1816L44.5632 12.0185C47.7735 26.9281 50.747 40.7326 53.1574 51.9372L53.0258 51.8477L74.2193 47.3322L80.1189 46.0849L81.6978 45.7638L82.2241 45.6586C82.2241 45.6586 82.0556 45.706 81.6978 45.7849L80.1663 46.127L74.3035 47.4216L53.0679 52.0687H52.9574V51.9635C50.5312 40.7589 47.5419 26.9597 44.3105 12.0553V11.9185H44.4421L73.6088 5.60309H73.7298L73.7561 5.72414C76.2823 17.555 78.419 27.5491 79.9242 34.5908C80.6663 38.0959 81.2557 40.8641 81.6557 42.7693C81.8557 43.7061 82.003 44.4323 82.1083 44.9271L82.2188 45.4796C82.2182 45.5394 82.2147 45.5991 82.2083 45.6586Z" fill="#263238"/>
<path d="M63.9727 16.213C63.9727 16.292 60.815 17.034 56.9152 17.8813C53.0155 18.7286 49.8157 19.3497 49.7999 19.276C49.7841 19.2023 52.9576 18.4602 56.8573 17.6129C60.7571 16.7656 63.9727 16.1393 63.9727 16.213Z" fill="#263238"/>
<path d="M72.3931 18.0287C72.3931 18.1024 67.5302 19.2181 61.5043 20.518C55.4783 21.818 50.5681 22.8179 50.5523 22.7442C50.5365 22.6706 55.4152 21.5548 61.4464 20.2549C67.4776 18.955 72.3931 17.955 72.3931 18.0287Z" fill="#263238"/>
<path d="M73.1878 21.6443C73.1878 21.718 68.3302 22.8337 62.299 24.1389C56.2678 25.4441 51.3681 26.4177 51.3418 26.3651C51.3155 26.3124 56.1994 25.1757 62.2306 23.8705C68.2618 22.5653 73.1721 21.5706 73.1878 21.6443Z" fill="#263238"/>
<path d="M73.9719 25.2651C73.9719 25.3388 69.1091 26.4545 63.0831 27.7545C57.0572 29.0544 52.1469 30.0543 52.1311 29.9807C52.1154 29.907 56.9888 28.7912 63.0252 27.4913C69.0617 26.1914 73.9719 25.1915 73.9719 25.2651Z" fill="#263238"/>
<path d="M74.7508 28.8807C74.7508 28.9544 69.8932 30.0701 63.862 31.3753C57.8308 32.6804 52.9205 33.6751 52.9205 33.6014C52.9205 33.5278 57.7781 32.412 63.8094 31.1069C69.8406 29.8017 74.735 28.807 74.7508 28.8807Z" fill="#263238"/>
<path d="M75.5508 32.5015C75.5508 32.5752 70.6879 33.6909 64.662 34.9908C58.636 36.2908 53.7258 37.2907 53.71 37.217C53.6942 37.1433 58.5676 36.0276 64.6041 34.7224C70.6406 33.4172 75.5192 32.4278 75.5508 32.5015Z" fill="#263238"/>
<path d="M76.314 36.1171C76.314 36.1907 71.4564 37.3065 65.4252 38.6117C59.394 39.9168 54.4995 40.9115 54.4995 40.8378C54.4995 40.7642 59.3571 39.6484 65.3883 38.3433C71.4196 37.0381 76.2982 36.0434 76.314 36.1171Z" fill="#263238"/>
<path d="M66.9987 41.9167C66.9987 41.9904 64.3988 42.622 61.1569 43.3219C57.915 44.0219 55.2731 44.5271 55.2573 44.4534C55.2415 44.3798 57.8571 43.7535 61.099 43.0535C64.3409 42.3536 66.9829 41.8431 66.9987 41.9167Z" fill="#263238"/>
<path d="M36.4006 111.176C36.3416 110.394 36.2237 109.619 36.0479 108.855C35.823 107.969 35.4683 107.121 34.9954 106.339C34.3679 105.301 33.548 104.392 32.5797 103.66C31.3197 102.706 29.8402 102.084 28.2769 101.85C26.7137 101.617 25.1168 101.779 23.6329 102.324C22.7782 102.63 21.9745 103.062 21.2488 103.608C20.4794 104.162 19.8071 104.839 19.2595 105.613C18.0697 107.224 17.4277 109.173 17.4277 111.176C17.4277 113.178 18.0697 115.128 19.2595 116.739C19.8092 117.509 20.4812 118.185 21.2488 118.738C21.9733 119.286 22.7773 119.719 23.6329 120.023C25.1168 120.567 26.7137 120.73 28.2769 120.496C29.8402 120.263 31.3197 119.64 32.5797 118.686C33.5466 117.955 34.3662 117.048 34.9954 116.012C35.4685 115.228 35.8232 114.379 36.0479 113.491C36.2234 112.729 36.3413 111.955 36.4006 111.176C36.4006 111.176 36.4006 111.228 36.4006 111.328V111.786C36.4021 112.033 36.3809 112.28 36.3374 112.523C36.3042 112.859 36.2444 113.191 36.1585 113.518C35.9433 114.423 35.5882 115.29 35.1059 116.086C34.4115 117.265 33.4743 118.283 32.3564 119.073C31.2386 119.862 29.9656 120.405 28.6221 120.665C26.9233 120.985 25.1699 120.845 23.5434 120.259C22.6645 119.953 21.8388 119.51 21.0962 118.949C20.3044 118.382 19.611 117.688 19.0437 116.896C17.817 115.24 17.1548 113.234 17.1548 111.173C17.1548 109.112 17.817 107.106 19.0437 105.45C19.3383 105.057 19.6564 104.683 19.9963 104.329C20.3432 103.996 20.7106 103.685 21.0962 103.397C21.8414 102.84 22.6664 102.398 23.5434 102.087C25.1698 101.5 26.924 101.362 28.6221 101.687C29.9658 101.945 31.2391 102.486 32.3571 103.274C33.4752 104.063 34.4123 105.081 35.1059 106.26C35.5873 107.057 35.9424 107.923 36.1585 108.829C36.2444 109.155 36.3042 109.487 36.3374 109.823C36.3808 110.068 36.4019 110.317 36.4006 110.565V111.018C36.4058 111.149 36.4006 111.176 36.4006 111.176Z" fill="#263238"/>
<path d="M26.8485 115.97C26.713 114.376 26.6674 112.775 26.7117 111.176C26.6674 109.576 26.713 107.976 26.8485 106.381C26.9907 107.975 27.0381 109.576 26.9906 111.176C27.0381 112.775 26.9907 114.376 26.8485 115.97Z" fill="#263238"/>
<path d="M31.643 111.176C30.0504 111.311 28.4515 111.357 26.8538 111.313C25.2543 111.357 23.6536 111.311 22.0593 111.176C23.6535 111.037 25.2543 110.991 26.8538 111.039C28.4515 110.991 30.0506 111.037 31.643 111.176Z" fill="#263238"/>
<path d="M182.913 142.037C182.85 142.074 176.24 131.853 168.151 119.201C160.062 106.55 153.551 96.2555 153.615 96.2187C153.678 96.1818 160.283 106.413 168.356 119.044C176.429 131.674 182.95 141.995 182.913 142.037Z" fill="#263238"/>
<path d="M185.76 164.362C194.233 164.362 201.101 157.493 201.101 149.021C201.101 140.548 194.233 133.68 185.76 133.68C177.287 133.68 170.419 140.548 170.419 149.021C170.419 157.493 177.287 164.362 185.76 164.362Z" fill="white"/>
<path d="M170.419 149.042C170.419 149.042 170.419 148.958 170.419 148.794C170.419 148.631 170.419 148.373 170.445 148.063C170.445 147.9 170.445 147.721 170.445 147.537C170.445 147.352 170.498 147.126 170.529 146.895C170.592 146.362 170.692 145.834 170.829 145.316C171.173 143.866 171.737 142.478 172.503 141.2C173.614 139.303 175.117 137.664 176.912 136.394C178.708 135.124 180.753 134.253 182.913 133.837C183.558 133.717 184.21 133.64 184.865 133.606C185.197 133.606 185.534 133.559 185.87 133.564L186.897 133.616C187.25 133.626 187.602 133.663 187.949 133.727C188.291 133.78 188.644 133.822 189.002 133.89C190.418 134.212 191.789 134.71 193.081 135.374C193.407 135.553 193.723 135.758 194.049 135.948C194.374 136.139 194.686 136.354 194.98 136.59C196.247 137.495 197.353 138.605 198.254 139.874C199.22 141.163 199.968 142.601 200.47 144.132C201.533 147.301 201.533 150.73 200.47 153.899C199.965 155.432 199.217 156.873 198.254 158.168C197.787 158.797 197.279 159.395 196.733 159.957C196.182 160.493 195.595 160.991 194.975 161.446C194.68 161.682 194.369 161.897 194.044 162.088C193.717 162.283 193.402 162.488 193.075 162.662C192.425 163.003 191.751 163.299 191.06 163.546C190.384 163.791 189.693 163.992 188.991 164.146C188.649 164.22 188.297 164.257 187.939 164.315C187.591 164.378 187.239 164.415 186.886 164.425L185.86 164.473C185.523 164.473 185.186 164.446 184.855 164.43C184.198 164.399 183.543 164.322 182.897 164.199C180.748 163.785 178.711 162.921 176.921 161.661C175.131 160.402 173.629 158.777 172.513 156.894C171.749 155.615 171.185 154.227 170.84 152.778C170.704 152.26 170.603 151.732 170.54 151.2C170.508 150.963 170.471 150.752 170.456 150.552C170.44 150.352 170.456 150.179 170.456 150.026C170.456 149.715 170.456 149.473 170.429 149.294C170.403 149.116 170.429 149.047 170.429 149.047C170.429 149.047 170.429 149.131 170.456 149.294C170.482 149.458 170.482 149.71 170.503 150.021L170.54 150.547C170.54 150.742 170.603 150.958 170.635 151.189C170.708 151.722 170.817 152.25 170.961 152.768C171.319 154.2 171.892 155.57 172.661 156.831C173.775 158.683 175.268 160.278 177.042 161.513C178.816 162.747 180.831 163.592 182.955 163.994C183.591 164.11 184.235 164.184 184.881 164.215C185.213 164.215 185.539 164.257 185.876 164.251L186.881 164.199C187.222 164.188 187.561 164.151 187.897 164.088C188.239 164.03 188.581 163.994 188.923 163.92C189.61 163.764 190.287 163.566 190.949 163.325C191.629 163.079 192.292 162.787 192.933 162.452C193.254 162.278 193.565 162.073 193.881 161.883C194.202 161.695 194.51 161.484 194.802 161.252C195.409 160.803 195.984 160.313 196.522 159.783C197.061 159.231 197.56 158.642 198.017 158.02C198.964 156.743 199.698 155.321 200.191 153.81C201.233 150.697 201.233 147.329 200.191 144.216C199.698 142.704 198.964 141.283 198.017 140.006C197.562 139.384 197.065 138.795 196.528 138.242C195.987 137.716 195.412 137.226 194.807 136.774C194.515 136.542 194.208 136.331 193.886 136.143C193.57 135.953 193.26 135.753 192.938 135.574C192.298 135.238 191.635 134.948 190.954 134.706C190.293 134.461 189.616 134.261 188.928 134.106C188.586 134.037 188.244 133.995 187.902 133.943C187.567 133.878 187.227 133.839 186.886 133.827L185.881 133.774C185.549 133.774 185.218 133.806 184.886 133.816C184.242 133.844 183.6 133.918 182.965 134.037C180.839 134.433 178.821 135.277 177.046 136.512C175.27 137.747 173.777 139.345 172.666 141.2C171.896 142.46 171.323 143.83 170.966 145.263C170.821 145.781 170.712 146.309 170.64 146.842C170.608 147.074 170.566 147.284 170.545 147.484C170.524 147.684 170.519 147.858 170.508 148.01C170.508 148.321 170.471 148.537 170.461 148.742C170.45 148.947 170.419 149.042 170.419 149.042Z" fill="#263238"/>
<path d="M181.576 143.384L179.476 155.384L185.76 154.52L192.044 155.384L189.512 143.384H181.576Z" fill="#F4C3FB"/>
<path d="M188.413 143.542C188.365 143.542 188.239 143.111 187.886 142.49C187.698 142.121 187.442 141.791 187.134 141.516C186.946 141.368 186.739 141.248 186.518 141.158C186.276 141.075 186.021 141.032 185.765 141.032C185.265 141.007 184.769 141.126 184.334 141.374C183.994 141.605 183.724 141.923 183.55 142.295C183.234 142.937 183.129 143.384 183.081 143.374C183.097 142.97 183.198 142.574 183.376 142.211C183.541 141.787 183.827 141.421 184.197 141.158C184.669 140.864 185.22 140.723 185.776 140.753C186.063 140.755 186.348 140.806 186.618 140.906C186.868 141.005 187.099 141.145 187.302 141.321C187.627 141.625 187.887 141.992 188.065 142.4C188.256 142.754 188.374 143.142 188.413 143.542Z" fill="#F4C3FB"/>
<path d="M124.543 143.063C124.464 143.063 124.406 132.501 124.406 119.47C124.406 106.439 124.464 95.8766 124.543 95.8766C124.622 95.8766 124.679 106.434 124.679 119.47C124.679 132.506 124.616 143.063 124.543 143.063Z" fill="#263238"/>
<path d="M124.227 164.704C132.7 164.704 139.568 157.836 139.568 149.363C139.568 140.89 132.7 134.022 124.227 134.022C115.754 134.022 108.886 140.89 108.886 149.363C108.886 157.836 115.754 164.704 124.227 164.704Z" fill="white"/>
<path d="M108.886 149.363C108.886 149.363 108.886 149.279 108.886 149.115C108.886 148.952 108.886 148.694 108.886 148.384C108.886 148.221 108.886 148.042 108.886 147.858C108.886 147.673 108.944 147.447 108.975 147.216C109.033 146.682 109.134 146.154 109.275 145.637C109.618 144.187 110.183 142.799 110.949 141.521C112.061 139.635 113.562 138.007 115.353 136.747C117.143 135.486 119.182 134.622 121.332 134.211C121.977 134.091 122.63 134.014 123.285 133.98C123.622 133.98 123.959 133.937 124.295 133.937L125.316 133.99C125.67 133.999 126.021 134.036 126.369 134.101C126.716 134.153 127.064 134.195 127.421 134.264C128.124 134.408 128.817 134.598 129.495 134.832C130.188 135.079 130.863 135.373 131.516 135.711C131.842 135.89 132.158 136.095 132.479 136.285C132.814 136.48 133.136 136.698 133.442 136.937C134.058 137.397 134.645 137.894 135.2 138.427C135.744 138.991 136.251 139.59 136.716 140.221C137.678 141.515 138.426 142.954 138.931 144.484C139.998 147.653 139.998 151.083 138.931 154.252C138.43 155.784 137.681 157.224 136.716 158.515C136.252 159.145 135.746 159.743 135.2 160.304C134.647 160.838 134.059 161.335 133.442 161.794C133.146 162.03 132.833 162.244 132.505 162.436C132.184 162.63 131.869 162.836 131.542 163.009C130.889 163.35 130.214 163.645 129.521 163.894C128.848 164.138 128.158 164.339 127.458 164.494C127.111 164.567 126.764 164.604 126.406 164.662C126.058 164.726 125.706 164.763 125.353 164.772L124.332 164.82C123.99 164.82 123.659 164.793 123.322 164.778C122.666 164.747 122.014 164.669 121.369 164.546C119.219 164.135 117.182 163.271 115.391 162.011C113.601 160.752 112.099 159.126 110.986 157.241C110.219 155.964 109.655 154.576 109.312 153.126C109.171 152.608 109.071 152.08 109.012 151.547C108.98 151.31 108.944 151.1 108.923 150.9C108.902 150.7 108.923 150.526 108.923 150.373C108.923 150.063 108.923 149.821 108.923 149.642C108.923 149.463 108.923 149.394 108.923 149.394C108.936 149.476 108.945 149.559 108.949 149.642C108.949 149.815 108.98 150.058 109.002 150.368C109.002 150.529 109.012 150.705 109.033 150.894C109.033 151.089 109.096 151.305 109.133 151.536C109.204 152.069 109.311 152.597 109.454 153.115C109.816 154.547 110.391 155.917 111.159 157.178C112.273 159.019 113.762 160.605 115.53 161.833C117.297 163.06 119.303 163.902 121.417 164.304C122.053 164.421 122.696 164.495 123.343 164.525C123.669 164.525 124.001 164.567 124.332 164.562L125.343 164.509C125.684 164.498 126.023 164.461 126.358 164.399C126.695 164.341 127.043 164.304 127.379 164.23C128.069 164.077 128.748 163.879 129.411 163.636C130.091 163.389 130.754 163.097 131.395 162.762C131.716 162.588 132.021 162.383 132.342 162.199C132.661 162.007 132.967 161.794 133.258 161.562C133.866 161.114 134.443 160.625 134.984 160.099C135.52 159.543 136.017 158.953 136.474 158.331C137.421 157.054 138.155 155.632 138.647 154.12C139.692 151.008 139.692 147.639 138.647 144.526C138.154 143.015 137.42 141.593 136.474 140.316C136.016 139.697 135.518 139.108 134.984 138.553C134.441 138.027 133.865 137.536 133.258 137.085C132.968 136.852 132.662 136.641 132.342 136.453C132.021 136.264 131.716 136.064 131.395 135.89C130.756 135.55 130.093 135.258 129.411 135.016C128.748 134.772 128.069 134.571 127.379 134.416C127.043 134.348 126.695 134.306 126.358 134.253C126.024 134.188 125.684 134.151 125.343 134.143L124.337 134.09C124.001 134.09 123.669 134.116 123.343 134.127C122.696 134.155 122.053 134.229 121.417 134.348C119.293 134.749 117.278 135.595 115.504 136.829C113.73 138.063 112.237 139.659 111.122 141.511C110.354 142.772 109.779 144.141 109.417 145.574C109.274 146.092 109.166 146.619 109.096 147.152C109.059 147.384 109.017 147.595 108.996 147.795C108.975 147.995 108.996 148.168 108.965 148.321C108.965 148.631 108.928 148.873 108.912 149.052C108.91 149.156 108.902 149.26 108.886 149.363Z" fill="#263238"/>
<path d="M124.227 142.49L117.575 148.537V156.205H122.753V151.61H126.053V156.205H130.884V148.537L124.227 142.49Z" fill="#E65E2A"/>
<path d="M65.1567 142.569C65.0935 142.532 71.6984 132.085 79.8927 119.249C88.0869 106.413 94.8128 96.0292 94.876 96.0924C94.9391 96.1555 88.3343 106.571 80.14 119.417C71.9458 132.264 65.2199 142.611 65.1567 142.569Z" fill="#263238"/>
<path d="M62.6727 164.509C71.1454 164.509 78.0139 157.641 78.0139 149.168C78.0139 140.695 71.1454 133.827 62.6727 133.827C54.2 133.827 47.3315 140.695 47.3315 149.168C47.3315 157.641 54.2 164.509 62.6727 164.509Z" fill="white"/>
<path d="M78.0139 149.168C78.0006 149.086 77.9919 149.004 77.9876 148.921C77.9876 148.742 77.956 148.5 77.9349 148.189C77.9349 148.031 77.9349 147.852 77.9034 147.663C77.8718 147.474 77.8402 147.252 77.8034 147.021C77.7359 146.487 77.6286 145.96 77.4823 145.442C77.1235 144.009 76.5485 142.639 75.7772 141.379C74.6629 139.527 73.1698 137.932 71.3957 136.697C69.6217 135.463 67.6067 134.618 65.483 134.216C64.847 134.097 64.2033 134.023 63.5568 133.995C63.2305 133.995 62.899 133.953 62.5674 133.959L61.557 134.011C61.2159 134.02 60.8761 134.057 60.5412 134.122C60.2044 134.174 59.8571 134.216 59.5202 134.285C58.8306 134.44 58.1519 134.64 57.4888 134.885C56.8075 135.129 56.1445 135.421 55.5047 135.758C55.1837 135.932 54.8784 136.132 54.5574 136.322C54.238 136.511 53.9321 136.722 53.6416 136.953C53.0361 137.406 52.4595 137.896 51.9154 138.421C51.3814 138.976 50.8839 139.565 50.426 140.184C49.4792 141.461 48.7452 142.883 48.2525 144.395C47.2071 147.507 47.2071 150.876 48.2525 153.989C48.7441 155.501 49.4782 156.923 50.426 158.199C50.8825 158.821 51.3801 159.412 51.9154 159.968C52.4571 160.494 53.0338 160.982 53.6416 161.431C53.9311 161.665 54.2372 161.878 54.5574 162.067C54.8784 162.252 55.1837 162.457 55.5047 162.631C56.1466 162.964 56.8093 163.256 57.4888 163.504C58.1512 163.75 58.83 163.948 59.5202 164.099C59.8571 164.173 60.2044 164.209 60.5412 164.267C60.8765 164.33 61.2161 164.367 61.557 164.378L62.5674 164.43C62.899 164.43 63.2305 164.43 63.5568 164.394C64.2032 164.364 64.8467 164.29 65.483 164.173C67.6075 163.774 69.6234 162.929 71.3978 161.694C73.1721 160.46 74.6647 158.863 75.7772 157.01C76.5476 155.749 77.1225 154.38 77.4823 152.947C77.6276 152.429 77.7349 151.901 77.8034 151.368C77.8402 151.136 77.8823 150.921 77.9034 150.726L77.9349 150.2C77.9349 149.889 77.977 149.673 77.9876 149.473C77.9919 149.391 78.0006 149.308 78.0139 149.226C78.0139 149.226 78.0139 149.31 78.0139 149.473C78.0139 149.637 78.0139 149.894 78.0139 150.205C78.0139 150.368 78.0139 150.547 78.0139 150.731C78.0139 150.915 77.956 151.147 77.9244 151.379C77.8653 151.911 77.7668 152.439 77.6297 152.957C77.2847 154.407 76.7184 155.795 75.9508 157.073C74.8322 158.953 73.3264 160.574 71.5335 161.828C69.7405 163.082 67.7014 163.94 65.5515 164.346C64.9069 164.469 64.2544 164.547 63.599 164.578C63.2674 164.578 62.9306 164.625 62.5885 164.62L61.5675 164.573C61.2143 164.563 60.8624 164.526 60.5149 164.462C60.1676 164.404 59.8202 164.367 59.4623 164.294C58.7623 164.139 58.0731 163.938 57.3993 163.694C56.7064 163.445 56.0312 163.15 55.3784 162.809C55.0521 162.636 54.7363 162.431 54.4153 162.236C54.0882 162.044 53.7751 161.83 53.4785 161.594C52.8612 161.136 52.274 160.638 51.7207 160.104C51.1752 159.543 50.6687 158.945 50.205 158.315C49.2431 157.022 48.4951 155.582 47.9894 154.052C46.9228 150.883 46.9228 147.453 47.9894 144.284C48.4951 142.754 49.2431 141.315 50.205 140.021C50.6718 139.39 51.1799 138.791 51.726 138.227C52.2777 137.693 52.8631 137.196 53.4785 136.737C53.7764 136.503 54.0893 136.289 54.4153 136.095C54.7416 135.906 55.0521 135.701 55.3784 135.522C56.0313 135.183 56.7065 134.889 57.3993 134.643C58.0724 134.395 58.7617 134.195 59.4623 134.043C59.8097 133.969 60.157 133.927 60.5149 133.874C60.8624 133.81 61.2143 133.773 61.5675 133.764L62.5885 133.711C62.9306 133.711 63.2621 133.743 63.599 133.753C64.2542 133.787 64.9065 133.864 65.5515 133.985C67.7023 134.396 69.7408 135.26 71.5313 136.521C73.3217 137.781 74.823 139.409 75.9351 141.295C76.7026 142.572 77.2689 143.961 77.6139 145.41C77.7515 145.929 77.85 146.456 77.9086 146.989C77.9402 147.221 77.9823 147.437 77.9981 147.631C78.0139 147.826 77.9981 148.01 77.9981 148.158C77.9981 148.468 77.9981 148.71 77.9981 148.889C77.9981 149.068 78.0139 149.168 78.0139 149.168Z" fill="#263238"/>
<path d="M68.6091 141.179H56.5625V157.152H68.6091V141.179Z" fill="#F4C3FB"/>
<path d="M63.1674 143.732C61.8562 143.914 60.5261 143.914 59.215 143.732C60.5261 143.549 61.8562 143.549 63.1674 143.732Z" fill="#455A64"/>
<path d="M66.6565 145.979C65.3419 146.114 64.0196 146.16 62.6988 146.116C61.3798 146.16 60.0593 146.114 58.7465 145.979C60.0593 145.843 61.3798 145.798 62.6988 145.842C64.0196 145.798 65.3419 145.843 66.6565 145.979Z" fill="#455A64"/>
<path d="M66.6565 147.347C65.3419 147.483 64.0196 147.528 62.6988 147.484C61.3798 147.528 60.0593 147.483 58.7465 147.347C60.0588 147.205 61.3797 147.158 62.6988 147.205C64.0198 147.158 65.3424 147.205 66.6565 147.347Z" fill="#455A64"/>
<path d="M66.6565 148.71C65.3419 148.846 64.0196 148.891 62.6988 148.847C61.3798 148.891 60.0593 148.846 58.7465 148.71C60.0593 148.575 61.3798 148.529 62.6988 148.573C64.0196 148.529 65.3419 148.575 66.6565 148.71Z" fill="#455A64"/>
<path d="M66.6565 150.094C65.3419 150.23 64.0196 150.275 62.6988 150.231C61.3798 150.276 60.0593 150.23 58.7465 150.094C60.0588 149.952 61.3797 149.905 62.6988 149.952C64.0198 149.905 65.3424 149.952 66.6565 150.094Z" fill="#455A64"/>
<path d="M66.6565 151.442C65.3419 151.577 64.0196 151.623 62.6988 151.579C61.3798 151.623 60.0593 151.577 58.7465 151.442C60.0593 151.306 61.3798 151.26 62.6988 151.305C64.0196 151.261 65.3419 151.306 66.6565 151.442Z" fill="#455A64"/>
<path d="M66.6565 152.805C65.3424 152.947 64.0198 152.994 62.6988 152.947C61.3797 152.994 60.0588 152.947 58.7465 152.805C60.0593 152.669 61.3798 152.624 62.6988 152.668C64.0196 152.624 65.3419 152.669 66.6565 152.805Z" fill="#455A64"/>
<path d="M66.6565 154.173C65.3419 154.308 64.0196 154.354 62.6988 154.31C61.3798 154.354 60.0593 154.309 58.7465 154.173C60.0593 154.038 61.3798 153.992 62.6988 154.036C64.0196 153.992 65.3419 154.038 66.6565 154.173Z" fill="#455A64"/>
<path d="M195.112 70.0465H59.2939C52.3791 70.0465 46.7736 75.6521 46.7736 82.5668V83.9404C46.7736 90.8552 52.3791 96.4607 59.2939 96.4607H195.112C202.027 96.4607 207.632 90.8552 207.632 83.9404V82.5668C207.632 75.6521 202.027 70.0465 195.112 70.0465Z" fill="white"/>
<path d="M171.992 69.8097V96.4608H194.491C198.026 96.4608 201.416 95.057 203.915 92.5581C206.415 90.0593 207.82 86.6699 207.822 83.1352C207.822 81.3849 207.477 79.6516 206.807 78.0346C206.137 76.4175 205.155 74.9483 203.917 73.7108C202.679 72.4734 201.209 71.4919 199.592 70.8226C197.975 70.1532 196.241 69.809 194.491 69.8097H171.992Z" fill="#3583F0"/>
<path d="M192.912 82.3932C192.862 81.9367 192.787 81.4833 192.686 81.0353C192.36 79.8222 191.638 78.7531 190.633 77.9987C189.897 77.4436 189.033 77.0824 188.121 76.9482C187.209 76.8139 186.278 76.9109 185.413 77.2303C184.911 77.4111 184.441 77.6685 184.018 77.9934C183.573 78.3215 183.181 78.7155 182.855 79.1618C182.164 80.1035 181.791 81.241 181.791 82.409C181.791 83.5769 182.164 84.7144 182.855 85.6561C183.177 86.106 183.57 86.5006 184.018 86.8245C184.44 87.145 184.908 87.3988 185.407 87.5771C186.133 87.8395 186.904 87.9485 187.674 87.897C188.444 87.8455 189.194 87.6347 189.878 87.278C190.562 86.9212 191.164 86.4263 191.646 85.8246C192.129 85.2229 192.481 84.5275 192.681 83.7825C192.782 83.3328 192.857 82.8778 192.907 82.4195C192.939 82.8864 192.896 83.3554 192.781 83.8089C192.485 85.0644 191.766 86.1797 190.744 86.9666C189.986 87.5547 189.091 87.9413 188.143 88.0903C187.195 88.2394 186.225 88.1461 185.323 87.8192C184.798 87.6378 184.304 87.3749 183.86 87.0402C183.391 86.7003 182.979 86.2882 182.639 85.8193C181.911 84.8333 181.518 83.6399 181.518 82.4142C181.518 81.1885 181.911 79.9951 182.639 79.0091C183.315 78.0905 184.25 77.3943 185.323 77.0093C186.29 76.6642 187.331 76.5843 188.339 76.7777C189.41 76.984 190.399 77.4949 191.186 78.2492C191.974 79.0035 192.528 79.969 192.781 81.0301C192.896 81.4747 192.94 81.9347 192.912 82.3932Z" fill="white"/>
<path d="M198.133 90.2664C197.005 89.6221 195.922 88.903 194.891 88.1139C193.809 87.394 192.778 86.5991 191.807 85.7351C192.936 86.3771 194.019 87.0964 195.049 87.8876C196.131 88.6075 197.162 89.4024 198.133 90.2664Z" fill="white"/>
<path d="M160.404 80.7775H62.0674V86.4298H160.404V80.7775Z" fill="#EBEBEB"/>
<path d="M195.112 96.4607C195.112 96.4607 195.423 96.4607 196.023 96.4029C196.395 96.3805 196.766 96.333 197.133 96.2607C197.644 96.181 198.148 96.0667 198.643 95.9187C200.029 95.4979 201.332 94.8428 202.496 93.9819L203.022 93.5925C203.191 93.4451 203.354 93.2872 203.522 93.1346C203.878 92.8167 204.212 92.4756 204.522 92.1136C204.864 91.7557 205.133 91.3189 205.459 90.9032L205.869 90.2243L206.08 89.8717L206.259 89.498C206.787 88.4488 207.159 87.3283 207.364 86.1719C207.406 85.8666 207.453 85.5561 207.501 85.2456C207.548 84.9351 207.538 84.6088 207.553 84.2878C207.553 83.6457 207.553 82.9721 207.553 82.2984C207.478 79.1159 206.187 76.0832 203.944 73.8239C201.701 71.5646 198.678 70.2505 195.496 70.1518C191.907 70.1202 188.097 70.1518 184.107 70.1518L59.2992 70.1939C56.2738 70.2053 53.3559 71.3164 51.0891 73.32C48.8462 75.2944 47.3998 78.0187 47.0209 80.9827C46.9698 81.3455 46.9399 81.7111 46.9315 82.0774C46.9315 82.4405 46.9052 82.8089 46.9315 83.1773C46.9223 83.9098 46.9504 84.6423 47.0157 85.3719C47.1763 86.8186 47.5989 88.2238 48.263 89.519C49.57 92.1002 51.7338 94.1468 54.3837 95.3082C55.6871 95.8642 57.0748 96.1969 58.4887 96.2923C59.1886 96.3397 59.8991 96.3344 60.5938 96.3344H87.308L143.42 96.366L181.244 96.4081L191.533 96.4344L181.244 96.4607L143.42 96.5028L87.308 96.5344H60.5886C59.8781 96.5344 59.1729 96.5344 58.4518 96.4923C56.2564 96.3544 54.1356 95.6426 52.3014 94.4282C50.4672 93.2137 48.9839 91.5391 47.9998 89.5717C47.3215 88.2485 46.8899 86.8129 46.7262 85.3351C46.657 84.5951 46.6272 83.852 46.6368 83.1089C46.6368 82.7405 46.6368 82.3721 46.6631 81.9984C46.6691 81.6233 46.699 81.2489 46.7525 80.8775C47.1373 77.8487 48.6137 75.0643 50.9049 73.0464C53.2301 70.9932 56.2236 69.8575 59.3255 69.8518L184.134 69.8939C188.128 69.8939 191.928 69.8939 195.528 69.9202C198.749 70.0232 201.808 71.3578 204.075 73.6489C206.341 75.94 207.643 79.0132 207.711 82.2353C207.711 82.9194 207.711 83.5826 207.711 84.2351C207.711 84.5614 207.674 84.8825 207.653 85.1983C207.632 85.514 207.559 85.8298 207.511 86.135C207.302 87.3016 206.923 88.4312 206.385 89.4875L206.206 89.8664L205.99 90.2137C205.848 90.4506 205.711 90.6769 205.569 90.9032C205.274 91.3225 204.958 91.7265 204.622 92.1136C204.313 92.4799 203.977 92.8229 203.617 93.1399C203.443 93.2978 203.275 93.4557 203.091 93.5977L202.564 93.9925C201.39 94.8517 200.076 95.5016 198.68 95.9134C198.181 96.0585 197.673 96.1693 197.159 96.245C196.791 96.3134 196.418 96.3556 196.044 96.3713C195.423 96.4555 195.112 96.4607 195.112 96.4607Z" fill="#263238"/>
<path d="M125.416 80.0407C124.937 79.4829 124.89 78.9881 125.969 78.9145C128.342 78.6987 130.09 77.6619 130.369 77.0619C130.648 76.462 129.89 75.8778 129.248 76.2357C128.51 76.5557 127.733 76.7751 126.937 76.8883C126.298 76.9964 125.645 76.9964 125.006 76.8883C124.453 76.8041 123.953 76.7093 123.532 76.6199C123.532 76.6199 121.022 76.0936 119.938 75.2305L114.622 80.9091L117.117 83.7247C117.49 84.25 117.992 84.6709 118.574 84.9473C119.156 85.2237 119.8 85.3464 120.443 85.3036C122.58 85.093 125.458 83.5615 125.458 83.5615C125.848 82.9616 129.29 85.0878 130.4 85.8825C131.511 86.6771 132.326 86.4772 132.284 85.7141C132.258 85.1878 128.921 82.6721 127.806 81.909C126.943 81.3701 126.142 80.7383 125.416 80.0249" fill="#FFBE9D"/>
<path d="M122.295 84.972C122.295 85.0089 122.143 85.072 121.864 85.0668C121.505 85.0437 121.161 84.9156 120.875 84.6985C120.589 84.4814 120.372 84.1848 120.253 83.8458C120.169 83.5879 120.195 83.4142 120.227 83.409C120.43 83.8082 120.707 84.1654 121.043 84.4615C121.423 84.7115 121.849 84.8849 122.295 84.972Z" fill="#EB996E"/>
<path d="M124.401 84.1458C124.401 84.1774 124.248 84.2353 123.985 84.2195C123.643 84.1858 123.317 84.0556 123.046 83.8441C122.775 83.6327 122.569 83.3485 122.453 83.0248C122.374 82.7775 122.39 82.6143 122.422 82.609C122.453 82.6038 122.643 83.1932 123.216 83.63C123.582 83.8626 123.981 84.0366 124.401 84.1458Z" fill="#EB996E"/>
<path d="M130.132 25.0651C130.353 29.7279 136.042 36.117 140.273 37.1696C142.494 37.6959 145.052 37.4591 146.815 38.9537C149.841 41.5167 148.073 46.848 150.109 50.2688C151.362 52.374 153.851 53.4265 155.262 55.4211C157.604 58.7578 156.03 63.7996 152.836 66.2836C149.641 68.7677 145.378 69.2414 141.373 69.1361C132.558 68.9098 123.532 66.11 117.164 59.863C114.17 56.9263 102.46 47.869 106.544 26.3913" fill="#263238"/>
<path d="M161.94 58.4315L128.432 48.4847C126.87 47.8021 125.232 47.3091 123.553 47.0164L112.238 47.0901C110.744 47.0951 109.267 47.4049 107.896 48.0005L77.3981 58.1315C75.1403 58.8473 73.5825 61.1629 73.5825 63.7996C73.5825 67.0468 75.9245 69.6835 78.8138 69.6835H92.9182L92.8603 69.8887L141.847 70.0729L160.546 70.1097C163.435 70.1097 165.777 67.452 165.777 64.168C165.756 61.4945 164.198 59.1525 161.94 58.4315Z" fill="#3583F0"/>
<path d="M155.225 62.0576C155.124 62.0681 155.021 62.0681 154.92 62.0576L154.057 61.9576C153.309 61.8629 152.225 61.7419 150.899 61.6156C147.401 61.2781 143.887 61.1306 140.373 61.1735C136.865 61.225 133.362 61.4639 129.879 61.8892C128.543 62.0524 127.458 62.1997 126.722 62.3155L125.858 62.4366C125.76 62.4549 125.659 62.4637 125.558 62.4629C125.651 62.4224 125.748 62.3958 125.848 62.3839L126.701 62.2103C127.443 62.0629 128.521 61.884 129.858 61.684C133.347 61.2027 136.862 60.9373 140.384 60.8893C143.9 60.8458 147.415 61.0216 150.91 61.4156C152.252 61.5682 153.336 61.7208 154.067 61.8471L154.925 61.9945C155.028 62.0014 155.129 62.0226 155.225 62.0576Z" fill="#263238"/>
<path d="M77.4244 69.0045C77.4244 69.0045 115.717 85.8877 115.548 85.5141C115.38 85.1404 121.627 74.0516 121.627 74.0516L90.6026 58.7157L77.4244 69.0045Z" fill="#3583F0"/>
<path d="M95.0233 60.905C95.2945 60.9953 95.5584 61.1061 95.8127 61.2366L97.9179 62.2313C99.6967 63.0786 102.128 64.268 104.828 65.5995C107.528 66.931 109.949 68.1467 111.701 69.0414L113.77 70.094C114.028 70.2152 114.277 70.3578 114.512 70.5202C114.239 70.4355 113.975 70.3263 113.722 70.1939L111.617 69.1993C109.843 68.3519 107.407 67.1625 104.707 65.831C102.007 64.4996 99.5862 63.2838 97.8337 62.3892L95.7654 61.3366C95.5073 61.212 95.2592 61.0677 95.0233 60.905Z" fill="#263238"/>
<path d="M124.532 46.4586C124.622 44.3955 124.732 42.5325 124.732 42.5325C124.732 42.5325 129.342 41.9483 129.537 37.2696C129.732 32.591 129.269 21.739 129.269 21.739L120.811 17.6445L111.691 25.0125L113.117 46.5901C113.217 48.0864 113.9 49.4837 115.019 50.4823C116.137 51.481 117.603 52.0014 119.101 51.9319C120.526 51.861 121.872 51.2604 122.877 50.2478C123.882 49.2352 124.472 47.8838 124.532 46.4586Z" fill="#FFBE9D"/>
<path d="M128.474 30.2174C128.473 30.3323 128.438 30.4443 128.374 30.5394C128.309 30.6346 128.218 30.7086 128.112 30.7523C128.006 30.796 127.889 30.8074 127.776 30.7851C127.664 30.7628 127.56 30.7078 127.479 30.627C127.397 30.5461 127.341 30.443 127.318 30.3305C127.295 30.2181 127.305 30.1012 127.348 29.9946C127.39 29.888 127.464 29.7964 127.558 29.7312C127.653 29.6659 127.764 29.6301 127.879 29.628C128.036 29.628 128.187 29.6899 128.298 29.8003C128.409 29.9107 128.473 30.0606 128.474 30.2174Z" fill="#263238"/>
<path d="M129.042 28.9648C128.969 29.0438 128.516 28.6701 127.9 28.6491C127.285 28.628 126.8 28.9438 126.732 28.8596C126.664 28.7754 126.774 28.6754 126.979 28.528C127.252 28.3345 127.582 28.2382 127.916 28.2543C128.249 28.2727 128.568 28.3962 128.827 28.607C129.016 28.7754 129.079 28.928 129.042 28.9648Z" fill="#263238"/>
<path d="M121.485 30.2174C121.485 30.3335 121.451 30.447 121.386 30.5437C121.322 30.6404 121.23 30.716 121.123 30.7609C121.016 30.8058 120.898 30.8181 120.784 30.7962C120.67 30.7742 120.565 30.7191 120.482 30.6378C120.4 30.5564 120.343 30.4523 120.319 30.3387C120.295 30.2251 120.305 30.1069 120.348 29.999C120.391 29.8911 120.465 29.7984 120.56 29.7324C120.656 29.6663 120.769 29.63 120.885 29.628C120.963 29.6273 121.041 29.642 121.113 29.6712C121.185 29.7004 121.251 29.7437 121.307 29.7984C121.363 29.8531 121.407 29.9183 121.438 29.9902C121.468 30.0621 121.484 30.1393 121.485 30.2174Z" fill="#263238"/>
<path d="M122.053 29.0859C121.98 29.1648 121.527 28.7912 120.906 28.7701C120.285 28.7491 119.806 29.0648 119.743 28.9806C119.68 28.8964 119.785 28.7964 119.99 28.6491C120.261 28.4564 120.589 28.36 120.922 28.3754C121.257 28.3904 121.577 28.5163 121.832 28.7333C122.027 28.8964 122.09 29.0491 122.053 29.0859Z" fill="#263238"/>
<path d="M124.422 34.5119C124.764 34.4139 125.118 34.3608 125.474 34.354C125.632 34.354 125.79 34.3172 125.816 34.2014C125.836 34.0199 125.801 33.8368 125.716 33.6751C125.574 33.2488 125.422 32.8067 125.258 32.3383C124.835 31.2034 124.495 30.039 124.243 28.8543C124.753 29.9519 125.178 31.0867 125.516 32.2489C125.669 32.7173 125.816 33.1646 125.953 33.5909C126.052 33.8027 126.078 34.0416 126.027 34.2698C126.004 34.3282 125.968 34.3804 125.921 34.4224C125.874 34.4644 125.819 34.4951 125.758 34.5119C125.669 34.534 125.577 34.5446 125.485 34.5435C125.131 34.5809 124.773 34.5703 124.422 34.5119Z" fill="#263238"/>
<path d="M122.348 35.1592C121.706 34.7382 124.132 36.2118 125.416 36.1855C125.197 36.5157 124.87 36.7603 124.492 36.8782C124.113 36.9961 123.706 36.98 123.337 36.8328C121.98 36.2697 122.348 35.1592 122.348 35.1592Z" fill="white"/>
<path d="M124.732 42.5325C122.548 42.4722 120.428 41.7773 118.632 40.5326C118.632 40.5326 120.069 43.9587 124.653 43.6903L124.732 42.5325Z" fill="#EB996E"/>
<path d="M106.717 29.628C106.717 33.6961 105.638 44.4587 113.033 45.9428L112.785 31.1542C112.785 31.1542 119.969 27.7649 121.206 20.7074L121.248 20.7496C121.706 21.8021 122.527 24.102 122.027 25.965L128.758 27.6228L129.532 28.328C129.532 28.328 131.926 23.0652 127.306 18.3286C122.685 13.5921 118.732 17.0182 116.254 16.7498C114.606 16.5498 108.886 16.5866 106.565 26.4282L106.717 29.628Z" fill="#263238"/>
<path d="M112.97 31.2963C112.343 30.9069 111.486 31.2279 110.991 31.77C110.594 32.2004 110.348 32.7482 110.289 33.3307C110.231 33.9133 110.363 34.4991 110.667 34.9998C110.97 35.5005 111.428 35.8889 111.972 36.1066C112.515 36.3243 113.115 36.3594 113.68 36.2066" fill="#FFBE9D"/>
<path d="M112.827 34.8013C112.827 34.8329 112.617 34.8698 112.301 34.8013C112.079 34.7454 111.874 34.6369 111.702 34.4848C111.531 34.3327 111.399 34.1417 111.317 33.9277C111.23 33.6768 111.242 33.4023 111.349 33.1593C111.436 32.9689 111.574 32.8067 111.749 32.6909C112.043 32.5015 112.275 32.5173 112.275 32.5488C112.275 32.5804 112.091 32.6488 111.87 32.8488C111.728 32.9658 111.625 33.1229 111.574 33.2995C111.524 33.4761 111.527 33.6639 111.585 33.8382C111.657 34.0153 111.763 34.1759 111.899 34.3099C112.035 34.4439 112.197 34.5485 112.375 34.6171C112.633 34.7224 112.827 34.7592 112.827 34.8013Z" fill="#EB996E"/>
<path d="M112.212 35.7276C112.084 35.7531 111.97 35.8253 111.892 35.9302C111.814 36.0352 111.778 36.1653 111.791 36.2953C111.803 36.4254 111.864 36.546 111.961 36.6337C112.058 36.7215 112.184 36.7701 112.314 36.7701C112.445 36.7701 112.571 36.7215 112.668 36.6337C112.765 36.546 112.825 36.4254 112.838 36.2953C112.851 36.1653 112.815 36.0352 112.737 35.9302C112.659 35.8253 112.545 35.7531 112.417 35.7276" fill="#F4C3FB"/>
<path d="M125.843 70.0992V62.3681C125.843 62.3681 114.364 64.7469 114.154 70.0045L125.843 70.0992Z" fill="#FFBE9D"/>
<path d="M124.648 45.6428C124.841 48.0239 125.912 50.2483 127.652 51.8842C129.393 53.52 131.68 54.4505 134.068 54.4949C135.763 54.5212 137.547 54.1213 139.094 54.8107C140.442 55.4159 141.31 56.7158 142.368 57.7421C143.63 58.9325 145.188 59.7626 146.881 60.1458C148.573 60.529 150.337 60.4514 151.988 59.9209C153.383 59.4525 155.588 58.4526 155.846 57.0106C156.046 55.9106 154.699 54.816 153.909 54.0318C153.076 53.2848 152.12 52.6866 151.083 52.2635C142.905 48.4216 134.132 45.6323 125.111 45.1534" fill="#263238"/>
</svg>
