<svg width="240" height="240" viewBox="0 0 240 240" fill="none" xmlns="http://www.w3.org/2000/svg">
<path d="M212.242 52.0656L211.07 50.1456C201.226 33.9168 183.418 24.1296 164.64 25.32C162.22 25.4644 159.813 25.7852 157.44 26.28C140.376 29.9328 125.525 42.84 119.366 59.3712C115.747 69.0912 114.734 80.2848 107.846 88.0032C98.904 98.0448 83.7264 98.3616 70.4064 97.944C57.0864 97.5264 41.8848 97.92 32.9856 108C27.4128 114.312 25.6416 123.293 26.0928 131.746C27.2832 154.138 42.8928 174.154 62.7216 184.104C82.5504 194.054 105.922 194.942 127.632 190.57C158.05 184.435 186.974 167.597 204.365 141.61C221.755 115.622 226.152 80.16 212.242 52.0656Z" fill="#F5F5F5"/>
<path d="M78.8304 70.0944C89.1639 70.0944 97.5408 61.7175 97.5408 51.384C97.5408 41.0505 89.1639 32.6736 78.8304 32.6736C68.4969 32.6736 60.12 41.0505 60.12 51.384C60.12 61.7175 68.4969 70.0944 78.8304 70.0944Z" fill="#F5F5F5"/>
<path d="M228.48 214.795C228.48 214.862 179.707 214.92 119.554 214.92C59.4 214.92 10.6176 214.862 10.6176 214.795C10.6176 214.728 59.3808 214.67 119.578 214.67C179.774 214.67 228.48 214.723 228.48 214.795Z" fill="#263238"/>
<path d="M189.322 188.342L128.779 188.304C125.283 188.301 121.93 186.911 119.458 184.437C116.987 181.964 115.598 178.61 115.598 175.114L115.627 23.3328C115.628 21.6006 115.97 19.8855 116.633 18.2854C117.297 16.6853 118.269 15.2316 119.494 14.0072C120.719 12.7828 122.174 11.8117 123.774 11.1494C125.375 10.4871 127.09 10.1466 128.822 10.1472L189.365 10.1856C191.097 10.185 192.813 10.5257 194.414 11.1883C196.015 11.8509 197.47 12.8224 198.695 14.0473C199.92 15.2722 200.892 16.7265 201.555 18.3271C202.219 19.9278 202.56 21.6434 202.56 23.376L202.531 175.157C202.531 176.89 202.189 178.607 201.525 180.208C200.861 181.81 199.888 183.264 198.661 184.489C197.434 185.714 195.977 186.684 194.375 187.346C192.772 188.007 191.055 188.346 189.322 188.342Z" fill="#263238"/>
<path d="M189.302 15.552H177.562C177.179 15.5601 176.802 15.6435 176.452 15.7976C176.102 15.9516 175.786 16.1732 175.521 16.4496C175.257 16.726 175.049 17.0519 174.911 17.4085C174.773 17.7652 174.706 18.1456 174.715 18.528V20.64C174.723 21.0226 174.656 21.4032 174.517 21.7598C174.379 22.1165 174.171 22.4423 173.906 22.7187C173.641 22.995 173.325 23.2165 172.974 23.3705C172.624 23.5245 172.247 23.6079 171.864 23.616H148.987C148.214 23.5996 147.479 23.277 146.943 22.719C146.408 22.161 146.116 21.4132 146.131 20.64V18.5088C146.148 17.7355 145.857 16.9873 145.322 16.4284C144.788 15.8695 144.053 15.5456 143.28 15.528H128.88C127.667 15.5274 126.465 15.7658 125.344 16.2296C124.223 16.6934 123.205 17.3736 122.347 18.2312C121.489 19.0888 120.808 20.1071 120.343 21.2279C119.879 22.3487 119.64 23.55 119.64 24.7632L119.611 172.91C119.611 175.359 120.583 177.708 122.314 179.441C124.045 181.173 126.393 182.148 128.842 182.15L189.264 182.184C191.714 182.184 194.063 181.211 195.796 179.479C197.529 177.748 198.503 175.399 198.504 172.949L198.533 24.8016C198.534 23.5882 198.296 22.3864 197.833 21.2649C197.37 20.1433 196.69 19.124 195.833 18.2651C194.976 17.4062 193.958 16.7245 192.838 16.259C191.717 15.7935 190.516 15.5532 189.302 15.552Z" fill="white"/>
<path d="M192.202 39.0502C192.965 39.0502 193.584 38.4312 193.584 37.6678C193.584 36.9043 192.965 36.2854 192.202 36.2854C191.438 36.2854 190.819 36.9043 190.819 37.6678C190.819 38.4312 191.438 39.0502 192.202 39.0502Z" fill="#E0E0E0"/>
<path d="M190.474 39.8182C190.474 40.0916 190.392 40.3588 190.241 40.5862C190.089 40.8135 189.873 40.9907 189.62 41.0953C189.368 41.2 189.09 41.2273 188.821 41.174C188.553 41.1207 188.307 40.989 188.114 40.7957C187.92 40.6023 187.789 40.356 187.735 40.0879C187.682 39.8197 187.709 39.5417 187.814 39.2891C187.919 39.0365 188.096 38.8206 188.323 38.6687C188.55 38.5168 188.818 38.4358 189.091 38.4358C189.458 38.4358 189.809 38.5814 190.069 38.8407C190.328 39.0999 190.474 39.4515 190.474 39.8182Z" fill="#E0E0E0"/>
<path d="M193.584 41.7958C193.584 42.0692 193.503 42.3364 193.351 42.5638C193.199 42.7911 192.983 42.9683 192.731 43.0729C192.478 43.1776 192.2 43.2049 191.932 43.1516C191.664 43.0983 191.417 42.9666 191.224 42.7733C191.031 42.5799 190.899 42.3336 190.846 42.0655C190.792 41.7973 190.82 41.5193 190.924 41.2667C191.029 41.0141 191.206 40.7982 191.434 40.6463C191.661 40.4944 191.928 40.4134 192.202 40.4134C192.568 40.4134 192.92 40.559 193.179 40.8183C193.438 41.0775 193.584 41.4291 193.584 41.7958Z" fill="#E0E0E0"/>
<path d="M191.808 41.9974L188.654 39.8134L192.058 37.4614L192.346 37.8742L189.533 39.8182L192.091 41.5894L191.808 41.9974Z" fill="#E0E0E0"/>
<path d="M178.949 33.8182H131.842C128.512 33.8182 125.813 36.5174 125.813 39.847V40.3942C125.813 43.7238 128.512 46.423 131.842 46.423H178.949C182.278 46.423 184.978 43.7238 184.978 40.3942V39.847C184.978 36.5174 182.278 33.8182 178.949 33.8182Z" fill="#EBEBEB"/>
<path d="M135.178 40.1541V41.5221H134.486V40.2645C134.486 39.8757 134.309 39.6981 134.006 39.6981C133.704 39.6981 133.435 39.9045 133.435 40.3413V41.5221H132.744V38.2341H133.44V39.3909C133.541 39.2949 133.66 39.2199 133.79 39.1704C133.92 39.121 134.059 39.098 134.198 39.1029C134.334 39.0996 134.469 39.1251 134.594 39.1777C134.719 39.2304 134.832 39.309 134.924 39.4083C135.017 39.5076 135.087 39.6255 135.131 39.7541C135.175 39.8826 135.191 40.019 135.178 40.1541Z" fill="#263238"/>
<path d="M137.342 41.3973C137.176 41.5054 136.979 41.5591 136.781 41.5509C136.663 41.5676 136.542 41.5571 136.429 41.5203C136.315 41.4835 136.211 41.4214 136.125 41.3386C136.039 41.2558 135.973 41.1546 135.932 41.0425C135.891 40.9304 135.876 40.8105 135.888 40.6917V39.7317H135.518V39.1941H135.888V38.5989H136.579V39.1941H137.174V39.7269H136.579V40.6869C136.573 40.7283 136.577 40.7704 136.589 40.8102C136.602 40.8499 136.623 40.8864 136.652 40.9168C136.681 40.9472 136.716 40.9708 136.754 40.9859C136.793 41.0009 136.835 41.007 136.877 41.0037C136.978 41.0055 137.077 40.9753 137.16 40.9173L137.342 41.3973Z" fill="#263238"/>
<path d="M139.2 41.3973C139.033 41.5054 138.837 41.5591 138.638 41.5509C138.52 41.5676 138.4 41.5571 138.286 41.5203C138.173 41.4835 138.069 41.4214 137.983 41.3386C137.897 41.2558 137.831 41.1546 137.79 41.0425C137.749 40.9304 137.733 40.8105 137.746 40.6917V39.7317H137.376V39.1941H137.76V38.5989H138.451V39.1941H139.046V39.7269H138.451V40.6869C138.445 40.7283 138.449 40.7704 138.461 40.8102C138.474 40.8499 138.495 40.8864 138.524 40.9168C138.552 40.9472 138.587 40.9708 138.626 40.9859C138.665 41.0009 138.707 41.007 138.749 41.0037C138.85 41.0055 138.949 40.9753 139.032 40.9173L139.2 41.3973Z" fill="#263238"/>
<path d="M142.214 40.3221C142.224 40.4827 142.2 40.6434 142.144 40.7942C142.088 40.945 142.001 41.0825 141.889 41.198C141.777 41.3135 141.643 41.4045 141.494 41.4653C141.345 41.526 141.185 41.5552 141.024 41.5509C140.891 41.5556 140.758 41.5324 140.634 41.4829C140.51 41.4333 140.397 41.3584 140.304 41.2629V42.3765H139.613V39.1269H140.275V39.4005C140.368 39.2954 140.484 39.2127 140.614 39.1587C140.744 39.1047 140.884 39.0807 141.024 39.0885C141.185 39.0842 141.346 39.1135 141.495 39.1746C141.644 39.2356 141.779 39.3271 141.891 39.4431C142.003 39.5591 142.09 39.6972 142.145 39.8486C142.201 39.9999 142.224 40.1612 142.214 40.3221ZM141.509 40.3221C141.499 40.2038 141.456 40.0909 141.383 39.997C141.311 39.9032 141.212 39.8326 141.1 39.7939C140.988 39.7552 140.867 39.75 140.752 39.7791C140.637 39.8081 140.533 39.8701 140.452 39.9575C140.372 40.0448 140.319 40.1537 140.3 40.2707C140.28 40.3878 140.296 40.5079 140.343 40.6165C140.391 40.725 140.47 40.8172 140.57 40.8817C140.669 40.9462 140.785 40.9803 140.904 40.9797C140.988 40.9808 141.072 40.9641 141.149 40.9307C141.227 40.8973 141.296 40.848 141.353 40.7859C141.41 40.7239 141.454 40.6505 141.48 40.5706C141.507 40.4907 141.517 40.406 141.509 40.3221Z" fill="#263238"/>
<path d="M142.445 41.2917L142.675 40.8117C142.926 40.9639 143.213 41.0452 143.506 41.0469C143.822 41.0469 143.942 40.9605 143.942 40.8261C143.942 40.4373 142.502 40.8261 142.502 39.8661C142.502 39.4149 142.91 39.0933 143.606 39.0933C143.925 39.0876 144.24 39.1601 144.523 39.3045L144.293 39.7845C144.083 39.669 143.846 39.6094 143.606 39.6117C143.294 39.6117 143.16 39.7077 143.16 39.8325C143.16 40.2405 144.6 39.8325 144.6 40.7925C144.6 41.2341 144.187 41.5509 143.472 41.5509C143.113 41.5577 142.758 41.4682 142.445 41.2917Z" fill="#263238"/>
<path d="M144.864 39.5205C144.875 39.4144 144.925 39.3162 145.005 39.2449C145.084 39.1735 145.187 39.134 145.294 39.134C145.4 39.134 145.503 39.1735 145.583 39.2449C145.662 39.3162 145.712 39.4144 145.723 39.5205C145.73 39.5808 145.723 39.6417 145.705 39.6993C145.686 39.7569 145.655 39.8099 145.615 39.855C145.574 39.9 145.525 39.936 145.469 39.9606C145.414 39.9853 145.354 39.998 145.294 39.998C145.233 39.998 145.173 39.9853 145.118 39.9606C145.062 39.936 145.013 39.9 144.972 39.855C144.932 39.8099 144.901 39.7569 144.883 39.6993C144.864 39.6417 144.858 39.5808 144.864 39.5205ZM144.864 41.1141C144.875 41.008 144.925 40.9098 145.005 40.8385C145.084 40.7671 145.187 40.7276 145.294 40.7276C145.4 40.7276 145.503 40.7671 145.583 40.8385C145.662 40.9098 145.712 41.008 145.723 41.1141C145.73 41.1744 145.723 41.2353 145.705 41.2929C145.686 41.3505 145.655 41.4035 145.615 41.4486C145.574 41.4936 145.525 41.5296 145.469 41.5542C145.414 41.5789 145.354 41.5916 145.294 41.5916C145.233 41.5916 145.173 41.5789 145.118 41.5542C145.062 41.5296 145.013 41.4936 144.972 41.4486C144.932 41.4035 144.901 41.3505 144.883 41.2929C144.864 41.2353 144.858 41.1744 144.864 41.1141Z" fill="#263238"/>
<path d="M147.427 37.7781H148.042L146.578 41.9589H145.963L147.427 37.7781Z" fill="#263238"/>
<path d="M148.843 37.7781H149.458L147.994 41.9589H147.36L148.843 37.7781Z" fill="#263238"/>
<path d="M153.283 39.1269L152.419 41.5269H151.752L151.2 40.0293L150.643 41.5125H149.976L149.117 39.1125H149.77L150.331 40.7253L150.917 39.1125H151.502L152.074 40.7253L152.654 39.1125L153.283 39.1269Z" fill="#263238"/>
<path d="M157.387 39.127L156.518 41.527H155.856L155.318 40.0438L154.762 41.527H154.08L153.216 39.127H153.869L154.435 40.7398L155.04 39.127H155.626L156.192 40.7398L156.773 39.127H157.387Z" fill="#263238"/>
<path d="M161.486 39.1269L160.622 41.5269H159.955L159.418 40.0437L158.88 41.5125H158.213L157.349 39.1125H158.002L158.568 40.7253L159.154 39.1125H159.739L160.306 40.7253L160.886 39.1125L161.486 39.1269Z" fill="#263238"/>
<path d="M161.501 41.1142C161.512 41.0081 161.562 40.9099 161.641 40.8385C161.721 40.7671 161.824 40.7276 161.93 40.7276C162.037 40.7276 162.14 40.7671 162.219 40.8385C162.299 40.9099 162.349 41.0081 162.36 41.1142C162.366 41.1744 162.36 41.2353 162.341 41.2929C162.323 41.3505 162.292 41.4036 162.251 41.4486C162.211 41.4936 162.161 41.5296 162.106 41.5543C162.051 41.5789 161.991 41.5916 161.93 41.5916C161.87 41.5916 161.81 41.5789 161.755 41.5543C161.699 41.5296 161.65 41.4936 161.609 41.4486C161.569 41.4036 161.538 41.3505 161.519 41.2929C161.501 41.2353 161.494 41.1744 161.501 41.1142Z" fill="#263238"/>
<path d="M162.662 41.1142C162.674 41.0081 162.724 40.9099 162.803 40.8385C162.882 40.7671 162.985 40.7276 163.092 40.7276C163.199 40.7276 163.302 40.7671 163.381 40.8385C163.46 40.9099 163.51 41.0081 163.522 41.1142C163.528 41.1744 163.522 41.2353 163.503 41.2929C163.484 41.3505 163.454 41.4036 163.413 41.4486C163.373 41.4936 163.323 41.5296 163.268 41.5543C163.212 41.5789 163.152 41.5916 163.092 41.5916C163.031 41.5916 162.971 41.5789 162.916 41.5543C162.861 41.5296 162.811 41.4936 162.771 41.4486C162.73 41.4036 162.7 41.3505 162.681 41.2929C162.662 41.2353 162.656 41.1744 162.662 41.1142Z" fill="#263238"/>
<path d="M163.824 41.1142C163.824 40.9996 163.869 40.8897 163.951 40.8087C164.032 40.7277 164.141 40.6822 164.256 40.6822C164.371 40.6822 164.48 40.7277 164.561 40.8087C164.642 40.8897 164.688 40.9996 164.688 41.1142C164.688 41.2287 164.642 41.3386 164.561 41.4196C164.48 41.5006 164.371 41.5462 164.256 41.5462C164.141 41.5462 164.032 41.5006 163.951 41.4196C163.869 41.3386 163.824 41.2287 163.824 41.1142Z" fill="#263238"/>
<path d="M190.248 155.702C190.248 155.774 176.51 155.827 159.571 155.827C142.632 155.827 128.89 155.774 128.89 155.702C128.89 155.63 142.622 155.578 159.571 155.578C176.52 155.578 190.248 155.635 190.248 155.702Z" fill="#E0E0E0"/>
<path d="M190.248 150.442C190.248 150.509 176.51 150.566 159.571 150.566C142.632 150.566 128.89 150.509 128.89 150.442C128.89 150.374 142.622 150.317 159.571 150.317C176.52 150.317 190.248 150.37 190.248 150.442Z" fill="#E0E0E0"/>
<path d="M190.248 145.176C190.248 145.243 176.51 145.301 159.571 145.301C142.632 145.301 128.89 145.243 128.89 145.176C128.89 145.109 142.622 145.051 159.571 145.051C176.52 145.051 190.248 145.104 190.248 145.176Z" fill="#E0E0E0"/>
<path d="M190.248 139.91C190.248 139.978 176.51 140.035 159.571 140.035C142.632 140.035 128.89 139.978 128.89 139.91C128.89 139.843 142.622 139.786 159.571 139.786C176.52 139.786 190.248 139.843 190.248 139.91Z" fill="#E0E0E0"/>
<path d="M190.248 134.645C190.248 134.717 176.51 134.77 159.571 134.77C142.632 134.77 128.89 134.717 128.89 134.645C128.89 134.573 142.622 134.52 159.571 134.52C176.52 134.52 190.248 134.578 190.248 134.645Z" fill="#E0E0E0"/>
<path d="M190.248 129.379C190.248 129.451 176.51 129.504 159.571 129.504C142.632 129.504 128.89 129.451 128.89 129.379C128.89 129.307 142.622 129.254 159.571 129.254C176.52 129.254 190.248 129.312 190.248 129.379Z" fill="#E0E0E0"/>
<path d="M190.248 124.118C190.248 124.186 176.51 124.243 159.571 124.243C142.632 124.243 128.89 124.186 128.89 124.118C128.89 124.051 142.622 123.994 159.571 123.994C176.52 123.994 190.248 124.046 190.248 124.118Z" fill="#E0E0E0"/>
<path d="M190.248 118.853C190.248 118.92 176.51 118.978 159.571 118.978C142.632 118.978 128.89 118.92 128.89 118.853C128.89 118.786 142.622 118.728 159.571 118.728C176.52 118.728 190.248 118.781 190.248 118.853Z" fill="#E0E0E0"/>
<path d="M190.248 113.587C190.248 113.654 176.51 113.712 159.571 113.712C142.632 113.712 128.89 113.654 128.89 113.587C128.89 113.52 142.622 113.462 159.571 113.462C176.52 113.462 190.248 113.52 190.248 113.587Z" fill="#E0E0E0"/>
<path d="M190.248 108.322C190.248 108.394 176.51 108.446 159.571 108.446C142.632 108.446 128.89 108.394 128.89 108.322C128.89 108.25 142.622 108.197 159.571 108.197C176.52 108.197 190.248 108.254 190.248 108.322Z" fill="#E0E0E0"/>
<path d="M190.248 103.056C190.248 103.128 176.51 103.181 159.571 103.181C142.632 103.181 128.89 103.128 128.89 103.056C128.89 102.984 142.622 102.931 159.571 102.931C176.52 102.931 190.248 102.989 190.248 103.056Z" fill="#E0E0E0"/>
<path d="M190.248 97.7952C190.248 97.8624 176.51 97.92 159.571 97.92C142.632 97.92 128.89 97.8624 128.89 97.7952C128.89 97.728 142.622 97.6704 159.571 97.6704C176.52 97.6704 190.248 97.7232 190.248 97.7952Z" fill="#E0E0E0"/>
<path d="M190.248 92.5296C190.248 92.5968 176.51 92.6544 159.571 92.6544C142.632 92.6544 128.89 92.5968 128.89 92.5296C128.89 92.4624 142.622 92.4048 159.571 92.4048C176.52 92.4048 190.248 92.4576 190.248 92.5296Z" fill="#E0E0E0"/>
<path d="M190.248 87.264C190.248 87.3312 176.51 87.3888 159.571 87.3888C142.632 87.3888 128.89 87.3312 128.89 87.264C128.89 87.1968 142.622 87.1392 159.571 87.1392C176.52 87.1392 190.248 87.1968 190.248 87.264Z" fill="#E0E0E0"/>
<path d="M190.248 81.9984C190.248 82.0704 176.51 82.1232 159.571 82.1232C142.632 82.1232 128.89 82.0704 128.89 81.9984C128.89 81.9264 142.622 81.8736 159.571 81.8736C176.52 81.8736 190.248 81.9312 190.248 81.9984Z" fill="#E0E0E0"/>
<path d="M190.248 76.7328C190.248 76.8048 176.51 76.8576 159.571 76.8576C142.632 76.8576 128.89 76.8048 128.89 76.7328C128.89 76.6608 142.622 76.608 159.571 76.608C176.52 76.608 190.248 76.6656 190.248 76.7328Z" fill="#E0E0E0"/>
<path d="M190.248 71.472C190.248 71.5392 176.51 71.5968 159.571 71.5968C142.632 71.5968 128.89 71.5392 128.89 71.472C128.89 71.4048 142.622 71.3472 159.571 71.3472C176.52 71.3472 190.248 71.4 190.248 71.472Z" fill="#E0E0E0"/>
<path d="M190.248 66.2064C190.248 66.2736 176.51 66.3312 159.571 66.3312C142.632 66.3312 128.89 66.2736 128.89 66.2064C128.89 66.1392 142.622 66.0816 159.571 66.0816C176.52 66.0816 190.248 66.1344 190.248 66.2064Z" fill="#E0E0E0"/>
<path d="M190.248 60.96C190.248 61.0272 176.51 61.0848 159.571 61.0848C142.632 61.0848 128.89 61.0272 128.89 60.96C128.89 60.8928 142.622 60.8352 159.571 60.8352C176.52 60.8352 190.248 60.8736 190.248 60.96Z" fill="#E0E0E0"/>
<path d="M190.248 160.968C190.248 161.04 176.51 161.093 159.571 161.093C142.632 161.093 128.89 161.04 128.89 160.968C128.89 160.896 142.622 160.843 159.571 160.843C176.52 160.843 190.248 160.901 190.248 160.968Z" fill="#E0E0E0"/>
<path d="M190.248 166.234C190.248 166.301 176.51 166.358 159.571 166.358C142.632 166.358 128.89 166.301 128.89 166.234C128.89 166.166 142.622 166.109 159.571 166.109C176.52 166.109 190.248 166.166 190.248 166.234Z" fill="#E0E0E0"/>
<path d="M190.248 171.499C190.248 171.566 176.51 171.624 159.571 171.624C142.632 171.624 128.89 171.566 128.89 171.499C128.89 171.432 142.622 171.374 159.571 171.374C176.52 171.374 190.248 171.427 190.248 171.499Z" fill="#E0E0E0"/>
<path d="M201.557 59.0208H131.026C128.976 59.0208 127.315 60.682 127.315 62.7312V142.272C127.315 144.321 128.976 145.982 131.026 145.982H201.557C203.606 145.982 205.267 144.321 205.267 142.272V62.7312C205.267 60.682 203.606 59.0208 201.557 59.0208Z" fill="white"/>
<path d="M201.552 145.982H201.763C201.97 145.969 202.176 145.938 202.378 145.891C203.176 145.703 203.89 145.256 204.408 144.619C204.783 144.15 205.041 143.599 205.162 143.011C205.239 142.292 205.261 141.569 205.229 140.846C205.229 139.267 205.229 137.453 205.229 135.408C205.229 127.219 205.205 115.378 205.186 100.747C205.186 93.432 205.186 85.416 205.186 76.8144C205.186 72.5104 205.186 68.0656 205.186 63.48C205.219 62.9149 205.174 62.3479 205.051 61.7952C204.905 61.2573 204.63 60.7631 204.25 60.3552C203.871 59.9286 203.395 59.5993 202.862 59.3952C202.319 59.203 201.743 59.1229 201.168 59.16H193.978H131.035C130.359 59.1615 129.696 59.3531 129.123 59.713C128.551 60.0728 128.09 60.5864 127.795 61.1952C127.513 61.8109 127.391 62.4878 127.44 63.1632V73.44C127.44 78.88 127.44 84.2336 127.44 89.5008C127.44 100.027 127.44 110.184 127.44 119.861C127.44 124.699 127.44 129.411 127.44 133.997C127.44 136.291 127.44 138.549 127.44 140.77C127.44 141.326 127.44 141.883 127.44 142.426C127.473 143.223 127.772 143.987 128.289 144.595C128.805 145.204 129.51 145.623 130.291 145.786C130.813 145.868 131.343 145.896 131.87 145.867H142.704H154.19L188.846 145.906L198.269 145.93H200.722C201.274 145.93 201.552 145.93 201.552 145.93H200.722H198.269L188.846 145.954L154.19 145.997H131.861C131.319 146.022 130.775 145.995 130.238 145.915C129.409 145.74 128.661 145.293 128.113 144.646C127.566 143.998 127.249 143.187 127.214 142.339C127.214 141.782 127.214 141.235 127.214 140.674C127.214 138.453 127.214 136.195 127.214 133.901C127.214 129.318 127.214 124.606 127.214 119.765C127.214 110.088 127.214 99.9312 127.214 89.4048V63.1488C127.165 62.4368 127.296 61.7238 127.594 61.0752C127.908 60.4271 128.398 59.8797 129.006 59.4947C129.615 59.1097 130.32 58.9023 131.04 58.896H193.982H201.12C201.722 58.8582 202.325 58.9448 202.891 59.1504C203.458 59.3604 203.964 59.7066 204.365 60.1584C204.77 60.5994 205.063 61.131 205.219 61.7088C205.346 62.2803 205.393 62.8667 205.358 63.4512C205.358 68.0368 205.358 72.4816 205.358 76.7856C205.358 85.3872 205.358 93.4032 205.358 100.718C205.358 115.349 205.33 127.19 205.32 135.379C205.32 137.424 205.32 139.237 205.32 140.818C205.348 141.545 205.321 142.273 205.238 142.997C205.111 143.593 204.845 144.15 204.461 144.624C203.934 145.265 203.207 145.71 202.397 145.886C202.193 145.931 201.986 145.956 201.778 145.963L201.552 145.982Z" fill="#263238"/>
<path d="M205.354 61.6944C205.19 61.0964 204.887 60.5456 204.47 60.0868C204.053 59.6281 203.533 59.2743 202.954 59.0544C202.372 58.8405 201.753 58.7505 201.134 58.7904H131.054C130.308 58.788 129.576 58.9974 128.944 59.3942C128.312 59.7909 127.806 60.3589 127.483 61.032C127.17 61.6965 127.035 62.4307 127.09 63.1632V140.779V141.365C127.09 141.725 127.09 142.085 127.09 142.45C127.118 143.034 127.272 143.605 127.541 144.125C127.812 144.634 128.191 145.079 128.652 145.426C129.113 145.774 129.645 146.016 130.21 146.136C130.526 146.199 130.847 146.228 131.17 146.222H131.424C131.565 146.222 131.704 146.222 131.842 146.222L188.827 146.165L198.25 146.141H200.702H201.538H201.744C201.962 146.134 202.179 146.106 202.392 146.059C203.229 145.879 203.979 145.419 204.518 144.754C204.916 144.265 205.192 143.689 205.325 143.074C205.397 142.58 205.423 142.08 205.402 141.581C205.402 141.35 205.402 141.101 205.402 140.875L205.45 100.776V76.8432V63.2208C205.491 62.71 205.459 62.1959 205.354 61.6944ZM127.315 99.9456V63.1488C127.264 62.4532 127.392 61.756 127.685 61.1232C127.985 60.497 128.456 59.9677 129.042 59.5952C129.628 59.2227 130.307 59.0221 131.002 59.016C130.308 59.0225 129.631 59.2229 129.046 59.5944C128.46 59.966 127.991 60.4938 127.69 61.1184C127.394 61.7488 127.267 62.445 127.32 63.1392L127.315 99.9456ZM205.046 142.973C204.929 143.541 204.679 144.074 204.317 144.528C203.816 145.143 203.126 145.575 202.354 145.757C202.157 145.804 201.956 145.834 201.754 145.848H201.552C201.499 145.848 201.221 145.848 200.722 145.848L188.846 145.81L154.19 145.771H131.866H131.434C131.056 145.79 130.677 145.764 130.306 145.694C129.548 145.535 128.866 145.128 128.366 144.536C127.867 143.945 127.58 143.204 127.55 142.43C127.55 142.08 127.55 141.725 127.55 141.37V140.774V63.1584C127.496 62.4992 127.615 61.8372 127.896 61.2384C128.176 60.6535 128.615 60.159 129.162 59.8111C129.71 59.4632 130.344 59.2759 130.992 59.2704H131.04H201.149C201.708 59.2314 202.269 59.3099 202.795 59.5008C203.306 59.6963 203.763 60.0087 204.13 60.4131C204.498 60.8174 204.766 61.3023 204.912 61.8288C205.024 62.2887 205.068 62.7626 205.042 63.2352V99.5376L205.085 135.408V140.842C205.085 141.086 205.085 141.322 205.085 141.557C205.116 142.029 205.103 142.503 205.046 142.973Z" fill="#263238"/>
<path d="M137.611 120.226H138.293V122.626H139.766V123.182H137.611V120.226Z" fill="#263238"/>
<path d="M140.026 120.226C140.027 120.174 140.038 120.124 140.06 120.077C140.081 120.031 140.112 119.989 140.15 119.955C140.189 119.92 140.234 119.894 140.282 119.878C140.331 119.862 140.383 119.856 140.434 119.861C140.484 119.855 140.535 119.859 140.583 119.874C140.632 119.889 140.676 119.913 140.715 119.946C140.753 119.979 140.784 120.02 140.806 120.065C140.828 120.111 140.84 120.161 140.842 120.211C140.842 120.319 140.799 120.423 140.722 120.5C140.646 120.576 140.542 120.619 140.434 120.619C140.325 120.619 140.222 120.576 140.145 120.5C140.069 120.423 140.026 120.319 140.026 120.211V120.226ZM140.107 120.907H140.76V123.168H140.107V120.907Z" fill="#263238"/>
<path d="M143.683 121.872V123.168H143.04V121.973C143.04 121.608 142.872 121.44 142.56 121.44C142.248 121.44 142.018 121.632 142.018 122.05V123.168H141.365V120.907H141.989V121.171C142.086 121.072 142.203 120.995 142.332 120.943C142.461 120.892 142.599 120.868 142.738 120.874C142.869 120.863 143.001 120.882 143.124 120.929C143.247 120.977 143.358 121.051 143.449 121.147C143.54 121.242 143.608 121.357 143.648 121.483C143.689 121.608 143.701 121.741 143.683 121.872Z" fill="#263238"/>
<path d="M145.253 122.28L144.936 122.592V123.168H144.278V120.048H144.96V121.814L145.92 120.907H146.698L145.738 121.867L146.765 123.173H145.968L145.253 122.28Z" fill="#263238"/>
<path d="M136.186 69.5568L136.406 69.0768C136.681 69.2689 137.007 69.3727 137.342 69.3744C137.726 69.3744 137.885 69.2448 137.885 69.072C137.885 68.5392 136.243 68.904 136.243 67.8528C136.243 67.3728 136.627 66.9696 137.434 66.9696C137.779 66.963 138.119 67.051 138.418 67.224L138.216 67.704C137.977 67.5644 137.706 67.4884 137.429 67.4832C137.04 67.4832 136.891 67.6272 136.891 67.8048C136.891 68.328 138.538 67.968 138.538 69.0096C138.538 69.4896 138.144 69.8832 137.338 69.8832C136.929 69.8954 136.527 69.7814 136.186 69.5568Z" fill="#263238"/>
<path d="M141.163 68.592V69.8352H140.534V68.688C140.534 68.3376 140.371 68.1744 140.093 68.1744C139.814 68.1744 139.57 68.3616 139.57 68.76V69.8352H138.941V66.8352H139.57V67.8864C139.662 67.7997 139.771 67.7322 139.889 67.6877C140.008 67.6432 140.134 67.6227 140.261 67.6272C140.387 67.619 140.513 67.6389 140.631 67.6854C140.748 67.7319 140.854 67.8039 140.94 67.8962C141.027 67.9884 141.091 68.0987 141.13 68.219C141.168 68.3394 141.18 68.4667 141.163 68.592Z" fill="#263238"/>
<path d="M143.659 68.5968V69.8352H143.069V69.5664C142.995 69.6711 142.895 69.7543 142.779 69.8075C142.662 69.8607 142.534 69.8818 142.406 69.8688C141.893 69.8688 141.59 69.5856 141.59 69.2112C141.59 68.8368 141.864 68.5584 142.526 68.5584H143.006C143.006 68.2896 142.848 68.1312 142.526 68.1312C142.301 68.1294 142.08 68.2001 141.898 68.3328L141.672 67.8912C141.958 67.709 142.293 67.6171 142.632 67.6272C143.275 67.6272 143.659 67.9344 143.659 68.5968ZM143.04 69.1488V68.928H142.608C142.315 68.928 142.219 69.0336 142.219 69.1824C142.219 69.3312 142.354 69.4464 142.574 69.4464C142.673 69.4508 142.771 69.4246 142.854 69.3713C142.938 69.318 143.002 69.2403 143.04 69.1488Z" fill="#263238"/>
<path d="M145.579 67.6272V68.2128H145.435C145.355 68.2055 145.275 68.2164 145.199 68.2446C145.124 68.2729 145.056 68.3178 145.001 68.3759C144.946 68.4341 144.904 68.504 144.879 68.5805C144.855 68.657 144.848 68.738 144.859 68.8176V69.8448H144.226V67.68H144.83V67.968C144.918 67.8544 145.032 67.7639 145.162 67.7045C145.293 67.6451 145.436 67.6185 145.579 67.6272Z" fill="#263238"/>
<path d="M148.051 68.928H146.4C146.435 69.0633 146.517 69.1816 146.631 69.2617C146.746 69.3418 146.885 69.3784 147.024 69.3648C147.125 69.3677 147.225 69.3505 147.319 69.3142C147.413 69.278 147.499 69.2234 147.571 69.1536L147.902 69.5184C147.732 69.6817 147.52 69.7943 147.289 69.8434C147.058 69.8925 146.818 69.8763 146.596 69.7964C146.374 69.7166 146.179 69.5764 146.032 69.3916C145.886 69.2068 145.794 68.9847 145.766 68.7504C145.764 68.599 145.793 68.4488 145.851 68.309C145.909 68.1693 145.995 68.0428 146.104 67.9376C146.213 67.8324 146.342 67.7506 146.484 67.6972C146.626 67.6438 146.777 67.62 146.928 67.6272C147.078 67.6196 147.228 67.6436 147.368 67.6976C147.509 67.7516 147.636 67.8345 147.742 67.9407C147.849 68.047 147.932 68.1744 147.986 68.3147C148.04 68.455 148.064 68.6051 148.056 68.7552C148.061 68.8032 148.056 68.8752 148.051 68.928ZM146.395 68.5584H147.47C147.447 68.4332 147.38 68.3202 147.282 68.239C147.184 68.1577 147.06 68.1132 146.933 68.1132C146.805 68.1132 146.682 68.1577 146.584 68.239C146.486 68.3202 146.419 68.4332 146.395 68.5584Z" fill="#263238"/>
<path d="M193.282 126.139H138.792C135.462 126.139 132.763 128.838 132.763 132.168V132.715C132.763 136.045 135.462 138.744 138.792 138.744H193.282C196.611 138.744 199.31 136.045 199.31 132.715V132.168C199.31 128.838 196.611 126.139 193.282 126.139Z" fill="#EBEBEB"/>
<path d="M200.678 70.368C205.386 70.368 209.203 66.5513 209.203 61.8432C209.203 57.1351 205.386 53.3184 200.678 53.3184C195.97 53.3184 192.154 57.1351 192.154 61.8432C192.154 66.5513 195.97 70.368 200.678 70.368Z" fill="#3583F0"/>
<path d="M204.201 59.4647L202.993 58.2564L197.579 63.67L198.787 64.8783L204.201 59.4647Z" fill="white"/>
<path d="M198.785 58.2532L197.576 59.4615L202.99 64.8751L204.198 63.6668L198.785 58.2532Z" fill="white"/>
<path d="M192.178 131.395H189.614C189.307 131.395 189.058 131.644 189.058 131.952V134.515C189.058 134.823 189.307 135.072 189.614 135.072H192.178C192.485 135.072 192.734 134.823 192.734 134.515V131.952C192.734 131.644 192.485 131.395 192.178 131.395Z" fill="#263238"/>
<path d="M193.766 129.806H191.203C190.896 129.806 190.646 130.056 190.646 130.363V132.926C190.646 133.234 190.896 133.483 191.203 133.483H193.766C194.074 133.483 194.323 133.234 194.323 132.926V130.363C194.323 130.056 194.074 129.806 193.766 129.806Z" fill="#EBEBEB"/>
<path d="M193.766 133.728H191.203C190.991 133.727 190.789 133.642 190.639 133.492C190.49 133.341 190.406 133.138 190.406 132.926V130.363C190.408 130.152 190.492 129.95 190.641 129.801C190.79 129.652 190.992 129.568 191.203 129.566H193.766C193.978 129.566 194.18 129.65 194.33 129.8C194.479 129.949 194.563 130.152 194.563 130.363V132.926C194.564 133.031 194.544 133.136 194.504 133.233C194.464 133.33 194.406 133.418 194.332 133.493C194.257 133.567 194.169 133.627 194.072 133.667C193.975 133.707 193.871 133.728 193.766 133.728ZM191.203 130.046C191.12 130.048 191.04 130.081 190.981 130.141C190.921 130.2 190.888 130.28 190.886 130.363V132.926C190.886 133.011 190.92 133.092 190.979 133.152C191.038 133.212 191.119 133.247 191.203 133.248H193.766C193.808 133.248 193.85 133.24 193.889 133.223C193.927 133.207 193.963 133.183 193.992 133.153C194.022 133.124 194.045 133.088 194.06 133.049C194.076 133.01 194.084 132.968 194.083 132.926V130.363C194.083 130.322 194.075 130.28 194.059 130.242C194.043 130.204 194.02 130.169 193.99 130.139C193.961 130.11 193.926 130.086 193.888 130.07C193.849 130.055 193.808 130.046 193.766 130.046H191.203Z" fill="#263238"/>
<path d="M142.128 132.48V133.848H141.437V132.576C141.437 132.192 141.259 132.014 140.957 132.014C140.654 132.014 140.386 132.216 140.386 132.658V133.838H139.68V130.56H140.371V131.712C140.472 131.617 140.592 131.543 140.722 131.494C140.852 131.445 140.991 131.423 141.13 131.429C141.267 131.423 141.404 131.446 141.531 131.497C141.659 131.549 141.774 131.627 141.868 131.727C141.963 131.826 142.035 131.945 142.08 132.075C142.125 132.205 142.141 132.343 142.128 132.48Z" fill="#263238"/>
<path d="M144.293 133.723C144.125 133.828 143.929 133.88 143.731 133.872C143.613 133.888 143.493 133.878 143.38 133.842C143.267 133.805 143.164 133.743 143.078 133.661C142.992 133.579 142.926 133.478 142.884 133.367C142.843 133.255 142.827 133.136 142.838 133.018V132.034H142.469V131.52H142.838V130.939H143.52V131.52H144.115V132.053H143.52V133.013C143.515 133.054 143.519 133.095 143.532 133.135C143.545 133.174 143.566 133.21 143.595 133.239C143.623 133.269 143.658 133.292 143.697 133.307C143.735 133.322 143.776 133.328 143.818 133.325C143.917 133.326 144.014 133.295 144.096 133.238L144.293 133.723Z" fill="#263238"/>
<path d="M146.17 133.723C146.001 133.828 145.806 133.88 145.608 133.872C145.49 133.888 145.37 133.878 145.257 133.842C145.144 133.805 145.04 133.743 144.955 133.661C144.869 133.579 144.802 133.478 144.761 133.367C144.72 133.255 144.704 133.136 144.715 133.018V132.034H144.346V131.52H144.715V130.939H145.406V131.52H146.002V132.053H145.406V133.013C145.401 133.054 145.405 133.095 145.418 133.135C145.431 133.174 145.453 133.21 145.481 133.239C145.51 133.269 145.544 133.292 145.583 133.307C145.621 133.322 145.663 133.328 145.704 133.325C145.805 133.327 145.904 133.296 145.987 133.238L146.17 133.723Z" fill="#263238"/>
<path d="M149.165 132.643C149.174 132.804 149.15 132.964 149.094 133.115C149.038 133.266 148.951 133.404 148.84 133.519C148.728 133.635 148.593 133.726 148.444 133.786C148.295 133.847 148.135 133.876 147.974 133.872C147.841 133.879 147.707 133.857 147.583 133.807C147.458 133.758 147.346 133.681 147.254 133.584V134.698H146.563V131.448H147.221V131.726C147.315 131.621 147.431 131.538 147.562 131.483C147.692 131.429 147.833 131.406 147.974 131.414C148.135 131.41 148.295 131.439 148.444 131.5C148.593 131.561 148.728 131.652 148.84 131.767C148.951 131.883 149.038 132.02 149.094 132.171C149.15 132.322 149.174 132.483 149.165 132.643ZM148.459 132.643C148.449 132.525 148.405 132.413 148.331 132.32C148.258 132.226 148.16 132.157 148.048 132.119C147.935 132.081 147.815 132.076 147.7 132.106C147.585 132.135 147.482 132.197 147.402 132.285C147.322 132.372 147.269 132.481 147.25 132.598C147.231 132.715 147.247 132.835 147.295 132.943C147.343 133.051 147.421 133.143 147.521 133.208C147.62 133.272 147.736 133.306 147.854 133.306C147.939 133.307 148.023 133.29 148.101 133.256C148.179 133.223 148.248 133.173 148.306 133.11C148.363 133.048 148.406 132.974 148.432 132.893C148.459 132.813 148.468 132.727 148.459 132.643Z" fill="#263238"/>
<path d="M149.395 133.613L149.626 133.133C149.877 133.281 150.164 133.361 150.456 133.363C150.773 133.363 150.893 133.277 150.893 133.147C150.893 132.754 149.453 133.147 149.453 132.187C149.453 131.731 149.861 131.414 150.557 131.414C150.875 131.406 151.19 131.477 151.474 131.621L151.243 132.101C151.034 131.982 150.797 131.921 150.557 131.923C150.245 131.923 150.11 132.019 150.11 132.144C150.11 132.552 151.55 132.144 151.55 133.104C151.55 133.546 151.138 133.862 150.422 133.862C150.064 133.872 149.709 133.786 149.395 133.613Z" fill="#263238"/>
<path d="M151.81 131.842C151.81 131.727 151.855 131.617 151.936 131.536C152.017 131.455 152.127 131.41 152.242 131.41C152.356 131.41 152.466 131.455 152.547 131.536C152.628 131.617 152.674 131.727 152.674 131.842C152.674 131.956 152.628 132.066 152.547 132.147C152.466 132.228 152.356 132.274 152.242 132.274C152.127 132.274 152.017 132.228 151.936 132.147C151.855 132.066 151.81 131.956 151.81 131.842ZM151.81 133.435C151.81 133.321 151.855 133.211 151.936 133.13C152.017 133.049 152.127 133.003 152.242 133.003C152.356 133.003 152.466 133.049 152.547 133.13C152.628 133.211 152.674 133.321 152.674 133.435C152.674 133.55 152.628 133.66 152.547 133.741C152.466 133.822 152.356 133.867 152.242 133.867C152.127 133.867 152.017 133.822 151.936 133.741C151.855 133.66 151.81 133.55 151.81 133.435Z" fill="#263238"/>
<path d="M154.378 130.08H154.992L153.552 134.261H152.938L154.378 130.08Z" fill="#263238"/>
<path d="M155.794 130.08H156.408L154.944 134.261H154.33L155.794 130.08Z" fill="#263238"/>
<path d="M160.234 131.448L159.37 133.848H158.702L158.165 132.365L157.613 133.848H156.96L156.101 131.448H156.754L157.315 133.066L157.901 131.448H158.486L159.058 133.066L159.638 131.448H160.234Z" fill="#263238"/>
<path d="M164.338 131.448L163.469 133.848H162.806L162.269 132.365L161.712 133.848H161.045L160.186 131.448H160.838L161.405 133.066L161.99 131.448H162.576L163.142 133.066L163.723 131.448H164.338Z" fill="#263238"/>
<path d="M168.437 131.448L167.573 133.848H166.906L166.368 132.365L165.816 133.848H165.149L164.285 131.448H164.938L165.504 133.066L166.09 131.448H166.675L167.242 133.066L167.822 131.448H168.437Z" fill="#263238"/>
<path d="M168.451 133.44C168.462 133.334 168.512 133.236 168.592 133.164C168.671 133.093 168.774 133.053 168.881 133.053C168.987 133.053 169.09 133.093 169.17 133.164C169.249 133.236 169.299 133.334 169.31 133.44C169.317 133.5 169.31 133.561 169.292 133.619C169.273 133.676 169.242 133.729 169.202 133.774C169.161 133.819 169.112 133.855 169.057 133.88C169.001 133.905 168.941 133.917 168.881 133.917C168.82 133.917 168.76 133.905 168.705 133.88C168.65 133.855 168.6 133.819 168.56 133.774C168.519 133.729 168.488 133.676 168.47 133.619C168.451 133.561 168.445 133.5 168.451 133.44Z" fill="#263238"/>
<path d="M169.613 133.44C169.624 133.334 169.674 133.236 169.753 133.164C169.833 133.093 169.936 133.053 170.042 133.053C170.149 133.053 170.252 133.093 170.331 133.164C170.411 133.236 170.461 133.334 170.472 133.44C170.478 133.5 170.472 133.561 170.453 133.619C170.435 133.676 170.404 133.729 170.363 133.774C170.323 133.819 170.273 133.855 170.218 133.88C170.163 133.905 170.103 133.917 170.042 133.917C169.982 133.917 169.922 133.905 169.867 133.88C169.811 133.855 169.762 133.819 169.721 133.774C169.681 133.729 169.65 133.676 169.631 133.619C169.613 133.561 169.606 133.5 169.613 133.44Z" fill="#263238"/>
<path d="M170.774 133.44C170.774 133.325 170.82 133.216 170.901 133.135C170.982 133.054 171.092 133.008 171.206 133.008C171.321 133.008 171.431 133.054 171.512 133.135C171.593 133.216 171.638 133.325 171.638 133.44C171.638 133.555 171.593 133.664 171.512 133.745C171.431 133.826 171.321 133.872 171.206 133.872C171.092 133.872 170.982 133.826 170.901 133.745C170.82 133.664 170.774 133.555 170.774 133.44Z" fill="#263238"/>
<path d="M203.52 115.128C203.52 115.2 186.979 115.258 166.56 115.258C146.141 115.258 129.624 115.2 129.624 115.128C129.624 115.056 146.16 115.003 166.56 115.003C186.96 115.003 203.52 115.061 203.52 115.128Z" fill="#E0E0E0"/>
<path d="M165.302 88.656C169.001 88.656 171.998 85.6581 171.998 81.96C171.998 78.2619 169.001 75.264 165.302 75.264C161.604 75.264 158.606 78.2619 158.606 81.96C158.606 85.6581 161.604 88.656 165.302 88.656Z" fill="#3583F0"/>
<path d="M186.787 88.656C190.485 88.656 193.483 85.6581 193.483 81.96C193.483 78.2619 190.485 75.264 186.787 75.264C183.089 75.264 180.091 78.2619 180.091 81.96C180.091 85.6581 183.089 88.656 186.787 88.656Z" fill="#3583F0"/>
<path d="M143.534 88.656C147.232 88.656 150.23 85.6581 150.23 81.96C150.23 78.2619 147.232 75.264 143.534 75.264C139.836 75.264 136.838 78.2619 136.838 81.96C136.838 85.6581 139.836 88.656 143.534 88.656Z" fill="#3583F0"/>
<path d="M165.413 108.662C169.111 108.662 172.109 105.664 172.109 101.966C172.109 98.2683 169.111 95.2704 165.413 95.2704C161.715 95.2704 158.717 98.2683 158.717 101.966C158.717 105.664 161.715 108.662 165.413 108.662Z" fill="#3583F0"/>
<path d="M161.645 102.125L163.248 102.605L164.208 104.525L165.168 103.757L166.608 104.899C166.716 104.931 166.833 104.92 166.933 104.868C167.033 104.816 167.109 104.728 167.146 104.621C167.294 104.232 168.485 99.5472 168.485 99.5472C168.485 99.5472 168.648 99.0672 168.058 99.2352L161.702 101.606C161.655 101.622 161.612 101.648 161.577 101.683C161.542 101.718 161.516 101.761 161.501 101.808C161.483 101.837 161.473 101.871 161.471 101.905C161.469 101.939 161.475 101.973 161.49 102.004C161.504 102.035 161.525 102.063 161.552 102.084C161.579 102.105 161.611 102.119 161.645 102.125Z" fill="white"/>
<path d="M163.594 102.446L164.261 104.021C164.261 104.021 164.371 103.061 164.386 103.061L167.17 100.45L163.594 102.446Z" fill="#3583F0"/>
<path d="M186.787 108.485C190.485 108.485 193.483 105.487 193.483 101.789C193.483 98.0907 190.485 95.0928 186.787 95.0928C183.089 95.0928 180.091 98.0907 180.091 101.789C180.091 105.487 183.089 108.485 186.787 108.485Z" fill="#3583F0"/>
<path d="M143.534 108.485C147.232 108.485 150.23 105.487 150.23 101.789C150.23 98.0907 147.232 95.0928 143.534 95.0928C139.836 95.0928 136.838 98.0907 136.838 101.789C136.838 105.487 139.836 108.485 143.534 108.485Z" fill="#3583F0"/>
<path d="M140.088 84.1248C140.709 84.524 141.429 84.7444 142.167 84.7619C142.905 84.7794 143.634 84.5932 144.274 84.2238C144.913 83.8545 145.439 83.3162 145.793 82.6679C146.147 82.0197 146.315 81.2865 146.28 80.5488C146.558 80.3514 146.798 80.104 146.986 79.8192C146.727 79.9321 146.454 80.0065 146.174 80.04C146.471 79.8645 146.693 79.5861 146.798 79.2576C146.52 79.4224 146.214 79.5377 145.896 79.5984C145.681 79.3759 145.4 79.2298 145.094 79.1824C144.789 79.135 144.476 79.1888 144.204 79.3357C143.932 79.4826 143.716 79.7144 143.588 79.9959C143.46 80.2773 143.428 80.5929 143.496 80.8944C142.933 80.8662 142.382 80.7195 141.879 80.4639C141.376 80.2084 140.932 79.8496 140.578 79.4112C140.402 79.7241 140.349 80.0916 140.429 80.4414C140.51 80.7913 140.719 81.0984 141.014 81.3024C140.789 81.2958 140.568 81.2349 140.371 81.1248C140.372 81.4539 140.485 81.773 140.692 82.0289C140.899 82.2848 141.187 82.4621 141.509 82.5312C141.301 82.5898 141.082 82.5981 140.87 82.5552C140.963 82.8326 141.14 83.0742 141.377 83.2463C141.613 83.4183 141.898 83.5123 142.19 83.5152C141.898 83.7512 141.561 83.9267 141.2 84.0313C140.84 84.136 140.461 84.1678 140.088 84.1248Z" fill="white"/>
<path d="M164.261 85.5312H165.701V81.9264H166.704L166.81 80.7216H165.701V80.0352C165.701 79.752 165.754 79.6368 166.032 79.6368H166.81V78.3888H165.811C164.741 78.3888 164.261 78.8688 164.261 79.7616V80.7216H163.512V81.9408H164.261V85.5312Z" fill="white"/>
<path fill-rule="evenodd" clip-rule="evenodd" d="M190.805 81.4992C190.766 80.5393 190.359 79.6312 189.669 78.9628C188.979 78.2944 188.058 77.9169 187.098 77.9082C186.137 77.8996 185.21 78.2606 184.508 78.9165C183.806 79.5723 183.383 80.4729 183.326 81.432V81.6C183.324 82.2768 183.508 82.9413 183.859 83.52L183.187 85.512L185.256 84.8544C185.81 85.1635 186.432 85.3285 187.066 85.3344C187.555 85.3369 188.04 85.2429 188.494 85.0577C188.947 84.8726 189.359 84.5999 189.707 84.2553C190.055 83.9107 190.331 83.5009 190.52 83.0494C190.709 82.5979 190.808 82.1135 190.81 81.624C190.812 81.5823 190.811 81.5405 190.805 81.4992ZM187.066 84.7152C186.451 84.718 185.849 84.5375 185.338 84.1968L184.128 84.5856L184.517 83.424C184.129 82.893 183.921 82.2525 183.922 81.5952C183.922 81.4896 183.922 81.3888 183.922 81.288C183.998 80.505 184.364 79.779 184.95 79.2532C185.535 78.7275 186.296 78.4401 187.082 78.448C187.869 78.4558 188.624 78.7582 189.198 79.2955C189.773 79.8329 190.125 80.566 190.186 81.3504C190.191 81.4319 190.191 81.5136 190.186 81.5952C190.181 82.4211 189.85 83.2118 189.266 83.7958C188.682 84.3798 187.892 84.7101 187.066 84.7152Z" fill="white"/>
<path fill-rule="evenodd" clip-rule="evenodd" d="M188.779 82.344C188.688 82.296 188.237 82.0752 188.155 82.0464C188.074 82.0176 188.006 82.0032 187.949 82.0944C187.891 82.1856 187.709 82.3872 187.656 82.4496C187.603 82.512 187.55 82.5168 187.459 82.4496C187.187 82.3453 186.937 82.1924 186.72 81.9984C186.519 81.816 186.348 81.604 186.211 81.3696C186.158 81.2784 186.211 81.2304 186.25 81.1872C186.288 81.144 186.341 81.0768 186.389 81.024L186.422 80.9808L186.48 80.8752C186.493 80.85 186.5 80.822 186.5 80.7936C186.5 80.7652 186.493 80.7372 186.48 80.712L186.197 80.04C186.125 79.8576 186.048 79.8864 185.99 79.8864H185.818C185.771 79.8876 185.725 79.8984 185.683 79.9183C185.641 79.9381 185.603 79.9665 185.573 80.0016C185.469 80.0982 185.386 80.2157 185.331 80.3464C185.276 80.4771 185.248 80.6181 185.251 80.76C185.253 80.8657 185.269 80.9707 185.299 81.072C185.37 81.2993 185.48 81.5122 185.626 81.7008C186.006 82.3049 186.553 82.7865 187.2 83.088C188.16 83.448 188.16 83.328 188.304 83.3136C188.432 83.2891 188.553 83.238 188.66 83.1635C188.766 83.0891 188.856 82.993 188.923 82.8816C188.984 82.7462 189.002 82.5956 188.976 82.4496C188.933 82.4112 188.87 82.3872 188.779 82.344Z" fill="white"/>
<path d="M143.52 98.9952C144.403 98.9952 144.509 98.9952 144.854 98.9952C145.064 98.9982 145.271 99.0355 145.469 99.1056C145.612 99.1606 145.741 99.2457 145.848 99.3552C145.958 99.4611 146.041 99.5909 146.093 99.7344C146.168 99.9289 146.207 100.135 146.208 100.344C146.208 100.694 146.208 100.795 146.208 101.678C146.208 102.562 146.208 102.638 146.208 103.013C146.207 103.221 146.168 103.428 146.093 103.622C146.041 103.766 145.958 103.896 145.848 104.002C145.741 104.111 145.612 104.196 145.469 104.251C145.271 104.321 145.064 104.359 144.854 104.362C144.509 104.362 144.403 104.362 143.52 104.362C142.637 104.362 142.56 104.362 142.19 104.362C141.981 104.359 141.773 104.321 141.576 104.251C141.433 104.196 141.304 104.111 141.197 104.002C141.087 103.896 141.003 103.766 140.952 103.622C140.877 103.428 140.838 103.221 140.837 103.013C140.837 102.662 140.837 102.533 140.837 101.678C140.837 100.824 140.837 100.694 140.837 100.344C140.838 100.135 140.877 99.9289 140.952 99.7344C141.003 99.5909 141.087 99.4611 141.197 99.3552C141.304 99.2457 141.433 99.1606 141.576 99.1056C141.773 99.0355 141.981 98.9982 142.19 98.9952C142.536 98.9952 142.642 98.9952 143.52 98.9952ZM143.52 98.4C142.627 98.4 142.512 98.4 142.162 98.4C141.888 98.4051 141.616 98.457 141.36 98.5536C141.14 98.6364 140.94 98.7658 140.774 98.9328C140.608 99.0989 140.479 99.2985 140.395 99.5184C140.3 99.7754 140.248 100.046 140.242 100.32C140.242 100.67 140.242 100.8 140.242 101.678C140.242 102.557 140.242 102.686 140.242 103.037C140.249 103.311 140.301 103.581 140.395 103.838C140.479 104.058 140.608 104.258 140.774 104.424C140.94 104.591 141.14 104.72 141.36 104.803C141.616 104.9 141.888 104.952 142.162 104.957C142.512 104.957 142.642 104.957 143.52 104.957C144.398 104.957 144.528 104.957 144.883 104.957C145.157 104.952 145.428 104.9 145.685 104.803C145.904 104.721 146.102 104.592 146.266 104.424C146.433 104.258 146.564 104.058 146.65 103.838C146.744 103.581 146.796 103.311 146.803 103.037C146.803 102.686 146.803 102.557 146.803 101.678C146.803 100.8 146.803 100.67 146.803 100.32C146.796 100.046 146.744 99.7754 146.65 99.5184C146.564 99.2983 146.433 99.0988 146.266 98.9328C146.102 98.7649 145.904 98.6354 145.685 98.5536C145.428 98.457 145.157 98.4051 144.883 98.4C144.528 98.4 144.403 98.4 143.52 98.4Z" fill="white"/>
<path d="M143.52 100.003C143.185 100.003 142.857 100.103 142.579 100.289C142.3 100.475 142.083 100.74 141.955 101.049C141.826 101.359 141.793 101.699 141.858 102.028C141.923 102.357 142.085 102.659 142.322 102.896C142.559 103.133 142.861 103.294 143.189 103.359C143.518 103.425 143.859 103.391 144.168 103.263C144.478 103.135 144.743 102.918 144.929 102.639C145.115 102.36 145.214 102.033 145.214 101.698C145.213 101.249 145.034 100.818 144.717 100.501C144.399 100.183 143.969 100.004 143.52 100.003ZM143.52 102.797C143.303 102.797 143.09 102.732 142.909 102.612C142.729 102.491 142.588 102.319 142.504 102.118C142.421 101.917 142.399 101.696 142.442 101.483C142.484 101.27 142.589 101.074 142.743 100.92C142.896 100.767 143.092 100.662 143.306 100.619C143.519 100.577 143.74 100.599 143.941 100.682C144.141 100.765 144.313 100.906 144.434 101.087C144.555 101.268 144.619 101.48 144.619 101.698C144.618 101.989 144.502 102.268 144.296 102.473C144.09 102.679 143.811 102.796 143.52 102.797Z" fill="white"/>
<path d="M145.694 99.936C145.695 100.015 145.673 100.092 145.63 100.159C145.586 100.225 145.524 100.277 145.452 100.307C145.379 100.338 145.299 100.347 145.221 100.332C145.144 100.317 145.072 100.28 145.016 100.224C144.96 100.169 144.921 100.098 144.906 100.02C144.89 99.9429 144.897 99.8625 144.927 99.7895C144.957 99.7164 145.009 99.6539 145.074 99.6099C145.14 99.5659 145.217 99.5424 145.296 99.5424C145.401 99.5424 145.501 99.5837 145.576 99.6574C145.651 99.7311 145.693 99.8312 145.694 99.936Z" fill="white"/>
<path d="M190.027 104.443H183.547V99.504H190.027V104.443ZM184.018 103.963H189.552V99.9696H184.018V103.963Z" fill="white"/>
<path d="M186.883 102.504L183.634 99.9264L183.926 99.5568L186.874 101.894L189.638 99.5616L189.941 99.9216L186.883 102.504Z" fill="white"/>
<path d="M186.005 101.471L183.611 103.882L183.945 104.214L186.339 101.802L186.005 101.471Z" fill="white"/>
<path d="M186.822 101.871L186.46 102.168L188.549 104.722L188.912 104.425L186.822 101.871Z" fill="white"/>
<path d="M66.9505 113.16L60.2785 111.662C56.1264 114.218 51.1685 115.129 46.3792 114.215C41.5898 113.302 37.3154 110.63 34.3961 106.725C31.4767 102.819 30.1236 97.9636 30.6026 93.1115C31.0816 88.2593 33.3581 83.7618 36.9847 80.5029C40.6113 77.244 45.3257 75.4593 50.2013 75.4998C55.0768 75.5402 59.761 77.4028 63.333 80.7214C66.9051 84.04 69.1067 88.5746 69.5052 93.4341C69.9036 98.2935 68.4702 103.126 65.4865 106.982L66.9505 113.16Z" fill="white"/>
<path d="M66.9504 113.16C66.9504 113.16 66.912 113.021 66.8448 112.752C66.7776 112.483 66.6816 112.08 66.552 111.566C66.3024 110.52 65.928 108.984 65.4432 106.987L65.5248 107.016C65.5199 107.021 65.5139 107.025 65.5073 107.028C65.5007 107.031 65.4936 107.033 65.4864 107.033C65.4792 107.033 65.4721 107.031 65.4655 107.028C65.4589 107.025 65.453 107.021 65.448 107.016C65.441 107.006 65.4372 106.994 65.4372 106.982C65.4372 106.97 65.441 106.959 65.448 106.949C67.4287 104.374 68.7339 101.344 69.2448 98.136C69.4045 97.1391 69.4847 96.1312 69.4848 95.1216C69.4716 94.0376 69.377 92.9562 69.2016 91.8864C68.5507 88.0221 66.7502 84.4437 64.0351 81.6181C61.3199 78.7925 57.8161 76.8508 53.9808 76.0464C51.0445 75.4665 48.015 75.5601 45.12 76.32C42.0673 77.0992 39.2606 78.6363 36.96 80.7888C36.38 81.3143 35.8348 81.8771 35.328 82.4736C35.0679 82.7624 34.8258 83.067 34.6032 83.3856C34.3776 83.7024 34.1232 84 33.9216 84.3456L33.3216 85.3296L33.024 85.8096L32.7744 86.328C32.6064 86.6688 32.4432 87.0144 32.2944 87.3552C32.1456 87.696 32.0256 88.0656 31.8912 88.416C30.9794 90.9267 30.5955 93.5986 30.7636 96.2644C30.9318 98.9303 31.6483 101.533 32.8684 103.909C34.0885 106.285 35.7859 108.384 37.8544 110.074C39.9229 111.764 42.3179 113.009 44.8896 113.731L45.6912 113.938C45.9503 114.016 46.2151 114.073 46.4832 114.11L48.0576 114.355C49.06 114.441 50.0664 114.469 51.072 114.442C54.3277 114.285 57.4918 113.313 60.2736 111.614C60.2876 111.61 60.3028 111.61 60.3168 111.614L65.256 112.757L66.5328 113.059L66.9744 113.165L66.552 113.078L65.28 112.8L60.288 111.715H60.3264C57.5336 113.44 54.3502 114.43 51.072 114.595C50.0586 114.626 49.0442 114.601 48.0336 114.518L46.4448 114.278C46.1736 114.242 45.9056 114.184 45.6432 114.106L44.8368 113.899C42.2271 113.185 39.7939 111.937 37.6912 110.235C35.5885 108.532 33.862 106.412 32.6209 104.007C31.3798 101.603 30.6511 98.9677 30.4809 96.2675C30.3107 93.5672 30.7026 90.861 31.632 88.32C31.7712 87.96 31.8816 87.5904 32.0448 87.2448L32.5248 86.1984L32.7744 85.6752L33.0768 85.1952L33.6864 84.1968C33.8976 83.8656 34.1664 83.5632 34.3776 83.2368C34.6029 82.9143 34.8465 82.605 35.1072 82.3104C35.6209 81.7063 36.1741 81.1371 36.7632 80.6064C39.0859 78.4258 41.9228 76.8686 45.0096 76.08C47.9476 75.3122 51.0214 75.2203 54 75.8112C56.6908 76.3804 59.2332 77.5047 61.4648 79.1122C63.6963 80.7198 65.568 82.7752 66.96 85.1472C68.1668 87.2204 68.9804 89.4986 69.36 91.8672C69.5323 92.9469 69.6238 94.0379 69.6336 95.1312C69.6123 99.4436 68.1604 103.627 65.5056 107.026L65.4288 106.949C65.4333 106.944 65.4389 106.94 65.4451 106.937C65.4513 106.934 65.458 106.933 65.4648 106.933C65.4716 106.933 65.4784 106.934 65.4846 106.937C65.4908 106.94 65.4963 106.944 65.5008 106.949C65.9568 108.97 66.312 110.52 66.552 111.581C66.672 112.094 66.7584 112.483 66.8208 112.757C66.8832 113.03 66.9504 113.16 66.9504 113.16Z" fill="#263238"/>
<path d="M55.104 100.738H45.024C44.9383 100.738 44.8534 100.721 44.7742 100.688C44.695 100.655 44.623 100.607 44.5624 100.546C44.5018 100.486 44.4537 100.414 44.4209 100.335C44.3881 100.255 44.3712 100.171 44.3712 100.085V92.4048C44.3712 92.2317 44.44 92.0656 44.5624 91.9432C44.6848 91.8208 44.8509 91.752 45.024 91.752H47.256C47.4291 91.752 47.5952 91.8208 47.7176 91.9432C47.84 92.0656 47.9088 92.2317 47.9088 92.4048C47.9088 92.5779 47.84 92.744 47.7176 92.8664C47.5952 92.9888 47.4291 93.0576 47.256 93.0576H45.6768V99.432H54.4512V93.0576H52.8336C52.6605 93.0576 52.4944 92.9888 52.372 92.8664C52.2496 92.744 52.1808 92.5779 52.1808 92.4048C52.1808 92.2317 52.2496 92.0656 52.372 91.9432C52.4944 91.8208 52.6605 91.752 52.8336 91.752H55.104C55.2772 91.752 55.4432 91.8208 55.5656 91.9432C55.688 92.0656 55.7568 92.2317 55.7568 92.4048V100.085C55.7568 100.258 55.688 100.424 55.5656 100.546C55.4432 100.669 55.2772 100.738 55.104 100.738Z" fill="#E65E2A"/>
<path d="M50.0641 97.5984C49.8909 97.5984 49.7249 97.5296 49.6025 97.4072C49.48 97.2848 49.4113 97.1187 49.4113 96.9456V87.5328C49.4113 87.3597 49.48 87.1936 49.6025 87.0712C49.7249 86.9488 49.8909 86.88 50.0641 86.88C50.2372 86.88 50.4032 86.9488 50.5257 87.0712C50.6481 87.1936 50.7169 87.3597 50.7169 87.5328V96.96C50.7131 97.1306 50.6427 97.293 50.5206 97.4123C50.3986 97.5317 50.2347 97.5984 50.0641 97.5984Z" fill="#E65E2A"/>
<path d="M52.0177 90.72C51.9175 90.7206 51.8185 90.6979 51.7285 90.6538C51.6386 90.6096 51.5601 90.5452 51.4993 90.4656L50.0353 88.5744L48.3889 90.4944C48.3348 90.5647 48.2669 90.6233 48.1895 90.6666C48.112 90.7098 48.0265 90.7368 47.9383 90.7459C47.85 90.755 47.7609 90.746 47.6762 90.7195C47.5915 90.693 47.5132 90.6495 47.4459 90.5917C47.3786 90.5339 47.3238 90.4629 47.2848 90.3832C47.2459 90.3035 47.2236 90.2167 47.2193 90.1281C47.215 90.0395 47.2288 89.9509 47.2599 89.8678C47.291 89.7847 47.3387 89.7089 47.4001 89.6448L49.5697 87.1152C49.6326 87.0414 49.7113 86.9825 49.7999 86.9429C49.8884 86.9033 49.9848 86.884 50.0818 86.8863C50.1788 86.8886 50.2741 86.9125 50.3607 86.9562C50.4473 87 50.523 87.0625 50.5825 87.1392L52.5313 89.6688C52.6074 89.7647 52.6549 89.8801 52.6682 90.0018C52.6814 90.1235 52.66 90.2465 52.6062 90.3565C52.5525 90.4665 52.4687 90.559 52.3645 90.6234C52.2603 90.6877 52.1401 90.7212 52.0177 90.72Z" fill="#E65E2A"/>
<path d="M124.32 157.819C118.282 164.856 117.643 172.459 115.234 179.578C111.302 191.203 109.176 203.05 111.394 215.122C116.342 217.555 122.15 215.122 127.627 214.459C137.347 213.302 146.947 218.021 156.72 217.526C158.741 217.421 160.877 217.046 162.374 215.674C164.774 213.499 164.654 209.813 164.808 206.587C165.48 191.76 175.138 178.949 179.04 164.64C179.266 163.814 179.453 162.869 178.982 162.154C178.512 161.438 177.696 161.27 176.923 161.117C168.739 159.49 160.301 160.243 151.963 160.531C144.043 160.805 135.859 160.594 128.539 157.651C127.544 157.235 126.446 157.131 125.39 157.354C124.996 157.402 124.624 157.564 124.32 157.819Z" fill="#F4C3FB"/>
<path d="M133.349 178.742C133.401 178.655 133.461 178.571 133.526 178.493L134.064 177.802C134.299 177.499 134.592 177.139 134.962 176.741C135.331 176.342 135.73 175.872 136.224 175.406L136.987 174.658C137.256 174.398 137.558 174.154 137.856 173.885C138.446 173.342 139.128 172.824 139.838 172.267C142.979 169.91 146.496 168.101 150.24 166.915C151.109 166.661 151.925 166.402 152.712 166.234C153.101 166.147 153.475 166.046 153.84 165.979L154.896 165.792C155.563 165.658 156.178 165.605 156.715 165.538C157.253 165.47 157.718 165.437 158.098 165.418L158.971 165.379C159.073 165.368 159.176 165.368 159.278 165.379C159.179 165.403 159.078 165.419 158.976 165.427L158.107 165.514C157.728 165.542 157.267 165.586 156.734 165.672C156.202 165.758 155.587 165.816 154.925 165.96L153.878 166.162C153.518 166.234 153.149 166.339 152.76 166.43C151.982 166.603 151.171 166.867 150.312 167.126C148.469 167.742 146.674 168.493 144.941 169.373C143.219 170.274 141.566 171.303 139.997 172.45C139.286 172.997 138.605 173.506 138.01 174.038C137.712 174.298 137.41 174.518 137.141 174.792L136.368 175.526C135.864 175.982 135.461 176.443 135.086 176.832C134.712 177.221 134.405 177.566 134.16 177.859L133.584 178.517C133.515 178.601 133.436 178.677 133.349 178.742Z" fill="#263238"/>
<path d="M137.645 141.12C137.645 141.12 124.483 125.414 119.477 125.414C119.477 125.414 116.314 130.987 116.208 134.021C116.102 137.054 126.336 151.301 126.336 151.301L137.645 141.12Z" fill="#3583F0"/>
<path d="M105.941 125.251L119.477 125.39L123.658 146.242C123.658 146.242 121.411 167.976 119.736 173.525C118.061 179.074 114.24 188.16 114.24 188.16L80.8847 180.782L79.8863 156.701L75.8015 134.093L90.0527 128.458L105.941 125.251Z" fill="#3583F0"/>
<path d="M66.3312 154.08C66.3312 153.24 70.992 136.085 75.8064 134.093L79.5264 139.853L81.2256 155.467L66.3312 154.08Z" fill="#3583F0"/>
<path d="M123.499 135.533C123.52 135.713 123.52 135.895 123.499 136.075C123.499 136.478 123.466 136.968 123.446 137.549C123.398 138.797 123.36 140.52 123.379 142.421C123.398 144.322 123.49 146.04 123.566 147.283C123.605 147.864 123.634 148.358 123.658 148.762C123.679 148.942 123.679 149.124 123.658 149.304C123.601 149.131 123.565 148.952 123.552 148.771C123.504 148.426 123.442 147.922 123.384 147.298C123.259 146.054 123.144 144.331 123.12 142.421C123.096 140.51 123.168 138.787 123.259 137.539C123.307 136.92 123.35 136.416 123.394 136.066C123.406 135.884 123.441 135.705 123.499 135.533Z" fill="#263238"/>
<path d="M79.7328 140.506C79.738 140.712 79.7203 140.918 79.68 141.12C79.632 141.499 79.5648 142.051 79.4928 142.738C79.1133 146.303 79.1923 149.901 79.728 153.446C79.8288 154.128 79.92 154.675 79.9872 155.054C80.0369 155.249 80.0627 155.449 80.064 155.65C79.9873 155.464 79.9294 155.271 79.8912 155.074C79.7952 154.699 79.68 154.157 79.5552 153.475C78.9172 149.922 78.8379 146.291 79.32 142.714C79.4112 142.032 79.5072 141.48 79.584 141.101C79.6103 140.897 79.6602 140.698 79.7328 140.506Z" fill="#263238"/>
<path d="M108.643 179.39C108.467 179.233 108.306 179.06 108.163 178.872L106.939 177.432C105.902 176.194 104.467 174.494 102.85 172.632C101.232 170.77 99.7344 169.133 98.6448 167.947L97.3584 166.536C97.1922 166.372 97.0427 166.192 96.912 165.998C97.1005 166.141 97.2742 166.301 97.4304 166.478C97.752 166.79 98.2128 167.256 98.7744 167.832C99.8976 168.994 101.414 170.626 103.037 172.478C104.659 174.331 106.075 176.054 107.074 177.317C107.554 177.95 107.971 178.469 108.24 178.834C108.391 179.006 108.526 179.193 108.643 179.39Z" fill="#263238"/>
<path d="M111.47 104.333C111.537 107.289 110.976 110.225 109.825 112.949C108.675 115.673 106.96 118.122 104.794 120.134C103.795 117.254 102.8 114.374 101.808 111.494" fill="#263238"/>
<path d="M88.9632 87.1296C91.5264 85.728 94.6224 85.5264 97.488 86.0976C100.354 86.6688 103.018 87.9696 105.547 89.4336C107.005 90.1849 108.307 91.2043 109.387 92.4384C111.245 94.776 113.088 98.6208 113.266 101.606C113.41 104.006 112.488 110.064 111.466 112.258C110.53 114.269 106.147 115.8 103.982 116.299L84.1536 93.216C84.5108 91.9329 85.1202 90.7338 85.9459 89.6888C86.7717 88.6438 87.7974 87.7738 88.9632 87.1296Z" fill="#263238"/>
<path d="M85.5408 90.24L90.3024 89.3904C87.7008 95.5824 86.9952 109.747 85.5024 116.299C83.7504 113.755 79.6752 106.003 79.8912 102.922C80.1072 99.84 79.8912 89.7168 85.5408 90.24Z" fill="#263238"/>
<path d="M82.824 100.32C83.1312 95.568 86.2944 89.76 91.0272 90.24L101.986 93.0336C103.669 93.4669 105.17 94.4265 106.27 95.7725C107.37 97.1186 108.012 98.7807 108.101 100.517C108.101 100.699 108.13 100.478 108.13 100.613L105.682 128.986L97.44 145.344L90.1776 128.222C90.1776 125.909 90.1776 124.066 90.1776 124.08C90.1776 124.094 84.1104 123.058 82.8672 115.133C82.2672 111.192 82.4784 105.6 82.824 100.32Z" fill="#FFBE9D"/>
<path d="M85.2047 106.781C85.2006 107.043 85.2984 107.297 85.4774 107.488C85.6565 107.68 85.9028 107.794 86.1647 107.808C86.2943 107.82 86.425 107.807 86.549 107.767C86.673 107.727 86.7877 107.663 86.886 107.578C86.9843 107.492 87.0643 107.388 87.121 107.271C87.1777 107.154 87.21 107.026 87.2159 106.896C87.22 106.634 87.1222 106.38 86.9432 106.189C86.7641 105.997 86.5178 105.882 86.2559 105.869C86.1263 105.856 85.9956 105.87 85.8716 105.91C85.7476 105.949 85.6329 106.014 85.5346 106.099C85.4363 106.185 85.3563 106.289 85.2996 106.406C85.2429 106.523 85.2106 106.651 85.2047 106.781Z" fill="#263238"/>
<path d="M84 103.445C84.1296 103.574 84.8976 103.008 85.992 103.013C87.0864 103.018 87.912 103.565 88.0032 103.435C88.0944 103.306 87.936 103.133 87.5856 102.878C87.1118 102.557 86.5502 102.389 85.9776 102.398C85.4084 102.392 84.8526 102.571 84.3936 102.907C84.0624 103.142 83.952 103.382 84 103.445Z" fill="#263238"/>
<path d="M95.2368 106.781C95.2327 107.043 95.3305 107.297 95.5095 107.488C95.6886 107.68 95.935 107.794 96.1968 107.808C96.326 107.82 96.4563 107.805 96.5797 107.765C96.7031 107.725 96.8172 107.661 96.915 107.576C97.0128 107.49 97.0923 107.386 97.1487 107.269C97.2051 107.153 97.2373 107.026 97.2432 106.896C97.2473 106.634 97.1495 106.38 96.9705 106.189C96.7914 105.997 96.5451 105.882 96.2832 105.869C96.154 105.857 96.0238 105.871 95.9003 105.911C95.7769 105.951 95.6629 106.016 95.5651 106.101C95.4673 106.186 95.3877 106.291 95.3313 106.407C95.2749 106.524 95.2428 106.651 95.2368 106.781Z" fill="#263238"/>
<path d="M94.3968 103.445C94.5216 103.574 95.2944 103.008 96.3888 103.013C97.4832 103.018 98.28 103.565 98.4 103.435C98.52 103.306 98.3328 103.133 97.9824 102.878C97.5065 102.557 96.9437 102.39 96.3696 102.398C95.8006 102.393 95.245 102.571 94.7856 102.907C94.4496 103.142 94.3344 103.382 94.3968 103.445Z" fill="#263238"/>
<path d="M90.9791 112.032C90.4031 111.85 89.8064 111.74 89.2032 111.706C88.9248 111.677 88.6608 111.619 88.6128 111.432C88.59 111.143 88.6553 110.853 88.8 110.602L89.6304 108.48C90.7824 105.456 91.6224 102.965 91.4976 102.922C91.3728 102.878 90.3408 105.293 89.1888 108.317L88.392 110.453C88.2167 110.789 88.1641 111.176 88.2432 111.547C88.2858 111.648 88.3514 111.737 88.4347 111.808C88.5181 111.879 88.6169 111.929 88.7232 111.955C88.8789 112.001 89.0407 112.024 89.2032 112.022C89.7925 112.099 90.389 112.102 90.9791 112.032Z" fill="#263238"/>
<path d="M100.704 121.262C100.704 121.262 98.1264 126.701 90.1968 125.942V124.08C93.8922 124.129 97.5291 123.154 100.704 121.262Z" fill="#EB996E"/>
<path d="M94.7376 99.4896C94.848 99.7872 95.9376 99.6528 97.2192 99.8064C98.5008 99.96 99.5424 100.315 99.7104 100.051C99.7872 99.9216 99.6096 99.6432 99.192 99.3552C98.6348 98.9984 98.0032 98.7743 97.3457 98.7002C96.6883 98.6261 96.0226 98.7041 95.4 98.928C94.9296 99.1152 94.6944 99.36 94.7376 99.4896Z" fill="#263238"/>
<path d="M84.3696 100.099C84.5616 100.349 85.3296 100.099 86.2176 100.099C87.1056 100.099 87.8928 100.272 88.0704 100.013C88.1472 99.8832 88.0272 99.6336 87.6912 99.3984C87.2457 99.1078 86.72 98.9651 86.1888 98.9904C85.6582 98.9935 85.1416 99.1612 84.7104 99.4704C84.3888 99.72 84.2832 99.9744 84.3696 100.099Z" fill="#263238"/>
<path d="M83.4546 94.3636C83.7354 93.7828 85.0933 94.7118 85.6364 94.3636C86.1795 94.0154 88.2642 93.831 88.9091 93.8182C90.205 93.8177 91.0891 94.7582 92.1819 95.4545C96.9003 98.1809 98.8368 101.53 103.498 104.352C104.645 105.043 106.138 104.41 107.112 105.312C108.086 106.214 108.72 107.712 108.182 108.931C108.851 108.102 109.396 107.18 109.8 106.195C110 105.7 110.091 105.169 110.069 104.636C110.047 104.102 109.911 103.58 109.67 103.104C109.267 102.408 108.552 101.87 108.36 101.088C108.187 100.402 108.456 99.6816 108.427 98.9712C108.349 98.2497 108.1 97.5572 107.702 96.9504C105.878 93.72 103.382 90.7968 100.128 88.9824C98.0159 87.7624 95.6116 87.1401 93.1728 87.1824C90.7254 87.2406 88.3795 88.1719 86.5584 89.808C85.5168 90.768 84.4176 91.7856 84.96 93.1056" fill="#263238"/>
<path d="M107.04 106.291C107.122 106.066 111.254 104.573 111.312 108.965C111.365 113.232 107.054 112.392 107.05 112.272C107.045 112.152 107.04 106.291 107.04 106.291Z" fill="#FFBE9D"/>
<path d="M108.326 110.64C108.326 110.64 108.398 110.693 108.528 110.75C108.707 110.822 108.906 110.822 109.085 110.75C109.531 110.582 109.906 109.862 109.92 109.094C109.925 108.727 109.849 108.364 109.699 108.029C109.658 107.896 109.586 107.775 109.488 107.676C109.39 107.578 109.27 107.504 109.138 107.462C109.052 107.441 108.961 107.45 108.881 107.489C108.801 107.528 108.737 107.593 108.701 107.674C108.643 107.794 108.672 107.875 108.648 107.885C108.624 107.894 108.557 107.813 108.59 107.635C108.613 107.53 108.67 107.435 108.754 107.366C108.871 107.279 109.016 107.24 109.162 107.256C109.337 107.289 109.502 107.367 109.639 107.481C109.777 107.595 109.884 107.742 109.949 107.909C110.132 108.278 110.225 108.687 110.218 109.099C110.218 109.958 109.738 110.765 109.147 110.952C109.033 110.986 108.912 110.993 108.795 110.975C108.677 110.957 108.564 110.913 108.466 110.846C108.336 110.746 108.312 110.65 108.326 110.64Z" fill="#EB996E"/>
<path d="M107.64 105.307C107.707 106.469 107.76 107.707 107.222 108.739C106.685 109.771 105.326 110.477 104.309 109.901C103.483 109.421 103.238 108.37 103.094 107.424C102.691 104.707 102.509 101.962 102.077 99.264L107.64 105.307Z" fill="#263238"/>
<path d="M93.6672 114.106C93.8686 114.377 94.0035 114.693 94.061 115.026C94.1185 115.36 94.0971 115.702 93.9984 116.026C93.8925 116.348 93.7115 116.641 93.4703 116.879C93.2291 117.118 92.9346 117.296 92.6112 117.398C92.353 117.487 92.0725 117.487 91.8144 117.398C91.6057 117.282 91.4231 117.124 91.2778 116.934C91.1325 116.744 91.0276 116.526 90.9696 116.294C90.8208 115.93 90.672 115.56 90.528 115.19C90.4946 115.133 90.4735 115.069 90.466 115.003C90.4586 114.937 90.465 114.87 90.4848 114.806C90.525 114.746 90.5783 114.696 90.6406 114.66C90.7029 114.623 90.7727 114.601 90.8448 114.595L93.5808 113.933" fill="#EB996E"/>
<path d="M91.872 117.288C92.2956 117.342 92.7257 117.284 93.12 117.12C93.5816 116.974 93.9708 116.658 94.2096 116.237C94.3475 115.976 94.4059 115.681 94.3776 115.387C94.3598 115.085 94.2849 114.788 94.1568 114.514C94.0352 114.243 93.8605 114 93.6432 113.798L93.5712 113.731L93.48 113.765C91.6656 114.403 90.2496 114.725 90.264 114.806C90.2784 114.888 91.7376 114.691 93.5856 114.067L93.4224 114.034C93.6039 114.21 93.7518 114.419 93.8592 114.648C93.9737 114.869 94.0401 115.111 94.0542 115.359C94.0682 115.607 94.0296 115.856 93.9408 116.088C93.7409 116.454 93.4203 116.739 93.0336 116.894C92.352 117.192 91.8624 117.226 91.872 117.288Z" fill="#263238"/>
<g opacity="0.3">
<path d="M80.8704 165.259C82.0656 161.285 84.2784 157.445 87.7968 155.242C90.6768 153.442 94.1568 152.885 97.5456 152.76C103.68 152.539 109.795 153.605 115.723 155.198C125.04 157.699 134.174 161.616 141.36 168.053L143.098 169.31C137.41 170.957 131.299 169.723 125.621 168.029C119.942 166.334 114.307 164.165 108.384 163.934C104.846 163.795 101.184 164.347 97.824 163.229C96.4608 162.773 95.1072 162.038 93.6768 162.202C91.9728 162.389 90.6864 163.781 89.568 165.082L78.8496 177.528C79.3776 173.41 79.68 169.234 80.8704 165.259Z" fill="black"/>
</g>
<path d="M136.709 141.941C136.709 141.941 148.747 155.549 149.669 160.368C150.59 165.187 149.669 167.275 145.478 168.85C141.288 170.424 113.539 160.051 113.539 160.051L118.253 151.987L133.186 154.92L127.68 150.062L132.682 145.57L136.709 141.941Z" fill="#FFBE9D"/>
<path d="M104.338 136.272L105.749 153.494C105.772 153.774 105.684 154.052 105.504 154.268C105.325 154.485 105.068 154.622 104.789 154.651L94.1663 155.784C93.8819 155.814 93.5973 155.729 93.375 155.549C93.1528 155.369 93.011 155.108 92.9807 154.824L90.9023 136.834C90.885 136.685 90.8986 136.535 90.9423 136.392C90.9861 136.249 91.059 136.117 91.1564 136.004C91.2538 135.89 91.3737 135.799 91.5084 135.734C91.6432 135.67 91.7898 135.634 91.9391 135.629L103.234 135.269C103.511 135.262 103.781 135.362 103.987 135.549C104.192 135.736 104.318 135.995 104.338 136.272Z" fill="#263238"/>
<path d="M99.0047 143.923C99.3359 143.952 106.546 145.234 106.546 145.234L115.133 151.258L118.272 151.987L116.386 160.8L113.558 160.066C112.084 160.129 110.608 160.096 109.138 159.97C106.939 159.763 99.9791 159.23 99.9791 159.23L96.3887 157.238C96.3887 157.238 95.2367 155.352 95.2367 154.838C95.2229 154.687 95.2517 154.536 95.3198 154.4C95.3879 154.265 95.4927 154.151 95.6221 154.072C95.7516 153.993 95.9006 153.952 96.0522 153.953C96.2038 153.955 96.352 153.999 96.4799 154.08C97.2143 154.498 102.24 154.603 103.498 154.08C103.498 154.08 96.1679 153.547 95.2271 152.347C94.2863 151.147 94.5983 150.202 95.7503 150.202C96.9023 150.202 101.088 150.83 102.346 150.725C103.603 150.619 105.173 150.624 105.49 149.995C105.806 149.366 104.861 148.843 104.861 148.843L103.498 147.797C103.498 147.797 98.1551 146.837 97.8431 145.699C97.7767 145.506 97.7553 145.299 97.7807 145.096C97.806 144.893 97.8775 144.698 97.9895 144.527C98.1016 144.356 98.2513 144.212 98.4272 144.108C98.6032 144.003 98.8007 143.94 99.0047 143.923Z" fill="#FFBE9D"/>
<path d="M133.349 155.04C133.456 154.98 133.573 154.94 133.694 154.92C134.01 154.839 134.331 154.781 134.654 154.747C135.737 154.622 136.832 154.682 137.894 154.925C138.958 155.162 139.972 155.585 140.89 156.173C141.167 156.348 141.431 156.546 141.677 156.763C141.854 156.917 141.941 157.008 141.931 157.018C141.922 157.027 141.504 156.734 140.798 156.322C139.876 155.792 138.879 155.403 137.842 155.17C136.803 154.938 135.736 154.855 134.674 154.925C133.862 154.968 133.358 155.069 133.349 155.04Z" fill="#EB996E"/>
<path d="M96.5568 143.554C96.5568 143.554 90.432 144.547 90.0432 144.936C89.6544 145.325 81.9456 154.771 81.9456 154.771L85.8816 162.504L92.7792 158.77C93.4816 158.456 94.2153 158.218 94.968 158.059C94.968 158.059 101.933 156.965 102.384 156.139C102.835 155.314 102.576 155.107 102.058 154.978C101.539 154.848 97.3776 155.323 96.4512 155.496C95.5301 155.586 94.6026 155.586 93.6816 155.496C93.6816 155.496 96.5616 154.819 97.224 154.594C97.8864 154.368 104.357 152.914 104.251 151.757C104.146 150.6 103.339 150.173 99.288 151.277C97.0614 151.913 94.7667 152.281 92.4528 152.371L101.414 149.246C101.414 149.246 105.024 148.085 103.862 147.053C102.701 146.021 94.968 148.152 94.968 148.152L91.5504 149.438L92.5104 147.379C92.5104 147.379 97.368 145.939 97.992 145.459C98.7648 144.859 98.8704 144.302 98.2896 143.803C97.7088 143.304 96.5568 143.554 96.5568 143.554Z" fill="#FFBE9D"/>
<path d="M68.3808 154.334L79.6368 155.294L79.5264 158.381L81.9264 154.752L85.8624 162.485C85.8624 162.485 84.4224 167.083 83.6688 169.622C81.6144 176.424 78.2736 184.022 74.1648 183.653C69.2352 183.173 65.6352 177.35 65.7168 173.573C65.808 170.15 68.3808 154.334 68.3808 154.334Z" fill="#FFBE9D"/>
<path d="M81.9456 154.771C81.9456 154.771 82.0128 154.675 82.1568 154.493L82.7808 153.706L85.2144 150.691L89.0832 145.954L89.664 145.258C89.76 145.138 89.8608 145.018 89.9712 144.898C90.1079 144.797 90.2627 144.724 90.4272 144.682C91.0416 144.499 91.6848 144.365 92.3472 144.226C93.6672 143.957 95.0688 143.707 96.5424 143.462C96.9154 143.377 97.3006 143.36 97.68 143.41C97.8802 143.436 98.073 143.503 98.2464 143.606C98.4223 143.719 98.5688 143.872 98.6736 144.053C98.7285 144.149 98.7624 144.255 98.7732 144.365C98.7839 144.475 98.7713 144.586 98.736 144.691C98.664 144.89 98.5493 145.07 98.4 145.219C98.2596 145.373 98.098 145.505 97.92 145.613C97.7328 145.709 97.5504 145.79 97.3584 145.867C95.8464 146.458 94.2336 146.952 92.5584 147.466L92.6304 147.403L91.6704 149.467L91.5264 149.314L94.944 148.022C96.408 147.629 97.9152 147.274 99.4752 146.986C100.269 146.836 101.07 146.729 101.875 146.664C102.286 146.628 102.698 146.628 103.109 146.664C103.327 146.679 103.541 146.729 103.742 146.813C103.856 146.857 103.958 146.926 104.041 147.015C104.124 147.104 104.186 147.21 104.222 147.326C104.246 147.447 104.24 147.571 104.204 147.688C104.168 147.806 104.103 147.912 104.016 147.998C103.874 148.157 103.713 148.297 103.536 148.416C103.18 148.644 102.804 148.84 102.413 149.002C101.635 149.333 100.829 149.573 100.013 149.861C98.4192 150.422 96.7968 150.984 95.16 151.555L92.5248 152.477L92.4816 152.232C94.6202 152.139 96.7427 151.817 98.8128 151.272C99.8212 150.985 100.845 150.756 101.88 150.586C102.401 150.494 102.934 150.494 103.454 150.586C103.733 150.639 103.983 150.791 104.16 151.013C104.314 151.248 104.396 151.523 104.395 151.805C104.382 151.959 104.312 152.103 104.198 152.208C104.106 152.306 104.003 152.393 103.891 152.467C103.678 152.607 103.455 152.73 103.224 152.837C102.772 153.045 102.309 153.229 101.837 153.389C100.91 153.71 99.9792 153.979 99.0624 154.224L97.6992 154.589C97.2528 154.704 96.8064 154.862 96.36 154.968C95.472 155.194 94.5936 155.405 93.7344 155.606V155.39C94.7397 155.51 95.7564 155.497 96.7584 155.352C97.7472 155.208 98.7168 155.102 99.6384 155.006C100.118 154.963 100.598 154.92 101.045 154.891C101.275 154.891 101.525 154.891 101.741 154.891C101.86 154.88 101.981 154.88 102.101 154.891C102.219 154.917 102.333 154.958 102.442 155.011C102.505 155.04 102.561 155.081 102.607 155.133C102.652 155.186 102.686 155.247 102.706 155.314C102.739 155.438 102.739 155.569 102.706 155.693C102.674 155.803 102.634 155.911 102.586 156.014L102.509 156.168C102.478 156.226 102.435 156.276 102.384 156.317C102.014 156.565 101.605 156.748 101.174 156.859C99.6474 157.29 98.0978 157.636 96.5328 157.896L95.472 158.074C95.132 158.122 94.7954 158.19 94.464 158.28C93.8432 158.42 93.2431 158.64 92.6784 158.933L87.6912 161.602L86.3712 162.298L86.0304 162.47L85.9152 162.523L86.0208 162.456L86.3568 162.264L87.6576 161.539L92.616 158.818C93.7056 158.213 95.0688 157.987 96.504 157.742C98.0612 157.475 99.6027 157.122 101.122 156.686C101.525 156.581 101.91 156.411 102.259 156.182C102.293 156.153 102.322 156.119 102.346 156.082L102.418 155.938C102.463 155.843 102.5 155.745 102.528 155.645C102.586 155.438 102.552 155.261 102.37 155.165C102.274 155.12 102.174 155.085 102.072 155.059C101.966 155.052 101.861 155.052 101.755 155.059C101.53 155.059 101.299 155.059 101.074 155.088C100.594 155.117 100.147 155.16 99.672 155.208C98.712 155.304 97.752 155.414 96.792 155.558C95.7747 155.711 94.7415 155.728 93.72 155.606C93.6919 155.606 93.6651 155.595 93.6453 155.575C93.6255 155.556 93.6144 155.529 93.6144 155.501C93.6144 155.473 93.6255 155.446 93.6453 155.426C93.6651 155.406 93.6919 155.395 93.72 155.395C94.5792 155.189 95.4576 154.982 96.3408 154.752C96.792 154.646 97.2192 154.493 97.6752 154.368L99.0384 154.003C99.9552 153.754 100.882 153.49 101.798 153.168C102.262 153.01 102.717 152.827 103.162 152.621C103.382 152.522 103.594 152.405 103.795 152.27C103.978 152.141 104.194 151.963 104.194 151.79C104.194 151.563 104.127 151.341 104.002 151.152C103.86 150.974 103.659 150.855 103.435 150.816C102.945 150.73 102.443 150.73 101.952 150.816C100.927 150.989 99.9129 151.218 98.9136 151.502C96.8231 152.052 94.6795 152.374 92.52 152.462C92.5036 152.464 92.4872 152.462 92.4717 152.456C92.4563 152.451 92.4422 152.442 92.4304 152.431C92.4186 152.419 92.4093 152.406 92.4033 152.39C92.3972 152.375 92.3944 152.359 92.3952 152.342C92.3946 152.316 92.4021 152.291 92.4167 152.269C92.4314 152.248 92.4523 152.231 92.4768 152.222L95.112 151.301L99.9696 149.606C100.762 149.318 101.573 149.074 102.331 148.757C102.707 148.6 103.068 148.41 103.411 148.19C103.578 148.087 103.73 147.961 103.862 147.816C103.923 147.76 103.969 147.69 103.997 147.612C104.024 147.535 104.033 147.451 104.021 147.37C103.92 147.043 103.517 146.918 103.128 146.89C102.732 146.856 102.334 146.856 101.938 146.89C101.145 146.951 100.357 147.057 99.576 147.206C98.0256 147.49 96.5184 147.84 95.064 148.229L91.6464 149.515C91.6183 149.526 91.587 149.526 91.5592 149.514C91.5314 149.503 91.5092 149.481 91.4976 149.453C91.488 149.423 91.488 149.391 91.4976 149.362C91.8336 148.646 92.1696 147.922 92.4576 147.302C92.4708 147.273 92.495 147.251 92.5248 147.24C94.1904 146.76 95.8128 146.246 97.3248 145.666C97.5082 145.594 97.6877 145.512 97.8624 145.421C98.0237 145.325 98.1707 145.207 98.2992 145.07C98.4394 144.966 98.5404 144.817 98.5857 144.648C98.631 144.479 98.618 144.3 98.5488 144.139C98.4597 143.988 98.3365 143.86 98.189 143.765C98.0414 143.67 97.8737 143.61 97.6992 143.592C97.3455 143.545 96.9864 143.562 96.6384 143.64C95.1696 143.88 93.7584 144.12 92.448 144.384C91.7904 144.518 91.1472 144.653 90.528 144.826C90.3881 144.863 90.2552 144.923 90.1344 145.003L89.8368 145.349L89.2512 146.04L85.3488 150.749L82.8768 153.73L82.2288 154.502C82.0272 154.685 81.9456 154.771 81.9456 154.771Z" fill="#EB996E"/>
<path d="M62.3904 205.795L43.0752 213.84L50.6688 222.643L67.176 219.418L62.3904 205.795Z" fill="#FFBE9D"/>
<path d="M114 188.914C114 188.914 114.96 211.114 113.04 215.021C111.12 218.928 91.4015 219.49 91.4015 219.49L60.3695 221.722L56.4431 207.269C56.4431 207.269 78.8159 196.306 80.9231 195.048C83.0303 193.79 88.0415 191.568 88.0415 191.568L95.4335 181.632L114 188.914Z" fill="#262424"/>
<path d="M80.2464 195.701L78.0096 164.414C78.0096 164.414 79.4496 141.168 66.3312 142.411C53.2128 143.654 54.12 164.189 54.12 164.189C54.12 164.189 54.912 192.312 55.7088 196.397C56.5056 200.482 56.8224 205.003 59.4432 206.707L71.3568 205.238L80.2464 195.701Z" fill="#262424"/>
<path d="M73.6128 148.536L76.4928 156.278L73.6128 185.395C73.6128 185.395 56.7216 186.302 56.8944 185.846C57.0672 185.39 54.3408 171.221 54.3408 171.221C54.3408 171.221 53.8944 152.501 58.9968 149.102C64.0992 145.704 73.6128 148.536 73.6128 148.536Z" fill="#262424"/>
<path d="M72.96 185.429L72.2928 199.349L60.0864 205.44L57.744 185.966L72.96 185.429Z" fill="#FFBE9D"/>
<path d="M95.424 181.632L81.3504 176.976L74.184 183.672L78.7392 197.318L89.9328 192.874L95.424 181.632Z" fill="#262424"/>
<path d="M70.6656 146.242C70.8027 146.336 70.9255 146.449 71.0304 146.578C71.3484 146.896 71.6481 147.233 71.928 147.586C72.8702 148.743 73.6756 150.006 74.328 151.349C74.9662 152.693 75.4494 154.105 75.768 155.558C75.867 155.999 75.9439 156.444 75.9984 156.893C76.029 157.051 76.0387 157.212 76.0272 157.373C75.984 157.373 75.8736 156.682 75.5952 155.587C74.8656 152.726 73.5733 150.038 71.7936 147.682C71.1072 146.789 70.632 146.27 70.6656 146.242Z" fill="#455A64"/>
<path d="M43.5552 223.003C36.2928 222.787 34.464 223.056 27.2064 222.84C25.4304 222.782 18.9888 223.142 17.4864 222.202C16.1184 221.338 14.3712 220.546 13.9872 218.976C13.3344 216.331 13.9872 213.307 16.416 211.594C17.2546 211.01 18.2305 210.654 19.248 210.562C23.5248 210.13 27.5088 213.173 31.7712 212.155C32.9232 211.882 33.9504 211.195 35.0976 210.912C36.8051 210.546 38.5872 210.796 40.128 211.618C41.6832 212.381 42.048 212.506 42.048 212.506L49.6128 209.76L52.272 223.042L43.5552 223.003Z" fill="#A5A5A5"/>
<path d="M49.68 206.611L45.696 208.008C45.4025 208.111 45.1577 208.319 45.0088 208.592C44.8599 208.865 44.8174 209.184 44.8896 209.486L48.2928 223.723C48.3639 224.027 48.5452 224.293 48.8015 224.47C49.0578 224.648 49.3709 224.724 49.68 224.683L53.76 224.16C53.9339 224.137 54.1011 224.078 54.2509 223.987C54.4006 223.895 54.5296 223.774 54.6295 223.629C54.7294 223.485 54.798 223.322 54.831 223.149C54.8639 222.977 54.8604 222.8 54.8208 222.629L51.336 207.542C51.299 207.366 51.2249 207.2 51.1185 207.055C51.0122 206.91 50.876 206.789 50.7192 206.701C50.5624 206.613 50.3885 206.559 50.2093 206.544C50.0301 206.528 49.8496 206.551 49.68 206.611Z" fill="#A5A5A5"/>
<path d="M48.3936 224.28C48.0715 223.593 47.8082 222.88 47.6064 222.149C47.1696 220.819 46.6128 218.962 46.1136 216.869C45.6144 214.776 45.264 212.88 45.072 211.488C44.9712 210.797 44.9088 210.23 44.8752 209.842C44.8458 209.639 44.8458 209.434 44.8752 209.232C45.0826 209.96 45.243 210.701 45.3552 211.45C45.6096 212.822 45.9888 214.714 46.488 216.787C46.9872 218.861 47.5056 220.718 47.88 222.067C48.1002 222.793 48.2718 223.532 48.3936 224.28Z" fill="#263238"/>
<path d="M45.6 211.296C45.5328 211.243 46.7328 210.197 48.6048 209.856C50.4768 209.515 51.9648 210.072 51.9168 210.144C51.8688 210.216 50.4384 209.866 48.6672 210.197C46.896 210.528 45.6624 211.387 45.6 211.296Z" fill="#263238"/>
<path d="M46.1951 216.682C46.1663 216.59 47.6351 216.029 49.5551 215.549C51.4751 215.069 53.0207 214.848 53.0399 214.939C53.0591 215.03 51.5231 215.419 49.6367 215.899C47.7503 216.379 46.2239 216.773 46.1951 216.682Z" fill="#263238"/>
<path d="M48.1392 222.24C48.1392 222.134 49.704 222.283 51.4032 221.515C53.1024 220.747 54.0576 219.523 54.1392 219.595C54.2208 219.667 53.9856 219.965 53.5536 220.426C52.3976 221.628 50.8145 222.326 49.1472 222.37C48.8056 222.408 48.4598 222.364 48.1392 222.24Z" fill="#263238"/>
<path d="M72.9552 194.918L72.288 199.354L60.0864 205.44L58.5696 196.195L72.9552 194.918Z" fill="#A5A5A5"/>
<path d="M56.6928 192.595L57.456 196.819C57.5132 197.132 57.6841 197.412 57.9358 197.606C58.1876 197.801 58.5022 197.895 58.8192 197.87L73.6992 196.718C74.0156 196.694 74.3115 196.552 74.5297 196.322C74.7478 196.091 74.8726 195.788 74.88 195.47L74.9856 191.294C74.9907 191.116 74.9584 190.938 74.8907 190.773C74.823 190.608 74.7214 190.459 74.5925 190.335C74.4636 190.212 74.3102 190.117 74.1423 190.056C73.9744 189.996 73.7956 189.971 73.6176 189.984L57.8832 191.088C57.7016 191.097 57.5241 191.145 57.3625 191.229C57.2009 191.312 57.059 191.429 56.9463 191.572C56.8336 191.714 56.7527 191.88 56.709 192.056C56.6653 192.233 56.6597 192.416 56.6928 192.595Z" fill="#A5A5A5"/>
<path d="M74.256 196.704C73.514 196.914 72.7564 197.065 71.9904 197.155C70.5792 197.381 68.6304 197.635 66.4512 197.818C64.272 198 62.304 198.034 60.8784 198.01C60.1632 198.01 59.5872 197.971 59.1888 197.942C58.9795 197.946 58.7709 197.918 58.5696 197.861C59.3349 197.782 60.1043 197.748 60.8736 197.76C62.3136 197.722 64.2624 197.64 66.4272 197.467C68.592 197.294 70.5408 197.074 71.9568 196.91C72.7171 196.785 73.4855 196.716 74.256 196.704Z" fill="#263238"/>
<path d="M60.7487 197.438C60.6863 197.496 59.8271 196.123 59.7887 194.189C59.7503 192.254 60.5375 190.829 60.6047 190.901C60.6719 190.973 60.0863 192.341 60.1247 194.179C60.1631 196.018 60.8543 197.395 60.7487 197.438Z" fill="#263238"/>
<path d="M66.264 197.702C66.168 197.702 65.8368 196.138 65.6544 194.15C65.472 192.163 65.5056 190.55 65.6016 190.55C65.6976 190.55 65.8224 192.149 66.0048 194.122C66.1872 196.094 66.36 197.688 66.264 197.702Z" fill="#263238"/>
<path d="M72.1632 196.632C72.0528 196.632 72.456 195.067 71.952 193.234C71.448 191.4 70.368 190.243 70.4592 190.176C70.5504 190.109 70.8048 190.387 71.1984 190.896C72.2241 192.25 72.6743 193.954 72.4512 195.638C72.4354 195.988 72.3367 196.328 72.1632 196.632Z" fill="#263238"/>
</svg>
