<svg width="240" height="240" viewBox="0 0 240 240" fill="none" xmlns="http://www.w3.org/2000/svg">
<g clip-path="url(#clip0_670_25816)">
<path d="M225.158 92.0352L224.198 90.4848C216.259 77.4048 201.907 69.5184 186.758 70.4736C184.81 70.5976 182.874 70.8639 180.965 71.2704C167.208 74.2176 155.237 84.6192 150.274 97.944C147.355 105.782 146.539 114.806 141 121.027C133.8 129.12 121.555 129.374 110.798 129.038C100.042 128.702 87.84 128.99 80.64 137.117C76.1472 142.21 74.7216 149.448 75.0816 156.264C76.0416 174.312 88.6176 190.45 104.611 198.47C120.605 206.491 139.435 207.206 156.931 203.678C181.454 198.734 204.773 185.16 218.789 164.198C232.805 143.237 236.371 114.667 225.158 92.0352Z" fill="#F5F5F5"/>
<path d="M87.1227 74.3721C101.227 60.2683 101.227 37.4014 87.1227 23.2975C73.0188 9.19367 50.1519 9.19367 36.0481 23.2975C21.9442 37.4014 21.9442 60.2683 36.0481 74.3721C50.1519 88.476 73.0188 88.476 87.1227 74.3721Z" fill="#F5F5F5"/>
<path d="M206.29 34.4688H47.0112V174.542H206.29V34.4688Z" fill="white"/>
<path d="M206.29 174.542C206.29 173.654 206.251 118.776 206.184 34.4688L206.29 34.5744L47.04 34.5936L47.1648 34.4688C47.1648 85.3776 47.1648 133.31 47.1648 174.542L47.0544 174.432L206.333 174.542L47.0544 174.653H46.944V174.542C46.944 133.31 46.944 85.3776 46.944 34.4688V34.344H47.04H206.304H206.4V34.4496C206.333 118.781 206.294 173.654 206.29 174.542Z" fill="#263238"/>
<path d="M81.2304 70.2912V95.4144H111.768V70.2912C111.768 69.717 111.54 69.1664 111.134 68.7604C110.728 68.3545 110.177 68.1264 109.603 68.1264H83.4C83.1153 68.1257 82.8333 68.1813 82.5701 68.2898C82.3069 68.3983 82.0677 68.5577 81.8662 68.7587C81.6646 68.9598 81.5047 69.1987 81.3957 69.4616C81.2866 69.7246 81.2304 70.0065 81.2304 70.2912Z" fill="#7187FF"/>
<path d="M75.1008 113.28L81.9216 94.5168L111.768 95.4096L107.318 112.522C107.232 112.851 107.038 113.142 106.766 113.348C106.494 113.553 106.161 113.661 105.821 113.654L98.0928 113.491L96.8208 115.291C96.6577 115.525 96.4378 115.714 96.1818 115.84C95.9257 115.966 95.6418 116.025 95.3568 116.011L76.6752 115.224C76.4395 115.212 76.2089 115.151 75.9985 115.044C75.7881 114.937 75.6026 114.787 75.454 114.603C75.3055 114.42 75.1973 114.207 75.1364 113.979C75.0755 113.751 75.0634 113.513 75.1008 113.28Z" fill="#7187FF"/>
<path d="M82.8672 72.5472V75.12V92.208L109.709 93.6864L109.589 72.5472H82.8672Z" fill="#F5F5F5"/>
<path d="M82.8672 72.5472H82.9872H83.352H84.792L90.24 72.48L109.579 72.4272H109.69V72.5376C109.723 78.6672 109.766 85.6416 109.814 93.0144C109.814 93.2352 109.814 93.4608 109.814 93.6768V93.8064H109.68L82.8432 92.304H82.7472V92.208C82.7472 86.2464 82.7808 81.3312 82.7904 77.8992C82.7904 76.1952 82.7904 74.856 82.8192 73.9296C82.8192 73.4832 82.8192 73.1376 82.8192 72.8928C82.8192 72.648 82.8192 72.5472 82.8192 72.5472C82.8192 72.5472 82.8192 72.6768 82.8192 72.912C82.8192 73.1472 82.8192 73.5024 82.8192 73.9536C82.8192 74.8704 82.8192 76.2 82.848 77.8992C82.848 81.3312 82.8768 86.2464 82.8912 92.208L82.7952 92.1072L109.637 93.5472L109.507 93.672C109.507 93.456 109.507 93.2352 109.507 93.0096C109.469 85.6416 109.435 78.6624 109.406 72.5328L109.517 72.648L90.2496 72.5904L84.768 72.5616H83.328H82.9488L82.8672 72.5472Z" fill="#263238"/>
<path d="M84.2736 77.4528C84.2976 76.8 84.2736 73.9872 84.2736 73.9872C91.776 73.9872 100.181 74.016 107.683 73.9872C107.894 77.7024 107.938 82.7136 108.163 86.4288" fill="#EBEBEB"/>
<path d="M108.149 86.4336C108.127 86.3571 108.115 86.278 108.115 86.1984C108.115 86.0208 108.082 85.7952 108.062 85.5168C108.019 84.9216 107.976 84.048 107.928 82.9488C107.822 80.7504 107.765 77.64 107.568 74.0016L107.683 74.1072H100.483C93.7632 74.1072 87.8208 74.1072 84.288 74.0496L84.3552 73.9776C84.3552 75.0528 84.3312 75.8976 84.3216 76.5312C84.3216 76.8096 84.3216 77.0352 84.3216 77.208C84.3266 77.2863 84.3266 77.3649 84.3216 77.4432C84.3104 77.3652 84.3104 77.286 84.3216 77.208C84.3216 77.0352 84.3216 76.8096 84.3216 76.5312C84.3216 75.912 84.3216 75.0528 84.288 73.9776V73.92H84.36C87.8928 73.8864 93.8256 73.8672 100.555 73.872H107.755H107.866V73.9824C108.043 77.6304 108.072 80.7408 108.134 82.9392C108.163 84.0192 108.187 84.888 108.206 85.5072C108.206 85.7904 108.206 86.016 108.206 86.1888C108.193 86.2716 108.174 86.3534 108.149 86.4336Z" fill="#E0E0E0"/>
<path d="M78.768 77.5392L84.3024 93.6864H109.709L105.912 77.4528L78.768 77.5392Z" fill="white"/>
<path d="M78.768 77.5392H78.888H79.2624H80.7408L86.3232 77.4912L105.912 77.3664H106.003V77.4528L109.651 93.0288C109.704 93.2496 109.757 93.4704 109.805 93.6864L109.843 93.84H109.685L84.2784 93.816H84.2064V93.7488C82.536 88.8048 81.168 84.7536 80.208 81.9264C79.728 80.5344 79.3776 79.4448 79.128 78.6912C79.008 78.3312 78.9168 78.048 78.8496 77.8512C78.7824 77.6544 78.7632 77.568 78.7632 77.568L78.8736 77.8656L79.176 78.72C79.44 79.4784 79.824 80.5728 80.3136 81.9648C81.2736 84.768 82.6896 88.7856 84.3936 93.6816L84.2976 93.6144L109.704 93.5904L109.579 93.744C109.531 93.528 109.478 93.3072 109.426 93.0864L105.792 77.5056L105.907 77.5968H86.4H80.784H79.2816H78.888C78.8459 77.5822 78.8057 77.5629 78.768 77.5392Z" fill="#263238"/>
<g opacity="0.3">
<path d="M109.675 94.0224C109.581 93.9647 109.474 93.9302 109.364 93.9218C109.254 93.9135 109.143 93.9315 109.042 93.9744C99.0976 96.5892 89.6154 100.719 80.928 106.219L77.3664 110.347C77.8176 111.053 78.7824 111.178 79.6176 111.235L91.5888 112.013C94.3728 112.195 97.1568 112.378 99.9456 112.368C101.602 112.368 103.411 112.229 104.616 111.096C105.281 110.382 105.781 109.529 106.08 108.6C107.853 104.102 109.097 99.4128 109.786 94.6272C109.816 94.5248 109.822 94.4166 109.803 94.3115C109.784 94.2064 109.74 94.1073 109.675 94.0224Z" fill="black"/>
</g>
<path d="M84.3024 94.9632L77.2032 110.318L103.862 110.851L109.709 93.6864L84.3024 94.9632Z" fill="#F5F5F5"/>
<path d="M84.3024 94.9632C84.3405 94.957 84.3794 94.957 84.4176 94.9632L84.768 94.9344L86.1408 94.8528L91.344 94.56L109.699 93.6H109.867L109.814 93.7632C108.053 98.952 106.07 104.803 103.978 110.928L103.949 111.014H103.853L77.1984 110.4H77.0496L77.112 110.261C79.3008 105.576 81.096 101.741 82.344 99.0624C82.9632 97.7472 83.4528 96.7152 83.784 96.0048L84.1632 95.208C84.2496 95.0304 84.2976 94.9488 84.2976 94.9488C84.2976 94.9488 84.2592 95.0496 84.1824 95.232C84.1056 95.4144 83.9712 95.712 83.8176 96.048L82.416 99.144L77.28 110.357L77.1936 110.218L103.848 110.726L103.728 110.813L109.584 93.648L109.699 93.8016L91.3872 94.6704L86.1648 94.9008L84.7776 94.9536H84.4128L84.3024 94.9632Z" fill="#263238"/>
<path d="M84.1872 93.6864L76.4832 102.168L102.965 102.37L109.589 93.6864H84.1872Z" fill="#FAFAFA"/>
<path d="M84.1872 93.6864C84.2255 93.6818 84.2641 93.6818 84.3024 93.6864H84.6624H86.0592L91.3392 93.6528L109.613 93.6048H109.853L109.709 93.7968C107.65 96.4944 105.413 99.432 103.09 102.485L103.051 102.533H102.182L76.4832 102.24H76.2768L76.416 102.086L82.08 95.9184L83.6256 94.2528L84.0288 93.8256C84.0709 93.7735 84.1193 93.7267 84.1728 93.6864L84.0432 93.8496L83.6496 94.296L82.1424 96L76.5504 102.24L76.4832 102.086L102.158 102.245H102.965L102.864 102.293C105.197 99.2448 107.434 96.312 109.493 93.6144L109.589 93.8064L91.3488 93.7584L86.0688 93.7248H84.6576H84.2928L84.1872 93.6864Z" fill="#263238"/>
<path d="M83.352 86.2944L81.0768 79.2048H104.683L107.99 92.1648" fill="#F5F5F5"/>
<path d="M108 92.16C107.964 92.0833 107.937 92.0028 107.918 91.92C107.866 91.7424 107.803 91.512 107.722 91.2192L107.006 88.56L104.578 79.2288L104.693 79.3152H95.856L81.0864 79.2864L81.1728 79.1616L82.8 84.36C82.9776 84.96 83.1216 85.4304 83.2272 85.776L83.3328 86.1504C83.3494 86.1917 83.3591 86.2355 83.3616 86.28C83.3382 86.2411 83.3204 86.1991 83.3088 86.1552C83.2704 86.0592 83.2272 85.9392 83.1744 85.7952L82.6944 84.3888C82.2864 83.1456 81.7056 81.384 80.9904 79.2192L80.952 79.0992H81.0816L95.8512 79.0656H104.688H104.774V79.152C105.734 82.9584 106.536 86.1936 107.112 88.5072C107.386 89.6352 107.592 90.5376 107.76 91.1808C107.832 91.4784 107.885 91.7136 107.923 91.8912C107.958 91.978 107.983 92.068 108 92.16Z" fill="#263238"/>
<path d="M97.3632 84.96C97.0138 84.636 96.6046 84.3833 96.1584 84.216C95.2752 83.9472 94.32 84.384 93.6096 84.9792C92.8992 85.5744 92.3232 86.3232 91.5696 86.8608L99.8496 86.9952L97.3632 84.96Z" fill="white"/>
<path d="M101.698 82.4832C101.4 82.0368 100.416 81.4848 99.7776 81.8976C99.5695 81.9731 99.3846 82.1012 99.2407 82.2695C99.0969 82.4377 98.9991 82.6403 98.9568 82.8576C98.9363 83.1726 99.0147 83.4861 99.1809 83.7545C99.3471 84.0229 99.5928 84.2327 99.884 84.3548C100.175 84.4768 100.497 84.505 100.805 84.4354C101.113 84.3658 101.391 84.2018 101.602 83.9664C101.771 83.7605 101.872 83.5064 101.889 83.2403C101.906 82.9741 101.839 82.7093 101.698 82.4832Z" fill="white"/>
<path d="M84.1872 93.6864L76.2432 86.2944L102.24 86.5056L109.709 93.6864H84.1872Z" fill="#FAFAFA"/>
<path d="M84.1872 93.6864C84.2287 93.6823 84.2705 93.6823 84.312 93.6864H84.6816H86.1216L91.4256 93.6528L109.728 93.6048L109.642 93.8112L102.173 86.6112L102.259 86.6496H101.779L76.2432 86.4L76.3056 86.2464L82.08 91.68L83.6496 93.168L84.0576 93.5616C84.106 93.6061 84.1509 93.6543 84.192 93.7056C84.1395 93.6713 84.0912 93.631 84.048 93.5856C83.9424 93.4944 83.8032 93.3744 83.6304 93.216L82.0368 91.776L76.1856 86.3856L76.0176 86.232H76.248L101.76 86.4H102.293L102.326 86.4336L109.79 93.6336L110.002 93.84H109.709L91.368 93.792L86.088 93.7584H84.6816H84.3216C84.2733 93.7417 84.2279 93.7174 84.1872 93.6864Z" fill="#263238"/>
<path d="M100.09 89.136C100.09 89.2032 96.2496 89.2608 91.5696 89.2608C86.8896 89.2608 83.04 89.2032 83.04 89.136C83.04 89.0688 86.856 89.0112 91.56 89.0112C96.264 89.0112 100.09 89.064 100.09 89.136Z" fill="#263238"/>
<path d="M101.976 90.8928C101.976 90.96 98.16 91.0176 93.456 91.0176C88.752 91.0176 84.96 90.96 84.96 90.8928C84.96 90.8256 88.7712 90.768 93.48 90.768C98.1888 90.768 101.976 90.8256 101.976 90.8928Z" fill="#263238"/>
<path d="M103.68 92.5872C103.68 92.6544 99.864 92.712 95.16 92.712C90.456 92.712 86.6352 92.6544 86.6352 92.5872C86.6352 92.52 90.4512 92.4624 95.16 92.4624C99.8688 92.4624 103.68 92.5152 103.68 92.5872Z" fill="#263238"/>
<path d="M101.544 99.36C101.544 99.4272 97.608 99.4848 92.7504 99.4848C87.8928 99.4848 83.9568 99.4272 83.9568 99.36C83.9568 99.2928 87.8928 99.2352 92.7504 99.2352C97.608 99.2352 101.544 99.3072 101.544 99.36Z" fill="#263238"/>
<path d="M103.546 97.3776C103.546 97.4448 99.6096 97.5024 94.752 97.5024C89.8944 97.5024 85.9584 97.4448 85.9584 97.3776C85.9584 97.3104 89.8944 97.2528 94.752 97.2528C99.6096 97.2528 103.546 97.3056 103.546 97.3776Z" fill="#263238"/>
<path d="M206.755 48.8352C206.755 48.9024 171.389 48.96 127.776 48.96C84.1632 48.96 48.792 48.9024 48.792 48.8352C48.792 48.768 84.1488 48.7104 127.776 48.7104C171.403 48.7104 206.755 48.768 206.755 48.8352Z" fill="#263238"/>
<path d="M57.8544 42.2784C57.8544 42.6021 57.7584 42.9186 57.5786 43.1878C57.3987 43.4569 57.1431 43.6667 56.844 43.7906C56.5449 43.9145 56.2158 43.9469 55.8983 43.8838C55.5808 43.8206 55.2891 43.6647 55.0602 43.4358C54.8313 43.2069 54.6754 42.9152 54.6123 42.5977C54.5491 42.2802 54.5815 41.9511 54.7054 41.652C54.8293 41.3529 55.0391 41.0973 55.3083 40.9175C55.5774 40.7376 55.8939 40.6416 56.2176 40.6416C56.6517 40.6416 57.068 40.814 57.375 41.121C57.682 41.428 57.8544 41.8443 57.8544 42.2784Z" fill="#3583F0"/>
<path d="M63.2208 42.2784C63.2208 42.6021 63.1248 42.9186 62.945 43.1878C62.7651 43.4569 62.5095 43.6667 62.2104 43.7906C61.9113 43.9145 61.5822 43.9469 61.2647 43.8838C60.9472 43.8206 60.6555 43.6647 60.4266 43.4358C60.1977 43.2069 60.0418 42.9152 59.9787 42.5977C59.9155 42.2802 59.9479 41.9511 60.0718 41.652C60.1957 41.3529 60.4055 41.0973 60.6746 40.9175C60.9438 40.7376 61.2603 40.6416 61.584 40.6416C62.0181 40.6416 62.4344 40.814 62.7414 41.121C63.0484 41.428 63.2208 41.8443 63.2208 42.2784Z" fill="#3583F0"/>
<path d="M68.5872 42.2784C68.5872 42.6021 68.4912 42.9186 68.3113 43.1878C68.1315 43.4569 67.8759 43.6667 67.5768 43.7906C67.2777 43.9145 66.9486 43.9469 66.6311 43.8838C66.3136 43.8206 66.0219 43.6647 65.793 43.4358C65.5641 43.2069 65.4082 42.9152 65.3451 42.5977C65.2819 42.2802 65.3143 41.9511 65.4382 41.652C65.5621 41.3529 65.7719 41.0973 66.041 40.9175C66.3102 40.7376 66.6267 40.6416 66.9504 40.6416C67.3845 40.6416 67.8008 40.814 68.1078 41.121C68.4147 41.428 68.5872 41.8443 68.5872 42.2784Z" fill="#3583F0"/>
<path d="M118.666 43.9417V41.4505L117.446 43.5001H117.014L115.795 41.5033V43.9417H114.893V39.7945H115.68L117.235 42.3721L118.762 39.7945H119.549V43.9417H118.666Z" fill="#263238"/>
<path d="M123.653 40.7545L122.213 44.1145C121.901 44.8873 121.464 45.1177 120.888 45.1177C120.572 45.1327 120.26 45.0433 120 44.8633L120.336 44.2057C120.483 44.3284 120.668 44.3978 120.859 44.4025C121.114 44.4025 121.258 44.2921 121.382 44.0089V43.9801L120 40.7545H120.96L121.858 42.9145L122.755 40.7545H123.653Z" fill="#263238"/>
<path d="M128.41 40.5433V41.6377H130.33V42.4105H128.41V43.9225H127.45V39.7945H130.584V40.5433H128.41Z" fill="#263238"/>
<path d="M130.997 39.7945C130.999 39.7219 131.015 39.6505 131.045 39.5846C131.076 39.5187 131.119 39.4596 131.173 39.4111C131.227 39.3625 131.29 39.3255 131.359 39.3023C131.428 39.2791 131.5 39.2702 131.573 39.2761C131.642 39.2681 131.713 39.2744 131.78 39.2945C131.847 39.3145 131.91 39.348 131.963 39.3929C132.017 39.4378 132.061 39.4931 132.093 39.5555C132.125 39.6179 132.144 39.6862 132.149 39.7561C132.131 39.896 132.062 40.0246 131.956 40.1178C131.85 40.211 131.714 40.2624 131.573 40.2624C131.432 40.2624 131.295 40.211 131.189 40.1178C131.083 40.0246 131.015 39.896 130.997 39.7561V39.7945ZM131.112 40.7545H132.034V43.9417H131.112V40.7545Z" fill="#263238"/>
<path d="M132.893 39.5449H133.819V43.9417H132.893V39.5449Z" fill="#263238"/>
<path d="M137.784 42.6073H135.384C135.433 42.8062 135.552 42.9805 135.72 43.098C135.888 43.2154 136.092 43.2679 136.296 43.2457C136.443 43.2516 136.589 43.2274 136.726 43.1746C136.863 43.1218 136.988 43.0414 137.093 42.9385L137.573 43.4713C137.405 43.6489 137.2 43.7874 136.973 43.8769C136.746 43.9665 136.501 44.005 136.258 43.9897C135.154 43.9897 134.438 43.2937 134.438 42.3481C134.436 42.1268 134.478 41.9073 134.563 41.703C134.648 41.4987 134.774 41.314 134.933 41.1602C135.093 41.0065 135.281 40.8869 135.489 40.8089C135.696 40.7308 135.917 40.696 136.138 40.7065C136.358 40.6948 136.578 40.7295 136.784 40.8082C136.991 40.887 137.178 41.008 137.334 41.1636C137.491 41.3192 137.613 41.5058 137.693 41.7115C137.773 41.9171 137.809 42.1373 137.798 42.3577C137.803 42.4297 137.789 42.5305 137.784 42.6073ZM135.36 42.0697H136.93C136.897 41.8851 136.801 41.7178 136.657 41.5973C136.514 41.4767 136.332 41.4107 136.145 41.4107C135.957 41.4107 135.776 41.4767 135.632 41.5973C135.489 41.7178 135.392 41.8851 135.36 42.0697Z" fill="#263238"/>
<path d="M138.11 43.6441L138.418 42.9817C138.753 43.1807 139.136 43.2867 139.526 43.2889C139.954 43.2889 140.112 43.1737 140.112 42.9961C140.112 42.4777 138.192 42.9961 138.192 41.7337C138.192 41.1337 138.739 40.7065 139.666 40.7065C140.092 40.6982 140.513 40.7937 140.894 40.9849L140.587 41.6425C140.306 41.4833 139.988 41.4006 139.666 41.4025C139.253 41.4025 139.075 41.5321 139.075 41.7001C139.075 42.2473 140.995 41.7001 140.995 42.9721C140.995 43.5673 140.443 43.9897 139.493 43.9897C139.01 43.999 138.532 43.8798 138.11 43.6441Z" fill="#263238"/>
<path d="M145.69 73.152V98.2704H176.222V73.152C176.222 72.5778 175.994 72.0272 175.588 71.6212C175.182 71.2153 174.632 70.9872 174.058 70.9872H147.84C147.268 70.9897 146.72 71.2191 146.317 71.6249C145.914 72.0308 145.688 72.5799 145.69 73.152Z" fill="#4ED187"/>
<path d="M147.12 84.6288L147.322 75.4032H174.043V80.6688" fill="#F5F5F5"/>
<path d="M174.043 80.6688C174.036 80.5489 174.036 80.4287 174.043 80.3088C174.043 80.0544 174.043 79.7088 174.043 79.272C174.043 78.3456 174.019 77.0352 174.005 75.408L174.086 75.4896L158.726 75.5328L147.346 75.5088L147.451 75.408C147.374 78.1728 147.307 80.472 147.259 82.128C147.23 82.9152 147.206 83.5392 147.192 83.9952C147.192 84.1968 147.192 84.3552 147.163 84.4752C147.171 84.5309 147.171 84.5875 147.163 84.6432C147.156 84.5874 147.156 84.531 147.163 84.4752C147.163 84.3456 147.163 84.1824 147.163 83.9952C147.163 83.5392 147.163 82.9152 147.163 82.128C147.187 80.4912 147.226 78.192 147.269 75.408V75.3072H147.37H158.75L174.11 75.3504H174.197V75.4368C174.197 77.064 174.168 78.3744 174.163 79.3008C174.163 79.7376 174.163 80.0832 174.139 80.3376C174.116 80.4504 174.084 80.5612 174.043 80.6688Z" fill="#263238"/>
<path d="M172.411 72.912H149.064V75.4032H172.411V72.912Z" fill="#F5F5F5"/>
<path d="M149.064 72.912H149.174H149.51H150.835L155.77 72.8736L172.406 72.8208H172.531V75.4368L172.402 75.5664H164.962H158.371L149.064 75.5184H149.011V75.4704C149.011 74.664 149.021 74.04 149.04 73.5984C149.04 73.4016 149.04 73.248 149.04 73.1184C149.032 73.0675 149.032 73.0157 149.04 72.9648C149.04 72.9648 149.04 73.0272 149.04 73.1376C149.04 73.248 149.04 73.4208 149.04 73.6176C149.04 74.0544 149.04 74.6688 149.074 75.4608L149.021 75.4032L158.328 75.3552H164.918H172.358C172.306 75.4128 172.488 75.2352 172.238 75.48V72.912L172.363 73.0368L155.818 72.984L150.898 72.96H149.544H149.189L149.064 72.912Z" fill="#263238"/>
<path d="M143.338 80.0928L145.69 98.2704H176.222V80.6688H162.355L159.667 78.3024H144.912C144.686 78.3026 144.464 78.3509 144.258 78.4439C144.053 78.5369 143.869 78.6727 143.72 78.842C143.572 79.0114 143.46 79.2105 143.394 79.4262C143.328 79.6418 143.309 79.8691 143.338 80.0928Z" fill="#4ED187"/>
<path d="M76.4832 127.714V152.837H107.04V127.714C107.04 127.139 106.812 126.589 106.406 126.183C106 125.777 105.449 125.549 104.875 125.549H78.648C78.0738 125.549 77.5232 125.777 77.1172 126.183C76.7113 126.589 76.4832 127.139 76.4832 127.714Z" fill="#FF5C5D"/>
<path d="M77.9136 139.195L78.12 129.97H104.837V135.235" fill="#F5F5F5"/>
<path d="M104.837 135.235C104.829 135.115 104.829 134.995 104.837 134.875C104.837 134.616 104.837 134.275 104.813 133.838C104.813 132.912 104.813 131.602 104.774 129.97L104.856 130.056L89.496 130.094H78.12L78.2208 129.994C78.144 132.758 78.0768 135.058 78.0288 136.714C78 137.501 77.976 138.125 77.9616 138.581C77.9616 138.778 77.9616 138.941 77.9616 139.061C77.9616 139.181 77.9616 139.229 77.9376 139.229C77.9303 139.173 77.9303 139.117 77.9376 139.061C77.9376 138.931 77.9376 138.768 77.9376 138.581C77.9376 138.13 77.9376 137.501 77.9376 136.714C77.9664 135.082 78 132.782 78.0432 129.994V129.893H78.1488L89.5248 129.869L104.885 129.912H104.971V129.994C104.971 131.626 104.942 132.936 104.933 133.862C104.933 134.299 104.933 134.64 104.933 134.899C104.913 135.014 104.881 135.127 104.837 135.235Z" fill="#263238"/>
<path d="M103.205 127.478H79.8576V129.97H103.205V127.478Z" fill="#F5F5F5"/>
<path d="M79.8576 127.478C79.8576 127.478 79.8912 127.478 79.968 127.478H80.304H81.6288L86.5632 127.44L103.205 127.387H103.33V130.003C103.08 130.258 103.253 130.075 103.195 130.128H95.7552H89.1696L79.8576 130.075H79.8048V130.022C79.8048 129.221 79.8288 128.582 79.8336 128.155C79.8336 127.958 79.8336 127.805 79.8336 127.675C79.8288 127.624 79.8288 127.573 79.8336 127.522C79.8373 127.579 79.8373 127.637 79.8336 127.694C79.8336 127.814 79.8336 127.973 79.8336 128.174C79.8336 128.611 79.8336 129.226 79.8624 130.013L79.8096 129.96L89.1216 129.912H95.7072H103.2C103.147 129.97 103.334 129.792 103.085 130.037V127.546L103.21 127.67L86.6592 127.618L81.696 127.579H80.3424H79.9872L79.8576 127.478Z" fill="#263238"/>
<path d="M74.1312 134.659L76.4832 152.837H107.04V135.235H93.1488L90.4608 132.869H75.7104C75.4844 132.868 75.261 132.916 75.055 133.009C74.849 133.102 74.6651 133.237 74.5156 133.407C74.3662 133.576 74.2546 133.775 74.1883 133.991C74.122 134.207 74.1025 134.435 74.1312 134.659Z" fill="#FF5C5D"/>
<path d="M144 127.733V152.851H174.518V127.733C174.518 127.159 174.29 126.608 173.884 126.202C173.478 125.796 172.928 125.568 172.354 125.568H146.146C145.575 125.573 145.029 125.803 144.627 126.209C144.225 126.614 144 127.162 144 127.733Z" fill="#FFD130"/>
<path d="M145.435 139.21L145.637 129.989H172.358V135.25" fill="#F5F5F5"/>
<path d="M172.358 135.25C172.34 135.13 172.332 135.01 172.334 134.89C172.334 134.635 172.334 134.29 172.31 133.853C172.31 132.926 172.31 131.616 172.277 129.989L172.358 130.07L156.998 130.114L145.637 130.08L145.742 129.979C145.661 132.744 145.598 135.043 145.55 136.675C145.522 137.462 145.498 138.091 145.478 138.542C145.478 138.744 145.478 138.902 145.454 139.022C145.459 139.078 145.459 139.135 145.454 139.19C145.448 139.135 145.448 139.078 145.454 139.022C145.454 138.893 145.454 138.73 145.454 138.542C145.454 138.086 145.454 137.462 145.454 136.675C145.478 135.038 145.512 132.739 145.555 129.955V129.854H145.656H157.037L172.397 129.893H172.478V129.979C172.478 131.606 172.45 132.917 172.44 133.843C172.44 134.28 172.44 134.626 172.44 134.88C172.424 135.005 172.397 135.129 172.358 135.25Z" fill="#263238"/>
<path d="M170.722 127.493H147.374V129.984H170.722V127.493Z" fill="#F5F5F5"/>
<path d="M147.374 127.493H147.485H147.826H149.15L154.085 127.454L170.722 127.402H170.846V130.018C170.597 130.272 170.774 130.09 170.717 130.147H163.277H156.686L147.374 130.099H147.322V130.046C147.322 129.24 147.346 128.606 147.355 128.174C147.355 127.978 147.355 127.824 147.355 127.694C147.355 127.565 147.355 127.541 147.355 127.541C147.361 127.598 147.361 127.656 147.355 127.714C147.355 127.838 147.355 127.997 147.355 128.194C147.355 128.629 147.365 129.243 147.384 130.037L147.331 129.984L156.643 129.931H163.234H170.674C170.621 129.984 170.803 129.806 170.554 130.051V127.56L170.678 127.685L154.133 127.632L149.165 127.594H147.816H147.461L147.374 127.493Z" fill="#263238"/>
<path d="M166.133 144.158C166.133 144.226 162.773 144.283 158.664 144.283C154.555 144.283 151.195 144.226 151.195 144.158C151.195 144.091 154.555 144.034 158.664 144.034C162.773 144.034 166.133 144.086 166.133 144.158Z" fill="#263238"/>
<path d="M32.2752 124.8C31.7952 126.917 29.3952 128.021 27.9168 129.6C26.4384 131.179 24.2592 132.48 22.1808 131.875C20.8128 131.467 19.7808 130.286 19.1904 128.995C17.808 125.971 18.4656 122.424 19.5024 119.261C20.5392 116.098 21.9408 112.978 21.9984 109.661L28.9632 111.998L30.6816 109.886C30.6816 109.886 32.64 123.259 32.2752 124.8Z" fill="#FFBE9D"/>
<path d="M59.4048 106.795C59.4048 106.795 63.6192 123.667 67.6416 126.144C72.7344 129.274 75.7104 125.549 75.7104 125.549L83.6784 110.962L78.24 109.603L72.96 116.275L69.264 106.166L59.4048 106.795Z" fill="#FFBE9D"/>
<path d="M53.28 176.947C53.28 177.514 53.952 185.856 53.952 185.856C53.1613 188.479 52.7096 191.192 52.608 193.93C52.4256 201.71 52.4976 218.472 52.4976 218.472H60.8064V217.512C60.8064 217.512 65.184 188.266 65.0304 185.4L64.4496 174.528L53.2752 176.928" fill="#FFBE9D"/>
<path d="M46.5216 163.987L32.6928 166.325C32.6928 166.325 34.0896 170.112 34.1904 170.482C34.5552 171.835 35.352 175.334 34.8816 178.613C34.2864 182.794 33.7584 187.867 34.0224 190.253C34.2864 192.638 36.9024 217.781 36.9024 217.781L45.144 218.035L47.1456 171.754L46.5216 163.987Z" fill="#FFBE9D"/>
<path d="M40.7424 64.2384L40.6656 89.1408L51.36 89.6496L51.6672 83.592C51.6672 83.592 55.464 84.3456 56.4432 80.8224C57.0672 78.5712 56.9232 61.1712 56.9232 61.1712L40.7424 64.2384Z" fill="#FFBE9D"/>
<path d="M58.3104 62.928C56.6256 63.408 56.2608 66.1584 56.2608 66.1584L53.6208 72C52.2768 70.944 50.472 71.0064 50.1264 73.368C49.8816 75.0768 52.0032 75.4224 52.0032 75.4224C50.7696 77.5248 49.9296 79.224 48.1296 81.2256C46.2096 83.3904 45.0912 83.6256 42.9792 83.6256H40.6512C40.6512 83.6256 39.5088 79.9248 37.4016 70.6656C35.04 60.4128 47.1984 61.7328 49.44 59.112C53.1168 54.8448 63.6144 61.4064 58.3104 62.928Z" fill="#263238"/>
<path d="M37.6224 71.6496C35.6544 70.3248 35.4768 66.6288 36.624 64.4064C37.2141 63.3008 38.0852 62.3704 39.1496 61.7089C40.2139 61.0473 41.4339 60.6781 42.6864 60.6384C43.0215 60.6604 43.3579 60.623 43.68 60.528C44.1201 60.2948 44.4884 59.9464 44.7456 59.52C46.5024 57.2304 48.2304 54.984 51.5088 54.984C52.2321 54.9509 52.9494 55.1294 53.5728 55.4976C54.1514 55.8953 54.5858 56.4695 54.8112 57.1344C55.4139 56.8122 56.0609 56.5809 56.7312 56.448C57.0669 56.3843 57.4124 56.3943 57.7439 56.4772C58.0754 56.56 58.385 56.7138 58.6512 56.928C58.9125 57.1491 59.0864 57.4561 59.1418 57.7939C59.1972 58.1317 59.1305 58.4781 58.9536 58.7712C59.5056 58.7638 60.0423 58.9528 60.4679 59.3045C60.8934 59.6562 61.1801 60.1477 61.2768 60.6912C61.4544 61.7856 59.8848 62.5536 59.7216 62.64C59.7216 62.64 60.5808 64.44 58.5312 65.52C57.7056 65.9568 56.6112 65.4336 56.5104 65.3712" fill="#263238"/>
<path d="M31.5024 143.582C31.5024 143.582 31.1088 153.85 31.5024 156.97C31.896 160.09 31.3296 178.954 31.3296 178.954C31.3296 178.954 45.8112 183.168 49.7136 178.171C49.7136 178.171 48.1344 155.251 47.976 154.627C47.8176 154.003 46.536 138.384 46.536 138.384L31.5024 143.582Z" fill="#262424"/>
<path d="M64.536 138.384C65.3856 141.038 67.1904 151.037 67.1904 151.037V177.533C67.1904 177.533 54.6432 182.069 49.6416 179.822L46.56 153.221V139.435L56.88 135.418L64.536 138.384Z" fill="#262424"/>
<path d="M61.9488 116.688C61.824 116.309 60.4272 108.317 60.4272 108.317L70.704 108.062C70.704 108.062 66.192 90.4368 63.7344 89.136C59.9232 87.12 51.5472 86.8752 51.5472 86.8752H40.7616C40.7616 86.8752 28.8384 90.1728 26.6784 93.7248L18.5455 109.091L28.9632 111.994L30.6816 109.882L32.3904 124.8C32.3904 124.8 31.3728 138.24 31.3728 140.275C31.3728 142.31 31.5024 143.573 31.5024 143.573C31.5024 143.573 53.9184 137.486 59.376 139.253C64.8336 141.019 65.6448 142.69 65.6448 142.69C65.6448 142.69 66.1248 136.709 64.8672 134.424L61.9488 116.688Z" fill="#3583F0"/>
<g opacity="0.3">
<path d="M28.1232 102.797C28.1232 102.797 28.7664 108.931 28.9632 111.994L30.6816 109.882C30.6816 109.882 28.9968 103.565 28.1232 102.797Z" fill="black"/>
</g>
<path d="M21.3168 136.987C21.2037 137.017 21.0854 137.022 20.9702 137.001C20.855 136.981 20.7455 136.936 20.6493 136.87C20.5531 136.803 20.4724 136.716 20.4128 136.616C20.3532 136.515 20.3161 136.403 20.304 136.286L18.1632 116.006C18.0986 115.411 18.2495 114.813 18.5886 114.32C18.9277 113.826 19.4325 113.471 20.0112 113.318L30.72 110.438L32.5056 126.053L31.7088 134.275L21.3168 136.987Z" fill="#FF8437"/>
<g opacity="0.3">
<path d="M31.7088 134.275C31.0464 132.989 31.3056 131.472 31.4544 130.032C32.16 123.398 29.28 116.952 30.72 110.438C30.72 110.438 32.16 122.851 32.5056 126.053L31.7088 134.275Z" fill="black"/>
</g>
<path d="M74.88 122.822C74.7229 121.698 74.4774 120.587 74.1456 119.501C73.5312 117.725 72.8208 116.352 72.9024 116.314C73.1121 116.578 73.2864 116.868 73.4208 117.178C73.7982 117.899 74.1192 118.648 74.3808 119.419C74.648 120.196 74.8204 121.001 74.8944 121.819C74.9459 122.152 74.941 122.491 74.88 122.822Z" fill="#EB996E"/>
<path d="M78.24 109.603C78.24 109.603 77.1984 103.162 77.76 102.144L81.9936 96.864C81.9936 96.864 82.7184 97.8576 82.416 98.7456C82.0871 99.5005 81.668 100.213 81.168 100.867C81.168 100.867 83.568 100.805 84.2688 101.669C84.5429 102.214 84.6983 102.811 84.7248 103.421C84.7429 103.69 84.655 103.955 84.48 104.16L83.8752 104.904C85.0512 109.882 83.5584 111.077 83.5584 111.077L78.24 109.603Z" fill="#FFBE9D"/>
<path d="M83.04 101.069C83.04 101.098 82.9248 101.208 82.728 101.395C82.4682 101.615 82.2643 101.893 82.1328 102.206C82.0066 102.533 81.9118 102.87 81.8496 103.214C81.792 103.478 81.8208 103.632 81.7872 103.646C81.7536 103.661 81.6624 103.488 81.672 103.195C81.6872 102.825 81.7634 102.46 81.8976 102.115C82.0423 101.761 82.294 101.46 82.6176 101.256C82.8336 101.098 83.0016 101.04 83.04 101.069Z" fill="#EB996E"/>
<path d="M77.5872 103.325C77.5872 103.147 77.4384 103.325 77.28 103.382C77.0949 103.526 76.9523 103.716 76.8672 103.934C76.6289 104.657 76.6106 105.434 76.8144 106.166C77.0256 107.155 77.6208 107.722 78.1248 108.6" fill="#FFBE9D"/>
<path d="M81.3168 100.8C81.3792 100.862 80.8848 101.28 80.4624 101.933C80.2873 102.202 80.1682 102.504 80.112 102.821C80.0736 103.066 80.088 103.224 80.0544 103.234C80.0208 103.243 79.9392 103.085 79.9344 102.806C79.9437 102.447 80.0534 102.098 80.2512 101.798C80.4414 101.505 80.6781 101.244 80.952 101.026C81.1536 100.872 81.2928 100.8 81.3168 100.8Z" fill="#EB996E"/>
<path d="M78.1248 107.611C78.0191 107.368 77.9481 107.111 77.9136 106.848C77.8128 106.368 77.6784 105.71 77.5824 104.971C77.414 104.076 77.4369 103.155 77.6496 102.269C77.7168 102.269 77.6256 103.474 77.832 104.938C78.0384 106.402 78.2112 107.602 78.1248 107.611Z" fill="#EB996E"/>
<path d="M84.2688 101.789C84.3024 101.789 84.4368 102.034 84.5712 102.485C84.651 102.747 84.712 103.015 84.7536 103.286C84.8227 103.637 84.7825 104.001 84.6384 104.328C84.5587 104.504 84.4347 104.656 84.2784 104.77C84.202 104.825 84.1179 104.868 84.0288 104.899C83.9703 104.912 83.9097 104.912 83.8512 104.899C83.8162 104.891 83.7832 104.876 83.7543 104.854C83.7254 104.833 83.7012 104.806 83.6832 104.774C83.5804 104.51 83.5095 104.235 83.472 103.954C83.4082 103.705 83.4082 103.444 83.472 103.195C83.552 103.431 83.6099 103.674 83.6448 103.92C83.705 104.172 83.7853 104.42 83.8848 104.659C83.8848 104.659 83.8848 104.659 83.9568 104.659C84.0211 104.638 84.0812 104.605 84.1344 104.563C84.2543 104.47 84.3485 104.348 84.408 104.208C84.5355 103.925 84.5756 103.611 84.5232 103.306C84.4896 103.008 84.4416 102.739 84.3984 102.514C84.3298 102.277 84.2864 102.034 84.2688 101.789Z" fill="#EB996E"/>
<path d="M52.464 217.69V227.218L71.5776 226.93C71.4384 225.01 60.9936 221.338 60.9936 221.338L61.2048 217.69H52.464Z" fill="#A5A5A5"/>
<g opacity="0.6">
<path d="M55.5744 220.478C55.3849 220.547 55.2268 220.682 55.1296 220.859C55.0325 221.036 55.0029 221.242 55.0464 221.438C55.0922 221.629 55.2106 221.795 55.3764 221.899C55.5423 222.004 55.7424 222.04 55.9344 222C56.1332 221.926 56.2985 221.783 56.4 221.597C56.5014 221.411 56.5321 221.194 56.4864 220.987C56.454 220.891 56.4027 220.801 56.3355 220.725C56.2683 220.648 56.1866 220.586 56.095 220.541C56.0034 220.496 55.9038 220.47 55.8021 220.465C55.7004 220.459 55.5985 220.473 55.5024 220.507" fill="white"/>
</g>
<path d="M52.464 227.218L52.4976 225.576L70.8096 225.912C70.8096 225.912 71.664 226.291 71.5776 226.93L52.464 227.218Z" fill="#263238"/>
<path d="M60.9936 221.525C60.9936 221.621 60.5136 221.674 60.072 222.005C59.6304 222.336 59.3808 222.749 59.2944 222.71C59.208 222.672 59.3376 222.101 59.8944 221.717C60.4512 221.333 61.0128 221.434 60.9936 221.525Z" fill="#263238"/>
<path d="M63.5136 222.403C63.5136 222.499 63.1344 222.677 62.8224 223.099C62.5104 223.522 62.424 223.963 62.3424 223.963C62.2608 223.963 62.1792 223.402 62.5776 222.883C62.976 222.365 63.5088 222.312 63.5136 222.403Z" fill="#263238"/>
<path d="M64.6416 224.832C64.56 224.856 64.4208 224.352 64.6416 223.819C64.8624 223.286 65.304 223.051 65.3472 223.133C65.3904 223.214 65.1216 223.507 64.9344 223.958C64.7472 224.41 64.7376 224.822 64.6416 224.832Z" fill="#263238"/>
<path d="M60.8064 218.813C60.768 218.904 60.3264 218.774 59.8128 218.813C59.2992 218.851 58.8528 219.038 58.8528 218.957C58.8528 218.875 59.1936 218.515 59.8128 218.477C60.432 218.438 60.8544 218.736 60.8064 218.813Z" fill="#263238"/>
<path d="M45.0768 217.522L45.4656 220.488L45.2064 227.174L36.4944 227.386L36.1824 220.488L36.552 217.522H45.0768Z" fill="#A5A5A5"/>
<path d="M45.2016 226.061L36.4848 226.243L36.4944 227.386L45.2064 227.174L45.2016 226.061Z" fill="#263238"/>
</g>
<defs>
<clipPath id="clip0_670_25816">
<rect width="240" height="240" fill="white"/>
</clipPath>
</defs>
</svg>
