<svg width="240" height="240" viewBox="0 0 240 240" fill="none" xmlns="http://www.w3.org/2000/svg">
<path d="M202.013 69.8112L201.024 68.1984C192.686 54.6336 177.6 46.4592 161.726 47.448C159.68 47.5768 157.646 47.8527 155.64 48.2736C141.197 51.3312 128.626 62.1168 123.413 75.936C120.346 84.0624 119.491 93.4176 113.678 99.8688C106.109 108.259 93.2592 108.509 81.96 108.178C70.6608 107.846 57.8064 108.125 50.28 116.554C45.5616 121.834 44.064 129.336 44.4432 136.406C45.4512 155.126 58.656 171.85 75.4512 180.168C92.2464 188.486 112.018 189.23 130.397 185.573C156.144 180.446 180.634 166.373 195.35 144.634C210.067 122.894 213.787 93.2736 202.013 69.8112Z" fill="#F5F5F5"/>
<path d="M198.35 141.182H41.2848C35.3095 141.182 30.4656 146.026 30.4656 152.002V153.648C30.4656 159.623 35.3095 164.467 41.2848 164.467H198.35C204.326 164.467 209.17 159.623 209.17 153.648V152.002C209.17 146.026 204.326 141.182 198.35 141.182Z" fill="#FAFAFA"/>
<path d="M167.928 141.182H198.744C201.508 141.182 204.158 142.28 206.113 144.235C208.067 146.189 209.165 148.839 209.165 151.603V154.042C209.165 156.805 208.067 159.456 206.113 161.41C204.158 163.364 201.508 164.462 198.744 164.462H167.928V141.182Z" fill="#3583F0"/>
<path d="M50.1984 153.322V156.398H48.96V153.48C48.96 152.52 48.48 152.064 47.6832 152.064C46.7904 152.064 46.1856 152.606 46.1856 153.682V156.398H44.9088V148.934H46.1664V151.651C46.402 151.421 46.6826 151.241 46.9907 151.124C47.2987 151.007 47.6276 150.954 47.9568 150.97C49.2432 150.97 50.1984 151.704 50.1984 153.322Z" fill="#263238"/>
<path d="M55.0272 156.106C54.6759 156.355 54.2529 156.483 53.8224 156.47C52.6464 156.47 51.9696 155.846 51.9696 154.656V152.074H51.0864V151.07H51.9696V149.842H53.2272V151.07H54.6672V152.074H53.2272V154.627C53.2272 155.15 53.4912 155.434 53.9712 155.434C54.2243 155.44 54.4725 155.363 54.6768 155.213L55.0272 156.106Z" fill="#263238"/>
<path d="M59.16 156.106C58.809 156.355 58.3859 156.484 57.9552 156.47C56.7792 156.47 56.1072 155.846 56.1072 154.656V152.074H55.2V151.07H56.088V149.842H57.3408V151.07H58.7808V152.074H57.3408V154.627C57.3408 155.15 57.6048 155.434 58.0848 155.434C58.338 155.44 58.5862 155.363 58.7904 155.213L59.16 156.106Z" fill="#263238"/>
<path d="M65.8992 153.715C65.9189 154.079 65.8623 154.444 65.7329 154.785C65.6036 155.125 65.4044 155.436 65.1481 155.695C64.8918 155.955 64.5842 156.158 64.2448 156.291C63.9054 156.425 63.5419 156.486 63.1776 156.47C62.8549 156.482 62.5337 156.423 62.2361 156.298C61.9385 156.173 61.6717 155.984 61.4544 155.746V158.347H60.1968V151.027H61.3968V151.733C61.6163 151.479 61.8907 151.278 62.1992 151.146C62.5077 151.014 62.8423 150.953 63.1776 150.97C63.5413 150.954 63.9043 151.014 64.2433 151.147C64.5823 151.279 64.8898 151.481 65.1461 151.74C65.4023 151.999 65.6017 152.308 65.7314 152.648C65.8611 152.988 65.9183 153.352 65.8992 153.715ZM64.6224 153.715C64.6064 153.404 64.4994 153.104 64.3147 152.853C64.13 152.601 63.8756 152.41 63.5831 152.302C63.2906 152.194 62.9728 152.174 62.6691 152.245C62.3654 152.316 62.0892 152.474 61.8746 152.7C61.66 152.926 61.5165 153.211 61.4619 153.518C61.4073 153.825 61.4439 154.141 61.5673 154.427C61.6907 154.714 61.8954 154.958 62.156 155.129C62.4166 155.3 62.7218 155.391 63.0336 155.39C63.2509 155.395 63.4668 155.354 63.6674 155.27C63.8681 155.187 64.049 155.062 64.1985 154.904C64.3481 154.747 64.4631 154.559 64.5361 154.355C64.6091 154.15 64.6385 153.932 64.6224 153.715Z" fill="#263238"/>
<path d="M66.6768 151.8C66.6681 151.687 66.683 151.573 66.7204 151.465C66.7578 151.358 66.8171 151.259 66.8944 151.176C66.9716 151.093 67.0653 151.026 67.1695 150.981C67.2738 150.935 67.3863 150.911 67.5 150.911C67.6137 150.911 67.7262 150.935 67.8304 150.981C67.9346 151.026 68.0283 151.093 68.1056 151.176C68.1829 151.259 68.2421 151.358 68.2795 151.465C68.317 151.573 68.3318 151.687 68.3232 151.8C68.3318 151.913 68.317 152.027 68.2795 152.135C68.2421 152.242 68.1829 152.341 68.1056 152.424C68.0283 152.507 67.9346 152.574 67.8304 152.619C67.7262 152.665 67.6137 152.689 67.5 152.689C67.3863 152.689 67.2738 152.665 67.1695 152.619C67.0653 152.574 66.9716 152.507 66.8944 152.424C66.8171 152.341 66.7578 152.242 66.7204 152.135C66.683 152.027 66.6681 151.913 66.6768 151.8ZM66.6768 155.64C66.6681 155.527 66.683 155.413 66.7204 155.305C66.7578 155.198 66.8171 155.099 66.8944 155.016C66.9716 154.933 67.0653 154.866 67.1695 154.821C67.2738 154.775 67.3863 154.751 67.5 154.751C67.6137 154.751 67.7262 154.775 67.8304 154.821C67.9346 154.866 68.0283 154.933 68.1056 155.016C68.1829 155.099 68.2421 155.198 68.2795 155.305C68.317 155.413 68.3318 155.527 68.3232 155.64C68.3318 155.753 68.317 155.867 68.2795 155.975C68.2421 156.082 68.1829 156.181 68.1056 156.264C68.0283 156.347 67.9346 156.414 67.8304 156.459C67.7262 156.505 67.6137 156.529 67.5 156.529C67.3863 156.529 67.2738 156.505 67.1695 156.459C67.0653 156.414 66.9716 156.347 66.8944 156.264C66.8171 156.181 66.7578 156.082 66.7204 155.975C66.683 155.867 66.6681 155.753 66.6768 155.64Z" fill="#263238"/>
<path d="M72.2496 147.931H73.3728L70.08 157.402H68.928L72.2496 147.931Z" fill="#263238"/>
<path d="M75.2736 147.931H76.4016L73.0848 157.402H71.9568L75.2736 147.931Z" fill="#263238"/>
<path d="M84.888 151.027L82.9104 156.398H81.7008L80.3136 152.698L78.9072 156.398H77.6976L75.7296 151.027H76.9152L78.3312 154.992L79.8096 151.027H80.8656L82.3056 155.011L83.7456 151.027H84.888Z" fill="#263238"/>
<path d="M94.032 151.027L92.0496 156.398H90.8448L89.4576 152.698L88.0464 156.398H86.8416L84.8688 151.027H86.0592L87.4992 154.992L88.9776 151.027H90.0336L91.4736 155.011L92.9136 151.027H94.032Z" fill="#263238"/>
<path d="M103.2 151.027L101.218 156.398H100.013L98.6256 152.698L97.2144 156.398H96L94.0272 151.027H95.2128L96.6528 154.992L98.1312 151.027H99.1872L100.627 155.011L102.067 151.027H103.2Z" fill="#263238"/>
<path d="M103.286 155.635C103.286 155.416 103.373 155.206 103.528 155.051C103.683 154.897 103.893 154.81 104.112 154.81C104.331 154.81 104.541 154.897 104.696 155.051C104.851 155.206 104.938 155.416 104.938 155.635C104.938 155.854 104.851 156.064 104.696 156.219C104.541 156.374 104.331 156.461 104.112 156.461C103.893 156.461 103.683 156.374 103.528 156.219C103.373 156.064 103.286 155.854 103.286 155.635Z" fill="#263238"/>
<path d="M198.346 164.462L199.339 164.405C199.666 164.371 200.069 164.299 200.549 164.222C201.099 164.101 201.639 163.941 202.166 163.742C203.648 163.181 204.987 162.299 206.088 161.16C206.784 160.43 207.381 159.612 207.864 158.726C208.397 157.711 208.767 156.617 208.958 155.486C209.136 154.215 209.185 152.928 209.102 151.646C209.062 150.231 208.735 148.838 208.142 147.552C207.497 146.149 206.561 144.899 205.397 143.885C204.139 142.786 202.639 142.002 201.019 141.595C200.17 141.379 199.298 141.265 198.422 141.254H189.974H177.538L41.28 141.283C38.8094 141.289 36.4162 142.145 34.502 143.707C32.5878 145.269 31.2694 147.442 30.768 149.861C30.7152 150.264 30.6336 150.658 30.6 151.061C30.5664 151.464 30.5472 151.862 30.552 152.27V153.49C30.552 153.893 30.5904 154.291 30.6048 154.694C30.8392 157.084 31.8709 159.326 33.5339 161.059C35.1968 162.791 37.3943 163.914 39.7728 164.246C40.1589 164.306 40.5486 164.34 40.9392 164.347C41.328 164.376 41.7264 164.347 42.12 164.347H80.6496L141.898 164.371L183.178 164.405H194.405H197.323H198.317C198.317 164.405 197.981 164.405 197.323 164.405H194.405H183.178L141.898 164.438H80.6496H42.1344C41.736 164.438 41.3472 164.438 40.9488 164.438C40.5502 164.431 40.1525 164.398 39.7584 164.338C37.3347 163.999 35.0955 162.855 33.4012 161.089C31.7068 159.323 30.6559 157.039 30.4176 154.603C30.4176 154.195 30.3648 153.782 30.36 153.379V152.16C30.36 151.757 30.3936 151.339 30.4128 150.931C30.432 150.523 30.5232 150.12 30.5808 149.712C31.1126 147.269 32.4635 145.08 34.4094 143.51C36.3552 141.939 38.7794 141.081 41.28 141.077L177.523 141.106H189.96H198.408C199.294 141.117 200.176 141.234 201.034 141.456C202.669 141.867 204.183 142.662 205.45 143.774C206.624 144.8 207.568 146.063 208.219 147.48C208.811 148.78 209.138 150.185 209.179 151.613C209.254 152.895 209.203 154.181 209.026 155.453C208.825 156.59 208.45 157.69 207.912 158.712C207.424 159.602 206.82 160.423 206.117 161.155C205.006 162.295 203.657 163.176 202.166 163.733C201.636 163.932 201.092 164.092 200.539 164.213C200.059 164.285 199.656 164.362 199.325 164.386L198.346 164.462Z" fill="#263238"/>
<path d="M185.443 156C184.445 156 183.47 155.704 182.64 155.149C181.81 154.595 181.164 153.807 180.782 152.885C180.4 151.963 180.301 150.948 180.496 149.969C180.691 148.99 181.172 148.092 181.878 147.386C182.584 146.681 183.483 146.201 184.462 146.007C185.441 145.813 186.455 145.913 187.377 146.296C188.299 146.678 189.086 147.326 189.64 148.156C190.194 148.986 190.489 149.962 190.488 150.96C190.487 152.297 189.955 153.579 189.009 154.524C188.063 155.469 186.78 156 185.443 156ZM185.443 146.314C184.524 146.312 183.625 146.583 182.859 147.092C182.094 147.601 181.497 148.326 181.144 149.175C180.79 150.024 180.697 150.959 180.875 151.861C181.053 152.762 181.495 153.591 182.145 154.242C182.794 154.893 183.622 155.336 184.524 155.516C185.425 155.696 186.36 155.605 187.209 155.254C188.059 154.902 188.785 154.307 189.296 153.542C189.807 152.778 190.08 151.879 190.08 150.96C190.079 149.73 189.59 148.55 188.721 147.679C187.852 146.808 186.673 146.317 185.443 146.314Z" fill="white"/>
<path d="M193.363 159.787C193.309 159.786 193.257 159.764 193.219 159.725L188.64 154.776C188.61 154.736 188.596 154.687 188.601 154.638C188.605 154.588 188.628 154.542 188.664 154.508C188.7 154.474 188.748 154.455 188.797 154.454C188.847 154.453 188.895 154.47 188.933 154.502L193.536 159.451C193.572 159.49 193.592 159.54 193.592 159.593C193.592 159.645 193.572 159.696 193.536 159.734C193.513 159.755 193.485 159.77 193.455 159.779C193.425 159.788 193.394 159.791 193.363 159.787Z" fill="white"/>
<path d="M106.757 158.146C106.699 158.146 106.651 155.774 106.651 152.866C106.651 149.957 106.699 147.586 106.757 147.586C106.814 147.586 106.858 149.957 106.858 152.866C106.858 155.774 106.814 158.146 106.757 158.146Z" fill="#3583F0"/>
<path d="M119.131 60.9168C118.364 67.1338 118.372 73.4219 119.155 79.6368C119.352 81.2112 119.688 82.9296 120.926 83.9136C122.405 85.0848 124.723 84.6768 126.067 83.3568C127.411 82.0368 127.91 80.0544 127.886 78.168C127.862 76.2816 127.378 74.4432 127.037 72.5904C126.586 70.1472 126.36 67.6128 125.266 65.3904C124.171 63.168 121.906 61.2624 119.448 61.512" fill="#263238"/>
<path d="M122.77 42.6336C125.587 39.8592 131.63 40.5648 134.77 42.9504C137.909 45.336 139.57 49.2672 140.232 53.1696C140.894 57.072 140.741 61.0656 141.062 65.0064C141.384 68.9472 142.272 73.0128 144.706 76.1328C145.747 77.4624 147.048 78.5904 147.974 80.0016C148.855 81.3466 149.353 82.9051 149.417 84.5112C149.482 86.1172 149.109 87.7106 148.339 89.1216C147.52 90.5055 146.305 91.6115 144.85 92.2962C143.395 92.9808 141.768 93.2127 140.179 92.9616C136.906 92.3424 134.39 89.5536 133.138 86.4672C131.885 83.3808 131.698 79.9824 131.424 76.6608C130.627 66.3206 129.236 56.0348 127.258 45.8544" fill="#263238"/>
<path d="M119.323 73.1232L122.256 72.3264H135.182L142.19 76.464C142.19 76.464 129.936 81.9792 125.39 79.7664C122.691 78.4547 120.541 76.2332 119.318 73.4928" fill="#FFBE9D"/>
<path d="M135.283 49.7232L135.36 48L125.04 45.7056C121.848 45.264 118.286 48.3696 117.984 51.576C117.648 55.1376 117.379 59.5008 117.72 62.1744C118.402 67.56 122.486 68.3664 122.486 68.3664L122.923 80.1312L134.77 80.64L135.283 49.7232Z" fill="#FFBE9D"/>
<path d="M119.52 55.3344C119.512 55.5133 119.574 55.6883 119.694 55.8219C119.813 55.9555 119.98 56.0372 120.158 56.0496C120.246 56.0589 120.334 56.0506 120.418 56.0254C120.503 56.0001 120.581 55.9584 120.649 55.9025C120.717 55.8467 120.773 55.7778 120.814 55.7001C120.855 55.6223 120.88 55.5372 120.888 55.4496C120.895 55.2715 120.832 55.0977 120.713 54.9652C120.593 54.8326 120.427 54.7515 120.25 54.7392C120.162 54.7292 120.074 54.7368 119.99 54.7615C119.906 54.7862 119.827 54.8275 119.759 54.883C119.691 54.9385 119.635 55.007 119.594 55.0845C119.553 55.162 119.528 55.247 119.52 55.3344Z" fill="#263238"/>
<path d="M119.04 53.4768C119.122 53.568 119.654 53.1984 120.394 53.2272C121.133 53.256 121.666 53.6352 121.747 53.5488C121.829 53.4624 121.704 53.3472 121.474 53.1648C121.161 52.9359 120.786 52.807 120.398 52.7952C120.013 52.7848 119.634 52.8938 119.314 53.1072C119.098 53.28 119.04 53.4336 119.04 53.4768Z" fill="#263238"/>
<path d="M126.749 55.68C126.741 55.8589 126.803 56.0339 126.923 56.1675C127.042 56.3011 127.209 56.3828 127.387 56.3952C127.475 56.4045 127.563 56.3962 127.647 56.371C127.732 56.3457 127.81 56.3039 127.878 56.2481C127.946 56.1923 128.002 56.1234 128.043 56.0457C128.084 55.9679 128.109 55.8828 128.117 55.7952C128.123 55.6163 128.06 55.4419 127.94 55.3092C127.82 55.1765 127.652 55.0959 127.474 55.0848C127.387 55.0749 127.299 55.0825 127.215 55.1072C127.131 55.132 127.053 55.1733 126.985 55.2289C126.918 55.2844 126.862 55.3529 126.821 55.4304C126.781 55.5079 126.756 55.5928 126.749 55.68Z" fill="#263238"/>
<path d="M126.317 53.8608C126.398 53.952 126.931 53.5824 127.67 53.6064C128.41 53.6304 128.938 54.0192 129.024 53.9328C129.11 53.8464 128.981 53.7264 128.75 53.5488C128.436 53.319 128.06 53.1901 127.67 53.1792C127.287 53.1666 126.908 53.2758 126.59 53.4912C126.36 53.6592 126.278 53.8176 126.317 53.8608Z" fill="#263238"/>
<path d="M123.466 59.64C123.079 59.5063 122.678 59.4209 122.27 59.3856C122.083 59.3856 121.906 59.3184 121.877 59.1888C121.867 58.9929 121.917 58.7985 122.021 58.632C122.213 58.1808 122.414 57.7104 122.621 57.192C123.461 55.1712 124.061 53.5056 123.994 53.472C123.926 53.4384 123.163 55.0512 122.328 57.0768L121.747 58.5168C121.623 58.7421 121.581 59.0031 121.627 59.256C121.653 59.3237 121.693 59.3848 121.745 59.4346C121.798 59.4845 121.861 59.5219 121.93 59.544C122.033 59.5734 122.139 59.5911 122.246 59.5968C122.649 59.663 123.059 59.6775 123.466 59.64Z" fill="#263238"/>
<path d="M122.501 68.376C125.08 68.4973 127.642 67.9114 129.912 66.6816C129.912 66.6816 128.098 70.3872 122.568 69.7248L122.501 68.376Z" fill="#936457"/>
<path d="M123.72 61.44C123.865 61.2641 124.051 61.1278 124.263 61.0438C124.474 60.9599 124.704 60.931 124.93 60.96C125.092 60.9803 125.25 61.0333 125.391 61.1158C125.533 61.1983 125.657 61.3085 125.755 61.44C125.85 61.5664 125.904 61.7186 125.91 61.8764C125.916 62.0341 125.874 62.19 125.789 62.3232C125.667 62.4482 125.511 62.5352 125.341 62.5736C125.17 62.6119 124.993 62.6 124.829 62.5392C124.484 62.4039 124.169 62.2016 123.902 61.944C123.821 61.8833 123.752 61.8065 123.701 61.7184C123.672 61.6785 123.657 61.6307 123.657 61.5816C123.657 61.5325 123.672 61.4847 123.701 61.4448" fill="#FF8A8A"/>
<path d="M125.626 60.2208C125.506 60.2208 125.477 61.0128 124.771 61.56C124.066 62.1072 123.216 61.992 123.206 62.1024C123.197 62.2128 123.394 62.2656 123.754 62.2848C124.223 62.3076 124.686 62.163 125.059 61.8768C125.416 61.6012 125.653 61.1991 125.722 60.7536C125.76 60.4176 125.678 60.216 125.626 60.2208Z" fill="#263238"/>
<path d="M126.24 51.6288C126.307 51.8304 127.046 51.7584 127.91 51.888C128.774 52.0176 129.47 52.2816 129.59 52.104C129.643 52.0176 129.528 51.8256 129.25 51.624C128.884 51.3656 128.46 51.2008 128.016 51.144C127.575 51.0754 127.124 51.1133 126.701 51.2544C126.35 51.36 126.187 51.5328 126.24 51.6288Z" fill="#263238"/>
<path d="M119.155 50.9424C119.28 51.1152 119.798 50.9424 120.408 50.9664C121.018 50.9904 121.536 51.1152 121.661 50.9424C121.714 50.856 121.661 50.688 121.416 50.52C121.118 50.32 120.767 50.2133 120.408 50.2133C120.049 50.2133 119.698 50.32 119.4 50.52C119.179 50.688 119.102 50.88 119.155 50.9424Z" fill="#263238"/>
<path d="M135.125 58.1472C136.061 57.528 136.469 52.1856 136.43 49.9872C136.392 47.7888 135.216 45.84 133.67 44.2848C132 42.6048 130.042 42.0144 127.68 41.76C126.355 41.616 124.934 41.4432 123.653 41.808C122.371 42.1728 121.656 42.624 121.032 43.8C120.686 44.4528 120.595 45.384 121.195 45.8112C121.795 46.2384 122.549 45.8928 123.226 45.7008C125.021 45.1872 126.989 45.768 128.539 46.8048C130.09 47.8416 131.309 49.3056 132.504 50.7456C134.054 52.6224 134.789 55.7424 135.134 58.1472" fill="#F4C3FB"/>
<path d="M117.048 45.6576C117.734 43.4784 121.978 40.7808 126.47 42.7776C128.534 42.8496 130.541 43.1904 132.739 45.1776C136.709 48.8016 135.187 57.6576 135.187 57.6576C132.751 56.4027 130.596 54.6631 128.856 52.5456C126.307 49.4736 124.91 47.0688 124.411 45.6096C120.264 46.608 118.699 50.232 117.97 51.8016C117.034 50.7744 115.834 49.5024 117.048 45.6576Z" fill="#263238"/>
<path d="M134.309 57.1488C134.395 57.1056 137.842 55.944 137.875 59.5104C137.909 63.0768 134.323 62.3904 134.318 62.2704C134.314 62.1504 134.309 57.1488 134.309 57.1488Z" fill="#FFBE9D"/>
<path d="M135.394 60.9072C135.394 60.9072 135.456 60.9504 135.562 60.9984C135.637 61.0309 135.719 61.0476 135.802 61.0476C135.884 61.0476 135.966 61.0309 136.042 60.9984C136.27 60.8498 136.455 60.643 136.578 60.3992C136.7 60.1554 136.755 59.8834 136.738 59.6112C136.742 59.307 136.68 59.0056 136.555 58.728C136.521 58.6147 136.459 58.5116 136.375 58.4279C136.292 58.3441 136.189 58.2824 136.075 58.248C136.004 58.2289 135.928 58.2358 135.861 58.2674C135.794 58.2991 135.741 58.3534 135.71 58.4208C135.662 58.5216 135.686 58.5936 135.667 58.5984C135.648 58.6032 135.59 58.5408 135.619 58.392C135.638 58.3039 135.685 58.2245 135.754 58.1664C135.853 58.0926 135.977 58.06 136.099 58.0752C136.246 58.1022 136.383 58.1669 136.498 58.2628C136.612 58.3587 136.7 58.4826 136.752 58.6224C136.906 58.9288 136.984 59.2682 136.978 59.6112C136.978 60.3312 136.598 61.008 136.085 61.1616C135.99 61.1909 135.889 61.1979 135.791 61.1821C135.693 61.1663 135.599 61.1281 135.518 61.0704C135.398 60.9936 135.36 60.9168 135.394 60.9072Z" fill="#936457"/>
<path d="M95.928 136.714L88.728 137.51L84.3456 140.261C84.3456 140.261 84.2592 141.154 85.5072 141.01L87.9792 139.968L86.0208 142.109C86.0208 142.109 86.5008 142.968 87.5712 142.368C88.2411 141.981 88.8309 141.469 89.3088 140.861L93.6288 140.558C93.6288 140.558 90.3648 143.698 90.9648 144.514C91.5648 145.33 91.9536 145.157 92.4048 144.859C92.856 144.562 93.1392 143.525 94.2096 143.184C95.28 142.843 97.0608 141.835 98.9808 140.923C100.637 140.141 102.312 134.539 102.312 134.539L96.7968 133.464L95.928 136.714Z" fill="#FFBE9D"/>
<path d="M93.0672 138.547C93.0672 138.638 91.2528 138.989 88.9824 139.33H88.9248L89.016 139.282C87.432 140.904 86.1024 142.162 86.0352 142.099C85.968 142.037 87.1968 140.659 88.7808 139.051L88.8192 139.008H88.872H88.9344C91.2 138.662 93.0528 138.456 93.0672 138.547Z" fill="#936457"/>
<path d="M139.037 181.925L137.698 170.318L126.936 173.333L129.653 184.464L139.037 181.925Z" fill="#FFBE9D"/>
<path d="M139.157 181.92L140.976 195.446L145.502 205.733C145.58 205.908 145.62 206.098 145.621 206.289C145.621 206.481 145.583 206.67 145.507 206.847C145.432 207.023 145.32 207.181 145.181 207.312C145.041 207.444 144.876 207.545 144.696 207.61C144.486 207.686 144.262 207.711 144.04 207.683C143.819 207.654 143.608 207.573 143.424 207.446C141.058 205.795 132.384 199.69 132.293 198.691C132.202 197.534 129.413 184.55 129.413 184.55L139.157 181.92Z" fill="#A5A5A5"/>
<g opacity="0.6">
<path d="M144.696 207.586L132.149 197.76L132.24 198.331C132.317 198.824 132.567 199.274 132.946 199.598C133.963 200.472 136.814 202.814 143.386 207.427C143.574 207.56 143.792 207.645 144.021 207.672C144.25 207.7 144.482 207.67 144.696 207.586Z" fill="white"/>
</g>
<g opacity="0.6">
<path d="M134.232 192.96C134.417 193.056 134.56 193.217 134.633 193.412C134.707 193.607 134.706 193.822 134.63 194.016C134.542 194.205 134.385 194.352 134.191 194.428C133.997 194.504 133.782 194.503 133.589 194.424C133.393 194.323 133.241 194.152 133.164 193.945C133.087 193.739 133.089 193.511 133.171 193.306C133.283 193.119 133.464 192.983 133.674 192.926C133.885 192.87 134.109 192.897 134.299 193.003" fill="white"/>
</g>
<path d="M140.683 202.181C140.94 201.708 141.285 201.289 141.701 200.947C142.426 200.419 143.203 200.491 143.208 200.405C143.213 200.318 143.026 200.29 142.704 200.299C142.281 200.313 141.871 200.454 141.528 200.702C141.181 200.94 140.911 201.274 140.75 201.662C140.64 201.974 140.64 202.176 140.683 202.181Z" fill="#263238"/>
<path d="M141.931 203.837C142.003 203.885 142.368 203.357 143.03 203.069C143.453 202.916 143.884 202.79 144.322 202.69C144.35 202.613 143.654 202.43 142.882 202.795C142.109 203.16 141.854 203.813 141.931 203.837Z" fill="#263238"/>
<path d="M138.533 200.16C138.605 200.213 139.162 199.43 140.15 198.859C141.139 198.288 142.07 198.168 142.07 198.077C142.07 197.986 141.048 197.971 139.992 198.6C138.936 199.229 138.461 200.122 138.533 200.16Z" fill="#263238"/>
<path d="M137.635 196.085C137.683 196.157 138.379 195.73 139.344 195.542C140.309 195.355 141.11 195.466 141.125 195.379C141.139 195.293 140.318 195.034 139.282 195.25C138.245 195.466 137.582 196.027 137.635 196.085Z" fill="#263238"/>
<path d="M136.997 192.125C137.054 192.197 137.731 191.645 138.763 191.515C139.795 191.386 140.587 191.765 140.621 191.683C140.654 191.602 140.462 191.506 140.141 191.371C139.692 191.21 139.212 191.158 138.739 191.218C138.267 191.27 137.815 191.434 137.419 191.698C137.107 191.914 136.973 192.101 136.997 192.125Z" fill="#263238"/>
<path d="M114.144 115.45L113.947 118.378C113.947 118.378 111.475 123.058 111.25 127.253C111.115 129.686 111.062 133.277 111.038 135.859C111.019 137.938 111.595 139.978 112.699 141.739L117.653 149.683L120.546 158.727L125.952 176.64L139.243 173.28L137.669 140.088L132.322 122.558L131.304 114.24L114.144 115.45Z" fill="#262424"/>
<path d="M140.918 113.626L141.154 117.442C141.154 117.442 151.829 94.7088 166.392 91.9056C175.853 90.0816 179.582 100.397 176.261 108.586C174.264 113.515 165.97 122.952 165.96 123.168C165.696 128.232 160.541 127.488 160.541 127.488C160.541 127.488 154.08 137.688 152.16 139.68C150.845 141.048 136.968 140.558 136.968 140.558L132.605 131.539L130.848 114.259L140.918 113.626Z" fill="#262424"/>
<path d="M106.968 83.1072C107.736 76.464 111.998 74.976 111.998 74.976L112.622 114.226L107.726 134.496C107.582 135.1 107.314 135.668 106.941 136.165C106.568 136.661 106.097 137.076 105.557 137.384C105.017 137.691 104.42 137.884 103.802 137.951C103.185 138.019 102.56 137.958 101.966 137.774L92.0496 134.76C92.0496 134.76 106.205 89.76 106.968 83.1072Z" fill="#3583F0"/>
<path d="M148.354 79.68C148.354 79.68 150.806 85.2624 150.806 88.2C150.806 91.1376 153.744 110.17 150.806 114.202C147.869 118.234 142.08 118.08 140.453 117.96C138.211 117.773 127.757 98.4384 128.184 98.1888L134.064 96.912C134.064 96.912 138.182 97.1664 140.146 98.832C142.109 100.498 144.029 98.5776 144.029 98.5776L148.181 80.736" fill="#3583F0"/>
<path d="M140.16 74.976C140.16 74.976 146.88 77.28 148.354 79.68C149.827 82.08 141.35 113.482 141.35 113.482L114.144 115.43C114.144 115.43 111.998 115.042 111.413 113.093C110.827 111.144 111.998 74.9568 111.998 74.9568L119.568 72.2784C119.568 72.2784 122.822 75.6384 125.165 76.3248C127.507 77.0112 140.16 74.976 140.16 74.976Z" fill="#3583F0"/>
<path d="M113.702 83.592C113.724 83.6978 113.734 83.8057 113.731 83.9136C113.731 84.1632 113.731 84.4704 113.76 84.84C113.76 85.6464 113.76 86.8128 113.76 88.2528C113.67 92.0036 113.391 95.7476 112.925 99.4704C112.651 101.65 112.325 103.723 111.989 105.595C111.653 107.467 111.288 109.142 111.326 110.573C111.318 111.7 111.585 112.812 112.104 113.813C112.315 114.169 112.549 114.51 112.805 114.835C112.805 114.835 112.709 114.773 112.56 114.619C112.347 114.39 112.159 114.139 111.998 113.87C111.426 112.866 111.119 111.733 111.106 110.578C111.038 109.138 111.379 107.41 111.706 105.547C112.032 103.685 112.344 101.606 112.613 99.432C113.16 95.0832 113.424 91.1184 113.544 88.2432C113.592 86.8416 113.63 85.6896 113.659 84.84C113.659 84.4704 113.659 84.1632 113.688 83.9136C113.675 83.8063 113.68 83.6977 113.702 83.592Z" fill="#263238"/>
<path d="M133.075 106.392C133.123 106.392 133.339 107.126 133.838 108.278C134.504 109.77 135.272 111.213 136.138 112.598C136.991 113.994 137.942 115.327 138.984 116.587C139.298 116.968 139.641 117.322 140.011 117.648C140.149 117.762 140.297 117.863 140.453 117.95C140.453 117.95 140.232 117.95 139.934 117.744C139.528 117.447 139.155 117.107 138.821 116.731C136.631 114.251 134.878 111.417 133.637 108.35C133.452 107.879 133.292 107.398 133.157 106.91C133.107 106.742 133.079 106.568 133.075 106.392Z" fill="#263238"/>
<g opacity="0.3">
<path d="M133.704 108.581C132.298 108.936 130.872 108.101 129.422 108.043C128.107 107.976 126.85 108.523 125.582 108.864C122.813 109.608 119.876 109.431 117.216 108.36C116.899 108.25 116.611 108.072 116.371 107.837C116.254 107.69 116.178 107.515 116.15 107.33C116.122 107.145 116.144 106.955 116.213 106.781C118.656 106.757 121.094 106.862 123.542 106.838C124.039 106.874 124.536 106.776 124.982 106.555C125.094 106.494 125.185 106.401 125.242 106.286C125.242 106.286 126.706 106.238 127.229 106.234C128.405 106.234 129.763 106.325 130.939 106.32C131.453 106.32 133.104 106.392 133.066 106.392" fill="black"/>
</g>
<path d="M143.064 84.648C143.138 85.3094 143.152 85.9761 143.107 86.64C143.083 87.864 142.997 89.5632 142.819 91.44C142.642 93.3168 142.406 94.992 142.2 96.2016C142.124 96.8611 141.986 97.512 141.787 98.1456C141.808 97.4827 141.874 96.822 141.984 96.168C142.133 94.9536 142.334 93.288 142.512 91.4112C142.69 89.5344 142.805 87.864 142.886 86.6448C142.9 85.9759 142.959 85.3088 143.064 84.648Z" fill="#263238"/>
<path d="M121.867 98.0976L119.021 91.9632L109.234 91.3488L108.888 91.92L116.309 106.214L125.251 106.286L121.867 98.0976Z" fill="#455A64"/>
<path d="M121.522 98.6688L118.675 92.5296L108.888 91.9152L115.963 106.795L123.898 106.853C124.37 106.859 124.827 106.688 125.179 106.373L125.251 106.306L121.522 98.6688Z" fill="#455A64"/>
<path d="M114.096 94.8048C114.167 94.8665 114.254 94.9061 114.347 94.9188C114.44 94.9314 114.535 94.9165 114.619 94.8759C114.704 94.8353 114.775 94.7708 114.823 94.6904C114.871 94.6099 114.895 94.5171 114.891 94.4233C114.887 94.3295 114.856 94.239 114.801 94.1628C114.746 94.0866 114.67 94.0282 114.583 93.9947C114.495 93.9613 114.4 93.9542 114.308 93.9745C114.216 93.9948 114.133 94.0415 114.067 94.1088C114.022 94.1556 113.986 94.2111 113.963 94.272C113.94 94.3329 113.929 94.3979 113.932 94.463C113.935 94.5281 113.951 94.592 113.979 94.6508C114.007 94.7096 114.047 94.762 114.096 94.8048Z" fill="#EBEBEB"/>
<path d="M132.989 98.9808L129.206 99.2016C128.743 98.5448 128.138 98.0007 127.436 97.6093C126.734 97.218 125.953 96.9895 125.15 96.9408L123.802 96.8544L122.813 97.8144C122.813 97.8144 116.174 97.6896 115.882 98.4912V98.7552V98.9088L121.522 99.6432C121.522 99.6432 116.722 99.3264 116.414 99.3168C116.107 99.3072 115.075 99.1536 115.061 99.72C115.061 100.2 115.579 100.589 116.405 100.762C116.741 100.834 120.893 101.458 120.893 101.458L116.299 101.126C115.786 101.088 115.819 101.918 116.098 102.043C116.376 102.168 122.112 104.222 122.112 104.222C121.556 104.546 120.922 104.711 120.278 104.702C119.472 104.597 118.152 103.469 117.835 103.944C117.518 104.419 117.557 104.707 117.72 104.832C118.562 105.373 119.441 105.854 120.35 106.272C120.974 106.483 127.387 106.162 127.387 106.162L134.083 106.392L132.989 98.9808Z" fill="#FFBE9D"/>
<path d="M120.552 97.7712C121.329 97.7462 122.106 97.767 122.88 97.8336C123.658 97.8541 124.434 97.923 125.203 98.04C124.427 98.068 123.649 98.0471 122.875 97.9776C122.097 97.96 121.321 97.8911 120.552 97.7712Z" fill="#936457"/>
<path d="M120.96 97.5024C120.96 97.5024 120.893 97.3728 120.782 97.1376C120.672 96.9024 120.499 96.5232 120.302 96.1152C119.89 95.1936 119.342 93.9744 118.709 92.5728H118.747L116.506 92.4288L111.096 92.0688L109.459 91.9488L109.013 91.9104H109.459L111.101 92.0016L116.51 92.3328L118.752 92.4816H118.781V92.5056L120.346 96.0624L120.792 97.0944C120.931 97.368 120.96 97.5024 120.96 97.5024Z" fill="#263238"/>
<path d="M158.789 130.282L152.27 138.48C152.27 138.48 158.856 147.235 157.8 148.867L141 137.419L150.634 124.229L158.789 130.282Z" fill="#A5A5A5"/>
<g opacity="0.6">
<path d="M147.734 134.04C147.543 133.971 147.332 133.976 147.143 134.053C146.954 134.13 146.801 134.274 146.712 134.458C146.637 134.648 146.637 134.86 146.713 135.05C146.789 135.24 146.934 135.394 147.12 135.48C147.325 135.552 147.55 135.545 147.75 135.461C147.95 135.376 148.112 135.221 148.205 135.024C148.262 134.818 148.238 134.597 148.137 134.409C148.036 134.22 147.866 134.078 147.662 134.011" fill="white"/>
</g>
<g opacity="0.6">
<path d="M141.005 137.419L141.965 136.09L157.805 147.71C157.917 147.916 157.975 148.146 157.975 148.38C157.975 148.614 157.917 148.844 157.805 149.05L141.005 137.419Z" fill="white"/>
</g>
<path d="M152.597 138.59C152.534 138.667 152.117 138.408 151.526 138.374C150.936 138.341 150.485 138.523 150.437 138.437C150.389 138.35 150.845 137.957 151.55 138.034C152.256 138.11 152.669 138.528 152.597 138.59Z" fill="#263238"/>
<path d="M153.787 140.563C153.749 140.654 153.307 140.534 152.784 140.674C152.261 140.813 151.92 141.11 151.824 141.048C151.728 140.986 152.03 140.496 152.678 140.338C153.326 140.179 153.84 140.486 153.787 140.563Z" fill="#263238"/>
<path d="M153.245 143.338C153.163 143.299 153.346 142.819 153.874 142.531C154.402 142.243 154.901 142.349 154.886 142.44C154.872 142.531 154.469 142.594 154.037 142.838C153.605 143.083 153.331 143.386 153.245 143.338Z" fill="#263238"/>
<path d="M153.874 136.555C153.787 136.603 153.504 136.224 153.029 135.922C152.554 135.619 152.098 135.504 152.107 135.403C152.117 135.302 152.664 135.269 153.216 135.634C153.768 135.998 153.96 136.522 153.874 136.555Z" fill="#263238"/>
<path d="M160.541 127.483L158.486 130.056L150.826 124.373L152.222 122.237L160.541 127.483Z" fill="#FFBE9D"/>
<path d="M105.528 64.8336L99.24 62.352C96.2086 64.8658 92.3465 66.1546 88.4131 65.9652C84.4796 65.7758 80.7592 64.1217 77.9835 61.3283C75.2077 58.5349 73.5773 54.8041 73.4128 50.8695C73.2483 46.9349 74.5616 43.0811 77.0945 40.0657C79.6274 37.0503 83.1967 35.0915 87.1006 34.5744C91.0046 34.0573 94.9608 35.0193 98.1914 37.2712C101.422 39.5232 103.693 42.9022 104.559 46.7439C105.424 50.5857 104.822 54.6123 102.869 58.032L105.528 64.8336Z" fill="#FAFAFA"/>
<path d="M105.528 64.8336C105.365 64.392 104.568 62.2992 102.941 57.9984L102.902 57.9024L102.83 57.9744L102.936 58.0512C104.332 55.6429 105.06 52.9053 105.043 50.1216C105.044 49.2879 104.97 48.4557 104.822 47.6352C104.741 47.2128 104.669 46.7808 104.573 46.3488C104.477 45.9168 104.318 45.4944 104.184 45.0576C102.861 41.2367 100.132 38.0633 96.552 36.1824C94.5698 35.1362 92.3863 34.5273 90.1488 34.3968C87.7842 34.2703 85.4209 34.6669 83.2272 35.5584C80.9316 36.4907 78.8924 37.9588 77.28 39.84C75.6187 41.74 74.4354 44.0094 73.8288 46.4592C73.2634 48.8065 73.2339 51.251 73.7424 53.6112C74.2149 55.8453 75.1736 57.9479 76.5504 59.7696C79.0279 63.0368 82.6655 65.2276 86.712 65.8896C88.429 66.138 90.1738 66.1235 91.8864 65.8464C94.6135 65.3723 97.1659 64.183 99.2832 62.4H99.216L105.528 64.8L99.288 62.256H99.2544L99.2256 62.28C97.1093 64.025 94.5719 65.1837 91.8672 65.64C90.1745 65.8975 88.4527 65.8975 86.76 65.64C82.776 64.9683 79.1993 62.7996 76.7616 59.5776C75.4102 57.7836 74.4711 55.7137 74.0112 53.5152C73.5143 51.194 73.5455 48.7908 74.1024 46.4832C74.6984 44.0726 75.8619 41.8394 77.496 39.9696C79.0847 38.1311 81.0889 36.6978 83.3424 35.7888C85.4989 34.9091 87.8229 34.5158 90.1488 34.6368C92.3502 34.7664 94.4987 35.3636 96.4512 36.3888C99.9751 38.2412 102.665 41.3616 103.978 45.12L104.362 46.392C104.462 46.8144 104.53 47.2416 104.616 47.6592C104.765 48.4701 104.842 49.2924 104.846 50.1168C104.873 52.8697 104.171 55.5805 102.811 57.9744L102.557 58.4256L102.917 58.056H102.806L105.528 64.8336Z" fill="#263238"/>
<path d="M86.952 48.3408H87.84L89.76 45.6V43.824C89.76 43.824 91.1328 43.728 90.9888 46.056C90.8448 48.384 91.0176 47.7936 91.0176 47.7936C91.0176 47.7936 93.9408 47.7936 94.1856 48.0336C94.4304 48.2736 94.464 51.12 94.5072 52.6944C94.5306 53.0747 94.4254 53.4519 94.2087 53.7653C93.9919 54.0787 93.6761 54.3101 93.312 54.4224C93.2103 54.4506 93.1054 54.4651 93 54.4656C92.2704 54.4656 88.5408 53.9088 88.5408 53.9088H87L86.952 48.3408Z" fill="#E65E2A"/>
<path d="M84.3984 47.8752L84.9936 53.9616L86.52 53.9472L86.472 47.9808L84.3984 47.8752Z" fill="#E65E2A"/>
</svg>
