<svg width="24" height="24" viewBox="0 0 24 24" fill="none" xmlns="http://www.w3.org/2000/svg">
<path fill-rule="evenodd" clip-rule="evenodd" d="M2.68934 4.93934C2.97064 4.65804 3.35217 4.5 3.75 4.5H8.74996C9.0723 4.50133 9.38574 4.60581 9.6444 4.79815L9.64619 4.79948L12.2507 6.74815C12.2507 6.7482 12.2506 6.74811 12.2507 6.74815C12.2521 6.74921 12.2541 6.74993 12.2559 6.75H20.25C20.6478 6.75 21.0294 6.90804 21.3107 7.18934C21.592 7.47065 21.75 7.85218 21.75 8.25V18.8344C21.75 19.2098 21.6009 19.5699 21.3354 19.8354C21.0699 20.1009 20.7098 20.25 20.3344 20.25H3.75C3.35218 20.25 2.97065 20.092 2.68934 19.8107C2.40804 19.5294 2.25 19.1478 2.25 18.75V6C2.25 5.60217 2.40804 5.22064 2.68934 4.93934ZM8.7441 6L3.75 6L3.75 18.75H20.25V8.25H12.25C11.9277 8.24867 11.6143 8.14419 11.3556 7.95185L11.3538 7.95052L8.74935 6.00185C8.74929 6.0018 8.74941 6.00189 8.74935 6.00185C8.74786 6.00079 8.74592 6.00007 8.7441 6Z" fill="#262424"/>
<path fill-rule="evenodd" clip-rule="evenodd" d="M9 13.5C9 13.0858 9.33579 12.75 9.75 12.75H14.25C14.6642 12.75 15 13.0858 15 13.5C15 13.9142 14.6642 14.25 14.25 14.25H9.75C9.33579 14.25 9 13.9142 9 13.5Z" fill="#262424"/>
<path fill-rule="evenodd" clip-rule="evenodd" d="M12 10.5C12.4142 10.5 12.75 10.8358 12.75 11.25V15.75C12.75 16.1642 12.4142 16.5 12 16.5C11.5858 16.5 11.25 16.1642 11.25 15.75V11.25C11.25 10.8358 11.5858 10.5 12 10.5Z" fill="#262424"/>
</svg>
