<svg width="24" height="24" viewBox="0 0 24 24" fill="none" xmlns="http://www.w3.org/2000/svg">
<path d="M12.6977 11.0698C12.6977 10.6845 12.3853 10.3721 12 10.3721C11.6147 10.3721 11.3023 10.6845 11.3023 11.0698V16.6512C11.3023 17.0365 11.6147 17.3488 12 17.3488C12.3853 17.3488 12.6977 17.0365 12.6977 16.6512V11.0698Z" fill="#262424"/>
<path fill-rule="evenodd" clip-rule="evenodd" d="M12 2C6.47715 2 2 6.47715 2 12C2 17.5228 6.47715 22 12 22C17.5228 22 22 17.5228 22 12C22 6.47715 17.5228 2 12 2ZM3.39535 12C3.39535 7.24778 7.24778 3.39535 12 3.39535C16.7522 3.39535 20.6047 7.24778 20.6047 12C20.6047 16.7522 16.7522 20.6047 12 20.6047C7.24778 20.6047 3.39535 16.7522 3.39535 12Z" fill="#262424"/>
<path d="M12.9302 8.27907C12.9302 8.79282 12.5138 9.2093 12 9.2093C11.4862 9.2093 11.0698 8.79282 11.0698 8.27907C11.0698 7.76532 11.4862 7.34884 12 7.34884C12.5138 7.34884 12.9302 7.76532 12.9302 8.27907Z" fill="#262424"/>
</svg>
