<svg width="24" height="24" viewBox="0 0 24 24" fill="none" xmlns="http://www.w3.org/2000/svg">
<path fill-rule="evenodd" clip-rule="evenodd" d="M10.6667 2C5.88021 2 2 5.88021 2 10.6667C2 15.4532 5.88021 19.3334 10.6667 19.3334C15.4532 19.3334 19.3334 15.4532 19.3334 10.6667C19.3334 5.88021 15.4532 2 10.6667 2ZM3.33334 10.6667C3.33334 6.6166 6.6166 3.33334 10.6667 3.33334C14.7168 3.33334 18.0001 6.6166 18.0001 10.6667C18.0001 14.7168 14.7168 18.0001 10.6667 18.0001C6.6166 18.0001 3.33334 14.7168 3.33334 10.6667Z" fill="#262424"/>
<path d="M18.2493 17.3065C17.989 17.0462 17.5668 17.0462 17.3065 17.3065C17.0461 17.5669 17.0461 17.989 17.3065 18.2493L20.862 21.8048C21.1223 22.0652 21.5444 22.0652 21.8048 21.8048C22.0651 21.5445 22.0651 21.1224 21.8048 20.862L18.2493 17.3065Z" fill="#262424"/>
</svg>
