<svg width="24" height="24" viewBox="0 0 24 24" fill="none" xmlns="http://www.w3.org/2000/svg">
<path fill-rule="evenodd" clip-rule="evenodd" d="M8.60225 0.727252C8.82192 0.507583 9.17808 0.507583 9.39775 0.727252L12.3509 3.68038C12.5705 3.90005 12.5705 4.2562 12.3509 4.47587C12.1312 4.69554 11.775 4.69554 11.5554 4.47587L9 1.9205L6.44462 4.47587C6.22495 4.69554 5.8688 4.69554 5.64913 4.47587C5.42946 4.2562 5.42946 3.90005 5.64913 3.68038L8.60225 0.727252Z" fill="#262424"/>
<path fill-rule="evenodd" clip-rule="evenodd" d="M9 0.5625C9.31066 0.5625 9.5625 0.81434 9.5625 1.125V9C9.5625 9.31066 9.31066 9.5625 9 9.5625C8.68934 9.5625 8.4375 9.31066 8.4375 9V1.125C8.4375 0.81434 8.68934 0.5625 9 0.5625Z" fill="#262424"/>
<path fill-rule="evenodd" clip-rule="evenodd" d="M3.142 6.517C3.35298 6.30603 3.63913 6.1875 3.9375 6.1875H5.625C5.93566 6.1875 6.1875 6.43934 6.1875 6.75C6.1875 7.06066 5.93566 7.3125 5.625 7.3125L3.9375 7.3125L3.9375 14.625H14.0625V7.3125H12.375C12.0643 7.3125 11.8125 7.06066 11.8125 6.75C11.8125 6.43934 12.0643 6.1875 12.375 6.1875H14.0625C14.3609 6.1875 14.647 6.30603 14.858 6.517C15.069 6.72798 15.1875 7.01413 15.1875 7.3125V14.625C15.1875 14.9234 15.069 15.2095 14.858 15.4205C14.647 15.6315 14.3609 15.75 14.0625 15.75H3.9375C3.63913 15.75 3.35298 15.6315 3.142 15.4205C2.93103 15.2095 2.8125 14.9234 2.8125 14.625V7.3125C2.8125 7.01413 2.93103 6.72798 3.142 6.517Z" fill="#262424"/>
</svg>
